M48
; DRILL file {KiCad 7.0.5} date Fri Sep 15 18:16:32 2023
; FORMAT={-:-/ absolute / metric / decimal}
; #@! TF.CreationDate,2023-09-15T18:16:32+08:00
; #@! TF.GenerationSoftware,Kicad,Pcbnew,7.0.5
; #@! TF.FileFunction,Plated,1,2,PTH
FMAT,2
METRIC
; #@! TA.AperFunction,Plated,PTH,ViaDrill
T1C0.400
; #@! TA.AperFunction,Plated,PTH,ComponentDrill
T2C1.092
; #@! TA.AperFunction,Plated,PTH,ComponentDrill
T3C3.050
%
G90
G05
T1
X321.561Y-92.135
X325.69Y-115.83
X326.54Y-116.55
X327.36Y-117.27
X328.2Y-117.98
X329.111Y-102.2
X329.81Y-88.892
X330.96Y-86.44
X330.96Y-90.22
X331.7Y-132.16
X331.71Y-115.01
X331.71Y-153.11
X331.72Y-102.92
X333.61Y-172.183
T2
X333.557Y-77.525
X333.557Y-80.065
X333.557Y-82.605
X333.557Y-85.145
X333.557Y-87.685
X333.557Y-90.225
X333.557Y-92.765
X333.557Y-95.305
X333.557Y-97.845
X336.152Y-98.165
X338.692Y-98.165
X341.232Y-98.165
X343.772Y-98.165
X346.312Y-98.165
X348.907Y-77.525
X348.907Y-80.065
X348.907Y-82.605
X348.907Y-85.145
X348.907Y-87.685
X348.907Y-90.225
X348.907Y-92.765
X348.907Y-95.305
X348.907Y-97.845
T3
X51.672Y-87.77
X54.054Y-125.87
X54.054Y-163.97
X56.435Y-106.82
X57.705Y-171.59
X58.022Y-85.23
X60.086Y-133.49
X60.404Y-123.33
X60.404Y-161.43
X62.785Y-104.28
X63.579Y-144.92
X64.055Y-169.05
X66.436Y-130.95
X69.929Y-142.38
X70.722Y-87.77
X77.072Y-85.23
X77.867Y-163.97
X80.248Y-106.82
X81.518Y-171.59
X84.217Y-161.43
X85.01Y-125.87
X86.598Y-104.28
X87.868Y-169.05
X89.772Y-87.77
X91.36Y-123.33
X94.536Y-144.92
X96.122Y-85.23
X99.298Y-106.82
X100.886Y-142.38
X101.68Y-163.97
X104.06Y-125.87
X105.331Y-171.59
X105.648Y-104.28
X108.03Y-161.43
X108.822Y-87.77
X110.41Y-123.33
X111.681Y-169.05
X113.586Y-144.92
X115.172Y-85.23
X118.348Y-106.82
X119.936Y-142.38
X123.11Y-125.87
X124.698Y-104.28
X127.872Y-87.77
X129.46Y-123.33
X132.636Y-144.92
X134.222Y-85.23
X137.398Y-106.82
X138.986Y-142.38
X142.16Y-125.87
X143.748Y-104.28
X146.922Y-87.77
X148.51Y-123.33
X151.686Y-144.92
X153.272Y-85.23
X156.448Y-106.82
X158.036Y-142.38
X161.21Y-125.87
X162.798Y-104.28
X165.972Y-87.77
X167.56Y-123.33
X170.736Y-144.92
X172.322Y-85.23
X173.117Y-163.97
X175.498Y-106.82
X177.086Y-142.38
X179.467Y-161.43
X180.26Y-125.87
X181.848Y-104.28
X185.022Y-87.77
X186.294Y-171.59
X186.61Y-123.33
X189.786Y-144.92
X191.372Y-85.23
X192.644Y-169.05
X194.548Y-106.82
X196.136Y-142.38
X199.31Y-125.87
X200.898Y-104.28
X204.072Y-87.77
X205.66Y-123.33
X208.836Y-144.92
X210.422Y-85.23
X213.598Y-106.82
X215.186Y-142.38
X218.36Y-125.87
X219.948Y-104.28
X223.122Y-87.77
X224.71Y-123.33
X227.886Y-144.92
X229.472Y-85.23
X232.648Y-106.82
X234.236Y-142.38
X237.41Y-125.87
X238.998Y-104.28
X242.172Y-87.77
X243.76Y-123.33
X244.554Y-163.97
X246.936Y-144.92
X248.522Y-85.23
X250.904Y-161.43
X251.698Y-106.82
X253.286Y-142.38
X256.46Y-125.87
X258.048Y-104.28
X261.222Y-87.77
X262.81Y-123.33
X265.986Y-144.92
X265.987Y-163.97
X267.572Y-85.23
X269.636Y-171.59
X270.748Y-106.82
X272.336Y-142.38
X272.337Y-161.43
X275.51Y-125.87
X275.986Y-169.05
X277.098Y-104.28
X280.272Y-87.77
X281.86Y-123.33
X286.622Y-85.23
X289.798Y-106.82
X292.18Y-144.92
X296.148Y-104.28
X298.53Y-142.38
X299.322Y-163.97
X305.672Y-161.43
X306.467Y-125.87
X308.847Y-87.77
X312.817Y-123.33
X313.611Y-106.82
X315.197Y-85.23
X318.372Y-144.92
X318.372Y-163.97
X319.961Y-104.28
X324.722Y-142.38
X324.722Y-161.43
X337.422Y-106.82
X337.422Y-125.87
X337.422Y-144.92
X337.422Y-163.97
X343.772Y-104.28
X343.772Y-123.33
X343.772Y-142.38
X343.772Y-161.43
T0
M30
