%TF.GenerationSoftware,KiCad,Pcbnew,7.0.5*%
%TF.CreationDate,2023-09-15T18:16:34+08:00*%
%TF.ProjectId,Openero65,4f70656e-6572-46f3-9635-2e6b69636164,rev?*%
%TF.SameCoordinates,Original*%
%TF.FileFunction,Soldermask,Top*%
%TF.FilePolarity,Negative*%
%FSLAX46Y46*%
G04 Gerber Fmt 4.6, Leading zero omitted, Abs format (unit mm)*
G04 Created by KiCad (PCBNEW 7.0.5) date 2023-09-15 18:16:34*
%MOMM*%
%LPD*%
G01*
G04 APERTURE LIST*
G04 Aperture macros list*
%AMRoundRect*
0 Rectangle with rounded corners*
0 $1 Rounding radius*
0 $2 $3 $4 $5 $6 $7 $8 $9 X,Y pos of 4 corners*
0 Add a 4 corners polygon primitive as box body*
4,1,4,$2,$3,$4,$5,$6,$7,$8,$9,$2,$3,0*
0 Add four circle primitives for the rounded corners*
1,1,$1+$1,$2,$3*
1,1,$1+$1,$4,$5*
1,1,$1+$1,$6,$7*
1,1,$1+$1,$8,$9*
0 Add four rect primitives between the rounded corners*
20,1,$1+$1,$2,$3,$4,$5,0*
20,1,$1+$1,$4,$5,$6,$7,0*
20,1,$1+$1,$6,$7,$8,$9,0*
20,1,$1+$1,$8,$9,$2,$3,0*%
G04 Aperture macros list end*
%ADD10C,1.750000*%
%ADD11C,4.000000*%
%ADD12C,3.600000*%
%ADD13C,3.048000*%
%ADD14C,3.987800*%
%ADD15C,3.500000*%
%ADD16R,1.752600X1.752600*%
%ADD17RoundRect,0.438150X-0.438150X-0.438150X0.438150X-0.438150X0.438150X0.438150X-0.438150X0.438150X0*%
%ADD18C,1.752600*%
G04 APERTURE END LIST*
D10*
%TO.C,SW1*%
X50402000Y-90310000D03*
D11*
X55482000Y-90310000D03*
D10*
X60562000Y-90310000D03*
D12*
X51672000Y-87770000D03*
X58022000Y-85230000D03*
%TD*%
D10*
%TO.C,SW50*%
X226616000Y-147460000D03*
D11*
X231696000Y-147460000D03*
D10*
X236776000Y-147460000D03*
D12*
X227886000Y-144920000D03*
X234236000Y-142380000D03*
%TD*%
D10*
%TO.C,SW42*%
X62309000Y-147460000D03*
D11*
X67389000Y-147460000D03*
D10*
X72469000Y-147460000D03*
D12*
X63579000Y-144920000D03*
X69929000Y-142380000D03*
%TD*%
D13*
%TO.C,stab4*%
X245984000Y-173495000D03*
D14*
X245984000Y-158285000D03*
D13*
X131684000Y-173495000D03*
D14*
X131684000Y-158285000D03*
%TD*%
D15*
%TO.C,hole1*%
X193595000Y-129910000D03*
%TD*%
D10*
%TO.C,SW40*%
X274240000Y-128410000D03*
D11*
X279320000Y-128410000D03*
D10*
X284400000Y-128410000D03*
D12*
X275510000Y-125870000D03*
X281860000Y-123330000D03*
%TD*%
D10*
%TO.C,SW23*%
X212328000Y-109360000D03*
D11*
X217408000Y-109360000D03*
D10*
X222488000Y-109360000D03*
D12*
X213598000Y-106820000D03*
X219948000Y-104280000D03*
%TD*%
D10*
%TO.C,SW63*%
X336152000Y-166510000D03*
D11*
X341232000Y-166510000D03*
D10*
X346312000Y-166510000D03*
D12*
X337422000Y-163970000D03*
X343772000Y-161430000D03*
%TD*%
D10*
%TO.C,SW29*%
X67706000Y-128410000D03*
D11*
X62626000Y-128410000D03*
D10*
X57546000Y-128410000D03*
D12*
X66436000Y-130950000D03*
X60086000Y-133490000D03*
%TD*%
D10*
%TO.C,SW17*%
X98028000Y-109360000D03*
D11*
X103108000Y-109360000D03*
D10*
X108188000Y-109360000D03*
D12*
X99298000Y-106820000D03*
X105648000Y-104280000D03*
%TD*%
D10*
%TO.C,SW44*%
X112316000Y-147460000D03*
D11*
X117396000Y-147460000D03*
D10*
X122476000Y-147460000D03*
D12*
X113586000Y-144920000D03*
X119936000Y-142380000D03*
%TD*%
D10*
%TO.C,SW65*%
X317102000Y-166510000D03*
D11*
X322182000Y-166510000D03*
D10*
X327262000Y-166510000D03*
D12*
X318372000Y-163970000D03*
X324722000Y-161430000D03*
%TD*%
D10*
%TO.C,SW39*%
X255190000Y-128410000D03*
D11*
X260270000Y-128410000D03*
D10*
X265350000Y-128410000D03*
D12*
X256460000Y-125870000D03*
X262810000Y-123330000D03*
%TD*%
D10*
%TO.C,SW31*%
X102790000Y-128410000D03*
D11*
X107870000Y-128410000D03*
D10*
X112950000Y-128410000D03*
D12*
X104060000Y-125870000D03*
X110410000Y-123330000D03*
%TD*%
D10*
%TO.C,SW71*%
X193914000Y-166510000D03*
D11*
X188834000Y-166510000D03*
D10*
X183754000Y-166510000D03*
D12*
X192644000Y-169050000D03*
X186294000Y-171590000D03*
%TD*%
D10*
%TO.C,SW47*%
X169466000Y-147460000D03*
D11*
X174546000Y-147460000D03*
D10*
X179626000Y-147460000D03*
D12*
X170736000Y-144920000D03*
X177086000Y-142380000D03*
%TD*%
D13*
%TO.C,stab2*%
X300719000Y-83325000D03*
D14*
X300719000Y-98535000D03*
D13*
X324595000Y-83325000D03*
D14*
X324595000Y-98535000D03*
%TD*%
D10*
%TO.C,SW59*%
X277256000Y-166510000D03*
D11*
X272176000Y-166510000D03*
D10*
X267096000Y-166510000D03*
D12*
X275986000Y-169050000D03*
X269636000Y-171590000D03*
%TD*%
D10*
%TO.C,SW67*%
X52784000Y-128410000D03*
D11*
X57864000Y-128410000D03*
D10*
X62944000Y-128410000D03*
D12*
X54054000Y-125870000D03*
X60404000Y-123330000D03*
%TD*%
D10*
%TO.C,SW10*%
X221852000Y-90310000D03*
D11*
X226932000Y-90310000D03*
D10*
X232012000Y-90310000D03*
D12*
X223122000Y-87770000D03*
X229472000Y-85230000D03*
%TD*%
D10*
%TO.C,SW5*%
X126602000Y-90310000D03*
D11*
X131682000Y-90310000D03*
D10*
X136762000Y-90310000D03*
D12*
X127872000Y-87770000D03*
X134222000Y-85230000D03*
%TD*%
D10*
%TO.C,SW70*%
X112951000Y-166510000D03*
D11*
X107871000Y-166510000D03*
D10*
X102791000Y-166510000D03*
D12*
X111681000Y-169050000D03*
X105331000Y-171590000D03*
%TD*%
D10*
%TO.C,SW58*%
X243284000Y-166510000D03*
D11*
X248364000Y-166510000D03*
D10*
X253444000Y-166510000D03*
D12*
X244554000Y-163970000D03*
X250904000Y-161430000D03*
%TD*%
D10*
%TO.C,SW34*%
X159940000Y-128410000D03*
D11*
X165020000Y-128410000D03*
D10*
X170100000Y-128410000D03*
D12*
X161210000Y-125870000D03*
X167560000Y-123330000D03*
%TD*%
D10*
%TO.C,SW56*%
X100410000Y-166510000D03*
D11*
X105490000Y-166510000D03*
D10*
X110570000Y-166510000D03*
D12*
X101680000Y-163970000D03*
X108030000Y-161430000D03*
%TD*%
D10*
%TO.C,SW6*%
X145652000Y-90310000D03*
D11*
X150732000Y-90310000D03*
D10*
X155812000Y-90310000D03*
D12*
X146922000Y-87770000D03*
X153272000Y-85230000D03*
%TD*%
D10*
%TO.C,SW37*%
X217090000Y-128410000D03*
D11*
X222170000Y-128410000D03*
D10*
X227250000Y-128410000D03*
D12*
X218360000Y-125870000D03*
X224710000Y-123330000D03*
%TD*%
D10*
%TO.C,SW28*%
X312341000Y-109360000D03*
D11*
X317421000Y-109360000D03*
D10*
X322501000Y-109360000D03*
D12*
X313611000Y-106820000D03*
X319961000Y-104280000D03*
%TD*%
D10*
%TO.C,SW3*%
X88502000Y-90310000D03*
D11*
X93582000Y-90310000D03*
D10*
X98662000Y-90310000D03*
D12*
X89772000Y-87770000D03*
X96122000Y-85230000D03*
%TD*%
D15*
%TO.C,hole5*%
X310277000Y-148960000D03*
%TD*%
D10*
%TO.C,SW27*%
X288528000Y-109360000D03*
D11*
X293608000Y-109360000D03*
D10*
X298688000Y-109360000D03*
D12*
X289798000Y-106820000D03*
X296148000Y-104280000D03*
%TD*%
D10*
%TO.C,SW45*%
X131366000Y-147460000D03*
D11*
X136446000Y-147460000D03*
D10*
X141526000Y-147460000D03*
D12*
X132636000Y-144920000D03*
X138986000Y-142380000D03*
%TD*%
D10*
%TO.C,SW24*%
X231378000Y-109360000D03*
D11*
X236458000Y-109360000D03*
D10*
X241538000Y-109360000D03*
D12*
X232648000Y-106820000D03*
X238998000Y-104280000D03*
%TD*%
D10*
%TO.C,SW4*%
X107552000Y-90310000D03*
D11*
X112632000Y-90310000D03*
D10*
X117712000Y-90310000D03*
D12*
X108822000Y-87770000D03*
X115172000Y-85230000D03*
%TD*%
D10*
%TO.C,SW46*%
X150416000Y-147460000D03*
D11*
X155496000Y-147460000D03*
D10*
X160576000Y-147460000D03*
D12*
X151686000Y-144920000D03*
X158036000Y-142380000D03*
%TD*%
D10*
%TO.C,SW11*%
X240902000Y-90310000D03*
D11*
X245982000Y-90310000D03*
D10*
X251062000Y-90310000D03*
D12*
X242172000Y-87770000D03*
X248522000Y-85230000D03*
%TD*%
D10*
%TO.C,SW52*%
X264716000Y-147460000D03*
D11*
X269796000Y-147460000D03*
D10*
X274876000Y-147460000D03*
D12*
X265986000Y-144920000D03*
X272336000Y-142380000D03*
%TD*%
D10*
%TO.C,SW7*%
X164702000Y-90310000D03*
D11*
X169782000Y-90310000D03*
D10*
X174862000Y-90310000D03*
D12*
X165972000Y-87770000D03*
X172322000Y-85230000D03*
%TD*%
D10*
%TO.C,SW15*%
X55165000Y-109360000D03*
D11*
X60245000Y-109360000D03*
D10*
X65325000Y-109360000D03*
D12*
X56435000Y-106820000D03*
X62785000Y-104280000D03*
%TD*%
D10*
%TO.C,SW49*%
X207566000Y-147460000D03*
D11*
X212646000Y-147460000D03*
D10*
X217726000Y-147460000D03*
D12*
X208836000Y-144920000D03*
X215186000Y-142380000D03*
%TD*%
D10*
%TO.C,SW25*%
X250428000Y-109360000D03*
D11*
X255508000Y-109360000D03*
D10*
X260588000Y-109360000D03*
D12*
X251698000Y-106820000D03*
X258048000Y-104280000D03*
%TD*%
D10*
%TO.C,SW30*%
X83740000Y-128410000D03*
D11*
X88820000Y-128410000D03*
D10*
X93900000Y-128410000D03*
D12*
X85010000Y-125870000D03*
X91360000Y-123330000D03*
%TD*%
D10*
%TO.C,SW68*%
X65325000Y-166510000D03*
D11*
X60245000Y-166510000D03*
D10*
X55165000Y-166510000D03*
D12*
X64055000Y-169050000D03*
X57705000Y-171590000D03*
%TD*%
D16*
%TO.C,U1*%
X333557000Y-77525000D03*
D17*
X333557000Y-80065000D03*
D16*
X333557000Y-82605000D03*
D18*
X333557000Y-85145000D03*
X333557000Y-87685000D03*
X333557000Y-90225000D03*
X333557000Y-92765000D03*
X333557000Y-95305000D03*
X333557000Y-97845000D03*
X348907000Y-77525000D03*
X348907000Y-80065000D03*
X348907000Y-82605000D03*
X348907000Y-85145000D03*
X348907000Y-87685000D03*
X348907000Y-90225000D03*
X348907000Y-92765000D03*
X348907000Y-95305000D03*
X348907000Y-97845000D03*
X346312000Y-98165000D03*
X343772000Y-98165000D03*
X341232000Y-98165000D03*
X338692000Y-98165000D03*
X336152000Y-98165000D03*
%TD*%
D15*
%TO.C,hole4*%
X107871000Y-148960000D03*
%TD*%
D10*
%TO.C,SW55*%
X76597000Y-166510000D03*
D11*
X81677000Y-166510000D03*
D10*
X86757000Y-166510000D03*
D12*
X77867000Y-163970000D03*
X84217000Y-161430000D03*
%TD*%
D10*
%TO.C,SW69*%
X89138000Y-166510000D03*
D11*
X84058000Y-166510000D03*
D10*
X78978000Y-166510000D03*
D12*
X87868000Y-169050000D03*
X81518000Y-171590000D03*
%TD*%
D10*
%TO.C,SW18*%
X117078000Y-109360000D03*
D11*
X122158000Y-109360000D03*
D10*
X127238000Y-109360000D03*
D12*
X118348000Y-106820000D03*
X124698000Y-104280000D03*
%TD*%
D10*
%TO.C,SW53*%
X290910000Y-147460000D03*
D11*
X295990000Y-147460000D03*
D10*
X301070000Y-147460000D03*
D12*
X292180000Y-144920000D03*
X298530000Y-142380000D03*
%TD*%
D10*
%TO.C,SW64*%
X317102000Y-147460000D03*
D11*
X322182000Y-147460000D03*
D10*
X327262000Y-147460000D03*
D12*
X318372000Y-144920000D03*
X324722000Y-142380000D03*
%TD*%
D10*
%TO.C,SW26*%
X269478000Y-109360000D03*
D11*
X274558000Y-109360000D03*
D10*
X279638000Y-109360000D03*
D12*
X270748000Y-106820000D03*
X277098000Y-104280000D03*
%TD*%
D13*
%TO.C,stab5*%
X226927000Y-173495000D03*
D14*
X226927000Y-158285000D03*
D13*
X126927000Y-173495000D03*
D14*
X126927000Y-158285000D03*
%TD*%
D10*
%TO.C,SW61*%
X336152000Y-128410000D03*
D11*
X341232000Y-128410000D03*
D10*
X346312000Y-128410000D03*
D12*
X337422000Y-125870000D03*
X343772000Y-123330000D03*
%TD*%
D13*
%TO.C,stab1*%
X55451000Y-140475000D03*
D14*
X55451000Y-155685000D03*
D13*
X79327000Y-140475000D03*
D14*
X79327000Y-155685000D03*
%TD*%
D10*
%TO.C,SW62*%
X336152000Y-147460000D03*
D11*
X341232000Y-147460000D03*
D10*
X346312000Y-147460000D03*
D12*
X337422000Y-144920000D03*
X343772000Y-142380000D03*
%TD*%
D10*
%TO.C,SW66*%
X298052000Y-166510000D03*
D11*
X303132000Y-166510000D03*
D10*
X308212000Y-166510000D03*
D12*
X299322000Y-163970000D03*
X305672000Y-161430000D03*
%TD*%
D10*
%TO.C,SW20*%
X155178000Y-109360000D03*
D11*
X160258000Y-109360000D03*
D10*
X165338000Y-109360000D03*
D12*
X156448000Y-106820000D03*
X162798000Y-104280000D03*
%TD*%
D10*
%TO.C,SW9*%
X202802000Y-90310000D03*
D11*
X207882000Y-90310000D03*
D10*
X212962000Y-90310000D03*
D12*
X204072000Y-87770000D03*
X210422000Y-85230000D03*
%TD*%
D10*
%TO.C,SW36*%
X198040000Y-128410000D03*
D11*
X203120000Y-128410000D03*
D10*
X208200000Y-128410000D03*
D12*
X199310000Y-125870000D03*
X205660000Y-123330000D03*
%TD*%
D10*
%TO.C,SW22*%
X193278000Y-109360000D03*
D11*
X198358000Y-109360000D03*
D10*
X203438000Y-109360000D03*
D12*
X194548000Y-106820000D03*
X200898000Y-104280000D03*
%TD*%
D15*
%TO.C,hole3*%
X274557000Y-91810000D03*
%TD*%
D10*
%TO.C,SW38*%
X236140000Y-128410000D03*
D11*
X241220000Y-128410000D03*
D10*
X246300000Y-128410000D03*
D12*
X237410000Y-125870000D03*
X243760000Y-123330000D03*
%TD*%
D10*
%TO.C,SW33*%
X140890000Y-128410000D03*
D11*
X145970000Y-128410000D03*
D10*
X151050000Y-128410000D03*
D12*
X142160000Y-125870000D03*
X148510000Y-123330000D03*
%TD*%
D10*
%TO.C,SW57*%
X171847000Y-166510000D03*
D11*
X176927000Y-166510000D03*
D10*
X182007000Y-166510000D03*
D12*
X173117000Y-163970000D03*
X179467000Y-161430000D03*
%TD*%
D10*
%TO.C,SW43*%
X93266000Y-147460000D03*
D11*
X98346000Y-147460000D03*
D10*
X103426000Y-147460000D03*
D12*
X94536000Y-144920000D03*
X100886000Y-142380000D03*
%TD*%
D10*
%TO.C,SW35*%
X178990000Y-128410000D03*
D11*
X184070000Y-128410000D03*
D10*
X189150000Y-128410000D03*
D12*
X180260000Y-125870000D03*
X186610000Y-123330000D03*
%TD*%
D10*
%TO.C,SW19*%
X136128000Y-109360000D03*
D11*
X141208000Y-109360000D03*
D10*
X146288000Y-109360000D03*
D12*
X137398000Y-106820000D03*
X143748000Y-104280000D03*
%TD*%
D10*
%TO.C,SW16*%
X78978000Y-109360000D03*
D11*
X84058000Y-109360000D03*
D10*
X89138000Y-109360000D03*
D12*
X80248000Y-106820000D03*
X86598000Y-104280000D03*
%TD*%
D10*
%TO.C,SW2*%
X69452000Y-90310000D03*
D11*
X74532000Y-90310000D03*
D10*
X79612000Y-90310000D03*
D12*
X70722000Y-87770000D03*
X77072000Y-85230000D03*
%TD*%
D10*
%TO.C,SW21*%
X174228000Y-109360000D03*
D11*
X179308000Y-109360000D03*
D10*
X184388000Y-109360000D03*
D12*
X175498000Y-106820000D03*
X181848000Y-104280000D03*
%TD*%
D13*
%TO.C,stab3*%
X298339000Y-121425000D03*
D14*
X298339000Y-136635000D03*
D13*
X322215000Y-121425000D03*
D14*
X322215000Y-136635000D03*
%TD*%
D10*
%TO.C,SW72*%
X264717000Y-166510000D03*
D11*
X269797000Y-166510000D03*
D10*
X274877000Y-166510000D03*
D12*
X265987000Y-163970000D03*
X272337000Y-161430000D03*
%TD*%
D10*
%TO.C,SW41*%
X305197000Y-128410000D03*
D11*
X310277000Y-128410000D03*
D10*
X315357000Y-128410000D03*
D12*
X306467000Y-125870000D03*
X312817000Y-123330000D03*
%TD*%
D15*
%TO.C,hole2*%
X65007000Y-91810000D03*
%TD*%
D10*
%TO.C,SW48*%
X188516000Y-147460000D03*
D11*
X193596000Y-147460000D03*
D10*
X198676000Y-147460000D03*
D12*
X189786000Y-144920000D03*
X196136000Y-142380000D03*
%TD*%
D10*
%TO.C,SW32*%
X121840000Y-128410000D03*
D11*
X126920000Y-128410000D03*
D10*
X132000000Y-128410000D03*
D12*
X123110000Y-125870000D03*
X129460000Y-123330000D03*
%TD*%
D10*
%TO.C,SW54*%
X52784000Y-166510000D03*
D11*
X57864000Y-166510000D03*
D10*
X62944000Y-166510000D03*
D12*
X54054000Y-163970000D03*
X60404000Y-161430000D03*
%TD*%
D10*
%TO.C,SW13*%
X279002000Y-90310000D03*
D11*
X284082000Y-90310000D03*
D10*
X289162000Y-90310000D03*
D12*
X280272000Y-87770000D03*
X286622000Y-85230000D03*
%TD*%
D10*
%TO.C,SW12*%
X259952000Y-90310000D03*
D11*
X265032000Y-90310000D03*
D10*
X270112000Y-90310000D03*
D12*
X261222000Y-87770000D03*
X267572000Y-85230000D03*
%TD*%
D10*
%TO.C,SW8*%
X183752000Y-90310000D03*
D11*
X188832000Y-90310000D03*
D10*
X193912000Y-90310000D03*
D12*
X185022000Y-87770000D03*
X191372000Y-85230000D03*
%TD*%
D10*
%TO.C,SW60*%
X336152000Y-109360000D03*
D11*
X341232000Y-109360000D03*
D10*
X346312000Y-109360000D03*
D12*
X337422000Y-106820000D03*
X343772000Y-104280000D03*
%TD*%
D10*
%TO.C,SW51*%
X245666000Y-147460000D03*
D11*
X250746000Y-147460000D03*
D10*
X255826000Y-147460000D03*
D12*
X246936000Y-144920000D03*
X253286000Y-142380000D03*
%TD*%
D10*
%TO.C,SW14*%
X307577000Y-90310000D03*
D11*
X312657000Y-90310000D03*
D10*
X317737000Y-90310000D03*
D12*
X308847000Y-87770000D03*
X315197000Y-85230000D03*
%TD*%
M02*
