%TF.GenerationSoftware,KiCad,Pcbnew,7.0.5*%
%TF.CreationDate,2023-09-15T18:16:34+08:00*%
%TF.ProjectId,Openero65,4f70656e-6572-46f3-9635-2e6b69636164,rev?*%
%TF.SameCoordinates,Original*%
%TF.FileFunction,Paste,Bot*%
%TF.FilePolarity,Positive*%
%FSLAX46Y46*%
G04 Gerber Fmt 4.6, Leading zero omitted, Abs format (unit mm)*
G04 Created by KiCad (PCBNEW 7.0.5) date 2023-09-15 18:16:34*
%MOMM*%
%LPD*%
G01*
G04 APERTURE LIST*
G04 Aperture macros list*
%AMRoundRect*
0 Rectangle with rounded corners*
0 $1 Rounding radius*
0 $2 $3 $4 $5 $6 $7 $8 $9 X,Y pos of 4 corners*
0 Add a 4 corners polygon primitive as box body*
4,1,4,$2,$3,$4,$5,$6,$7,$8,$9,$2,$3,0*
0 Add four circle primitives for the rounded corners*
1,1,$1+$1,$2,$3*
1,1,$1+$1,$4,$5*
1,1,$1+$1,$6,$7*
1,1,$1+$1,$8,$9*
0 Add four rect primitives between the rounded corners*
20,1,$1+$1,$2,$3,$4,$5,0*
20,1,$1+$1,$4,$5,$6,$7,0*
20,1,$1+$1,$6,$7,$8,$9,0*
20,1,$1+$1,$8,$9,$2,$3,0*%
G04 Aperture macros list end*
%ADD10RoundRect,0.250000X-1.025000X-1.000000X1.025000X-1.000000X1.025000X1.000000X-1.025000X1.000000X0*%
%ADD11RoundRect,0.250000X1.025000X1.000000X-1.025000X1.000000X-1.025000X-1.000000X1.025000X-1.000000X0*%
%ADD12RoundRect,0.225000X0.375000X-0.225000X0.375000X0.225000X-0.375000X0.225000X-0.375000X-0.225000X0*%
G04 APERTURE END LIST*
D10*
%TO.C,SW1*%
X48397000Y-87770000D03*
X61324000Y-85230000D03*
%TD*%
%TO.C,SW50*%
X224611000Y-144920000D03*
X237538000Y-142380000D03*
%TD*%
%TO.C,SW42*%
X60304000Y-144920000D03*
X73231000Y-142380000D03*
%TD*%
%TO.C,SW40*%
X272235000Y-125870000D03*
X285162000Y-123330000D03*
%TD*%
%TO.C,SW23*%
X210323000Y-106820000D03*
X223250000Y-104280000D03*
%TD*%
%TO.C,SW63*%
X334147000Y-163970000D03*
X347074000Y-161430000D03*
%TD*%
D11*
%TO.C,SW29*%
X69711000Y-130950000D03*
X56784000Y-133490000D03*
%TD*%
D10*
%TO.C,SW17*%
X96023000Y-106820000D03*
X108950000Y-104280000D03*
%TD*%
%TO.C,SW44*%
X110311000Y-144920000D03*
X123238000Y-142380000D03*
%TD*%
%TO.C,SW65*%
X315097000Y-163970000D03*
X328024000Y-161430000D03*
%TD*%
%TO.C,SW39*%
X253185000Y-125870000D03*
X266112000Y-123330000D03*
%TD*%
%TO.C,SW31*%
X100785000Y-125870000D03*
X113712000Y-123330000D03*
%TD*%
D11*
%TO.C,SW71*%
X195919000Y-169050000D03*
X182992000Y-171590000D03*
%TD*%
D10*
%TO.C,SW47*%
X167461000Y-144920000D03*
X180388000Y-142380000D03*
%TD*%
D11*
%TO.C,SW59*%
X279261000Y-169050000D03*
X266334000Y-171590000D03*
%TD*%
D10*
%TO.C,SW67*%
X50779000Y-125870000D03*
X63706000Y-123330000D03*
%TD*%
%TO.C,SW10*%
X219847000Y-87770000D03*
X232774000Y-85230000D03*
%TD*%
%TO.C,SW5*%
X124597000Y-87770000D03*
X137524000Y-85230000D03*
%TD*%
D11*
%TO.C,SW70*%
X114956000Y-169050000D03*
X102029000Y-171590000D03*
%TD*%
D10*
%TO.C,SW58*%
X241279000Y-163970000D03*
X254206000Y-161430000D03*
%TD*%
%TO.C,SW34*%
X157935000Y-125870000D03*
X170862000Y-123330000D03*
%TD*%
%TO.C,SW56*%
X98405000Y-163970000D03*
X111332000Y-161430000D03*
%TD*%
%TO.C,SW6*%
X143647000Y-87770000D03*
X156574000Y-85230000D03*
%TD*%
%TO.C,SW37*%
X215085000Y-125870000D03*
X228012000Y-123330000D03*
%TD*%
%TO.C,SW28*%
X310336000Y-106820000D03*
X323263000Y-104280000D03*
%TD*%
%TO.C,SW3*%
X86497000Y-87770000D03*
X99424000Y-85230000D03*
%TD*%
%TO.C,SW27*%
X286523000Y-106820000D03*
X299450000Y-104280000D03*
%TD*%
%TO.C,SW45*%
X129361000Y-144920000D03*
X142288000Y-142380000D03*
%TD*%
%TO.C,SW24*%
X229373000Y-106820000D03*
X242300000Y-104280000D03*
%TD*%
%TO.C,SW4*%
X105547000Y-87770000D03*
X118474000Y-85230000D03*
%TD*%
%TO.C,SW46*%
X148411000Y-144920000D03*
X161338000Y-142380000D03*
%TD*%
%TO.C,SW11*%
X238897000Y-87770000D03*
X251824000Y-85230000D03*
%TD*%
%TO.C,SW52*%
X262711000Y-144920000D03*
X275638000Y-142380000D03*
%TD*%
%TO.C,SW7*%
X162697000Y-87770000D03*
X175624000Y-85230000D03*
%TD*%
%TO.C,SW15*%
X53160000Y-106820000D03*
X66087000Y-104280000D03*
%TD*%
%TO.C,SW49*%
X205561000Y-144920000D03*
X218488000Y-142380000D03*
%TD*%
%TO.C,SW25*%
X248423000Y-106820000D03*
X261350000Y-104280000D03*
%TD*%
%TO.C,SW30*%
X81735000Y-125870000D03*
X94662000Y-123330000D03*
%TD*%
D11*
%TO.C,SW68*%
X67330000Y-169050000D03*
X54403000Y-171590000D03*
%TD*%
D10*
%TO.C,SW55*%
X74592000Y-163970000D03*
X87519000Y-161430000D03*
%TD*%
D11*
%TO.C,SW69*%
X91143000Y-169050000D03*
X78216000Y-171590000D03*
%TD*%
D10*
%TO.C,SW18*%
X115073000Y-106820000D03*
X128000000Y-104280000D03*
%TD*%
%TO.C,SW53*%
X288905000Y-144920000D03*
X301832000Y-142380000D03*
%TD*%
%TO.C,SW64*%
X315097000Y-144920000D03*
X328024000Y-142380000D03*
%TD*%
%TO.C,SW26*%
X267473000Y-106820000D03*
X280400000Y-104280000D03*
%TD*%
%TO.C,SW61*%
X334147000Y-125870000D03*
X347074000Y-123330000D03*
%TD*%
%TO.C,SW62*%
X334147000Y-144920000D03*
X347074000Y-142380000D03*
%TD*%
%TO.C,SW66*%
X296047000Y-163970000D03*
X308974000Y-161430000D03*
%TD*%
%TO.C,SW20*%
X153173000Y-106820000D03*
X166100000Y-104280000D03*
%TD*%
%TO.C,SW9*%
X200797000Y-87770000D03*
X213724000Y-85230000D03*
%TD*%
%TO.C,SW36*%
X196035000Y-125870000D03*
X208962000Y-123330000D03*
%TD*%
%TO.C,SW22*%
X191273000Y-106820000D03*
X204200000Y-104280000D03*
%TD*%
%TO.C,SW38*%
X234135000Y-125870000D03*
X247062000Y-123330000D03*
%TD*%
%TO.C,SW33*%
X138885000Y-125870000D03*
X151812000Y-123330000D03*
%TD*%
%TO.C,SW57*%
X169842000Y-163970000D03*
X182769000Y-161430000D03*
%TD*%
%TO.C,SW43*%
X91261000Y-144920000D03*
X104188000Y-142380000D03*
%TD*%
%TO.C,SW35*%
X176985000Y-125870000D03*
X189912000Y-123330000D03*
%TD*%
%TO.C,SW19*%
X134123000Y-106820000D03*
X147050000Y-104280000D03*
%TD*%
%TO.C,SW16*%
X76973000Y-106820000D03*
X89900000Y-104280000D03*
%TD*%
%TO.C,SW2*%
X67447000Y-87770000D03*
X80374000Y-85230000D03*
%TD*%
%TO.C,SW21*%
X172223000Y-106820000D03*
X185150000Y-104280000D03*
%TD*%
%TO.C,SW72*%
X262712000Y-163970000D03*
X275639000Y-161430000D03*
%TD*%
%TO.C,SW41*%
X303192000Y-125870000D03*
X316119000Y-123330000D03*
%TD*%
%TO.C,SW48*%
X186511000Y-144920000D03*
X199438000Y-142380000D03*
%TD*%
%TO.C,SW32*%
X119835000Y-125870000D03*
X132762000Y-123330000D03*
%TD*%
%TO.C,SW54*%
X50779000Y-163970000D03*
X63706000Y-161430000D03*
%TD*%
%TO.C,SW13*%
X276997000Y-87770000D03*
X289924000Y-85230000D03*
%TD*%
%TO.C,SW12*%
X257947000Y-87770000D03*
X270874000Y-85230000D03*
%TD*%
%TO.C,SW8*%
X181747000Y-87770000D03*
X194674000Y-85230000D03*
%TD*%
%TO.C,SW60*%
X334147000Y-106820000D03*
X347074000Y-104280000D03*
%TD*%
%TO.C,SW51*%
X243661000Y-144920000D03*
X256588000Y-142380000D03*
%TD*%
%TO.C,SW14*%
X305572000Y-87770000D03*
X318499000Y-85230000D03*
%TD*%
D12*
%TO.C,D29*%
X73263000Y-134060000D03*
X73263000Y-130760000D03*
%TD*%
%TO.C,D12*%
X270112000Y-95960000D03*
X270112000Y-92660000D03*
%TD*%
%TO.C,D32*%
X132000000Y-134060000D03*
X132000000Y-130760000D03*
%TD*%
%TO.C,D20*%
X165338000Y-115010000D03*
X165338000Y-111710000D03*
%TD*%
%TO.C,D17*%
X108188000Y-115010000D03*
X108188000Y-111710000D03*
%TD*%
%TO.C,D57*%
X199240000Y-172160000D03*
X199240000Y-168860000D03*
%TD*%
%TO.C,D31*%
X112950000Y-134060000D03*
X112950000Y-130760000D03*
%TD*%
%TO.C,D65*%
X327262000Y-172160000D03*
X327262000Y-168860000D03*
%TD*%
%TO.C,D37*%
X227250000Y-134060000D03*
X227250000Y-130760000D03*
%TD*%
%TO.C,D34*%
X170100000Y-134060000D03*
X170100000Y-130760000D03*
%TD*%
%TO.C,D25*%
X260588000Y-115010000D03*
X260588000Y-111710000D03*
%TD*%
%TO.C,D49*%
X217726000Y-153110000D03*
X217726000Y-149810000D03*
%TD*%
%TO.C,D33*%
X151050000Y-134060000D03*
X151050000Y-130760000D03*
%TD*%
%TO.C,D46*%
X160576000Y-153110000D03*
X160576000Y-149810000D03*
%TD*%
%TO.C,D3*%
X98662000Y-95960000D03*
X98662000Y-92660000D03*
%TD*%
%TO.C,D9*%
X212962000Y-95960000D03*
X212962000Y-92660000D03*
%TD*%
%TO.C,D47*%
X179626000Y-153110000D03*
X179626000Y-149810000D03*
%TD*%
%TO.C,D59*%
X282020000Y-172182500D03*
X282020000Y-168882500D03*
%TD*%
%TO.C,D15*%
X65325000Y-115010000D03*
X65325000Y-111710000D03*
%TD*%
%TO.C,D55*%
X94853000Y-172160000D03*
X94853000Y-168860000D03*
%TD*%
%TO.C,D39*%
X265350000Y-134060000D03*
X265350000Y-130760000D03*
%TD*%
%TO.C,D6*%
X155812000Y-95960000D03*
X155812000Y-92660000D03*
%TD*%
%TO.C,D35*%
X189150000Y-134060000D03*
X189150000Y-130760000D03*
%TD*%
%TO.C,D66*%
X308212000Y-172160000D03*
X308212000Y-168860000D03*
%TD*%
%TO.C,D45*%
X141526000Y-153110000D03*
X141526000Y-149810000D03*
%TD*%
%TO.C,D51*%
X255826000Y-153110000D03*
X255826000Y-149810000D03*
%TD*%
%TO.C,D43*%
X103426000Y-153110000D03*
X103426000Y-149810000D03*
%TD*%
%TO.C,D52*%
X274876000Y-153110000D03*
X274876000Y-149810000D03*
%TD*%
%TO.C,D2*%
X79612000Y-95960000D03*
X79612000Y-92660000D03*
%TD*%
%TO.C,D23*%
X222488000Y-115010000D03*
X222488000Y-111710000D03*
%TD*%
%TO.C,D8*%
X193912000Y-95960000D03*
X193912000Y-92660000D03*
%TD*%
%TO.C,D22*%
X203438000Y-115010000D03*
X203438000Y-111710000D03*
%TD*%
%TO.C,D50*%
X236776000Y-153110000D03*
X236776000Y-149810000D03*
%TD*%
%TO.C,D63*%
X346312000Y-172160000D03*
X346312000Y-168860000D03*
%TD*%
%TO.C,D13*%
X289162000Y-95960000D03*
X289162000Y-92660000D03*
%TD*%
%TO.C,D26*%
X279638000Y-115010000D03*
X279638000Y-111710000D03*
%TD*%
%TO.C,D10*%
X232012000Y-95960000D03*
X232012000Y-92660000D03*
%TD*%
%TO.C,D61*%
X346312000Y-134060000D03*
X346312000Y-130760000D03*
%TD*%
%TO.C,D1*%
X60562000Y-95960000D03*
X60562000Y-92660000D03*
%TD*%
%TO.C,D56*%
X118666200Y-172160000D03*
X118666200Y-168860000D03*
%TD*%
%TO.C,D54*%
X71040300Y-172160000D03*
X71040300Y-168860000D03*
%TD*%
%TO.C,D58*%
X253444000Y-172160000D03*
X253444000Y-168860000D03*
%TD*%
%TO.C,D27*%
X298688000Y-115010000D03*
X298688000Y-111710000D03*
%TD*%
%TO.C,D36*%
X208200000Y-134060000D03*
X208200000Y-130760000D03*
%TD*%
%TO.C,D28*%
X322501000Y-115010000D03*
X322501000Y-111710000D03*
%TD*%
%TO.C,D44*%
X122476000Y-153110000D03*
X122476000Y-149810000D03*
%TD*%
%TO.C,D4*%
X117712000Y-95960000D03*
X117712000Y-92660000D03*
%TD*%
%TO.C,D64*%
X327262000Y-153110000D03*
X327262000Y-149810000D03*
%TD*%
%TO.C,D62*%
X346312000Y-153110000D03*
X346312000Y-149810000D03*
%TD*%
%TO.C,D16*%
X89138000Y-115010000D03*
X89138000Y-111710000D03*
%TD*%
%TO.C,D48*%
X198676000Y-153110000D03*
X198676000Y-149810000D03*
%TD*%
%TO.C,D5*%
X136762000Y-95960000D03*
X136762000Y-92660000D03*
%TD*%
%TO.C,D41*%
X315357000Y-134060000D03*
X315357000Y-130760000D03*
%TD*%
%TO.C,D14*%
X317737000Y-95960000D03*
X317737000Y-92660000D03*
%TD*%
%TO.C,D11*%
X251062000Y-95960000D03*
X251062000Y-92660000D03*
%TD*%
%TO.C,D18*%
X127238000Y-115010000D03*
X127238000Y-111710000D03*
%TD*%
%TO.C,D30*%
X93900000Y-134060000D03*
X93900000Y-130760000D03*
%TD*%
%TO.C,D40*%
X284400000Y-134060000D03*
X284400000Y-130760000D03*
%TD*%
%TO.C,D21*%
X184388000Y-115010000D03*
X184388000Y-111710000D03*
%TD*%
%TO.C,D7*%
X174862000Y-95960000D03*
X174862000Y-92660000D03*
%TD*%
%TO.C,D60*%
X346312000Y-115010000D03*
X346312000Y-111710000D03*
%TD*%
%TO.C,D19*%
X146288000Y-115010000D03*
X146288000Y-111710000D03*
%TD*%
%TO.C,D38*%
X246300000Y-134060000D03*
X246300000Y-130760000D03*
%TD*%
%TO.C,D53*%
X301070000Y-153110000D03*
X301070000Y-149810000D03*
%TD*%
%TO.C,D24*%
X241538000Y-115010000D03*
X241538000Y-111710000D03*
%TD*%
%TO.C,D42*%
X72469000Y-153110000D03*
X72469000Y-149810000D03*
%TD*%
M02*
