%TF.GenerationSoftware,KiCad,Pcbnew,7.0.5*%
%TF.CreationDate,2023-09-15T18:16:32+08:00*%
%TF.ProjectId,Openero65,4f70656e-6572-46f3-9635-2e6b69636164,rev?*%
%TF.SameCoordinates,Original*%
%TF.FileFunction,Drillmap*%
%TF.FilePolarity,Positive*%
%FSLAX45Y45*%
G04 Gerber Fmt 4.5, Leading zero omitted, Abs format (unit mm)*
G04 Created by KiCad (PCBNEW 7.0.5) date 2023-09-15 18:16:32*
%MOMM*%
%LPD*%
G01*
G04 APERTURE LIST*
%ADD10C,0.100000*%
%ADD11C,0.200000*%
%ADD12C,0.175000*%
%ADD13C,0.304800*%
%ADD14C,0.350000*%
%ADD15C,0.398780*%
%ADD16C,0.400000*%
G04 APERTURE END LIST*
D10*
X34975700Y-17603500D02*
X4695700Y-17603500D01*
X33170700Y-8078500D02*
X4695700Y-8078500D01*
X4695700Y-8078500D02*
G75*
G03*
X4595700Y-8178500I0J-100000D01*
G01*
X35075700Y-7651500D02*
X35075700Y-17503500D01*
X4595700Y-17503500D02*
G75*
G03*
X4695700Y-17603500I100000J0D01*
G01*
X33170700Y-7651500D02*
X33170700Y-8078500D01*
X33170700Y-7651500D02*
X33228700Y-7593500D01*
X34975700Y-17603500D02*
G75*
G03*
X35075700Y-17503500I0J100000D01*
G01*
X35075700Y-7651500D02*
X35017700Y-7593500D01*
X4595700Y-8178500D02*
X4595700Y-17503500D01*
X35017700Y-7593500D02*
X33228700Y-7593500D01*
D11*
D12*
X4952700Y-8943500D02*
X5127700Y-9118500D01*
X5127700Y-8943500D02*
X4952700Y-9118500D01*
X5190900Y-12753500D02*
X5365900Y-12928500D01*
X5365900Y-12753500D02*
X5190900Y-12928500D01*
X5190900Y-16563500D02*
X5365900Y-16738500D01*
X5365900Y-16563500D02*
X5190900Y-16738500D01*
X5429000Y-10848500D02*
X5604000Y-11023500D01*
X5604000Y-10848500D02*
X5429000Y-11023500D01*
X5429000Y-16563500D02*
X5604000Y-16738500D01*
X5604000Y-16563500D02*
X5429000Y-16738500D01*
X5667100Y-12753500D02*
X5842100Y-12928500D01*
X5842100Y-12753500D02*
X5667100Y-12928500D01*
X5968700Y-8943500D02*
X6143700Y-9118500D01*
X6143700Y-8943500D02*
X5968700Y-9118500D01*
X6143400Y-14658500D02*
X6318400Y-14833500D01*
X6318400Y-14658500D02*
X6143400Y-14833500D01*
X6206900Y-12753500D02*
X6381900Y-12928500D01*
X6381900Y-12753500D02*
X6206900Y-12928500D01*
X6206900Y-16563500D02*
X6381900Y-16738500D01*
X6381900Y-16563500D02*
X6206900Y-16738500D01*
X6445000Y-10848500D02*
X6620000Y-11023500D01*
X6620000Y-10848500D02*
X6445000Y-11023500D01*
X6445000Y-16563500D02*
X6620000Y-16738500D01*
X6620000Y-16563500D02*
X6445000Y-16738500D01*
X6683100Y-12753500D02*
X6858100Y-12928500D01*
X6858100Y-12753500D02*
X6683100Y-12928500D01*
X6857700Y-8943500D02*
X7032700Y-9118500D01*
X7032700Y-8943500D02*
X6857700Y-9118500D01*
X7159400Y-14658500D02*
X7334400Y-14833500D01*
X7334400Y-14658500D02*
X7159400Y-14833500D01*
X7572200Y-16563500D02*
X7747200Y-16738500D01*
X7747200Y-16563500D02*
X7572200Y-16738500D01*
X7810300Y-10848500D02*
X7985300Y-11023500D01*
X7985300Y-10848500D02*
X7810300Y-11023500D01*
X7810300Y-16563500D02*
X7985300Y-16738500D01*
X7985300Y-16563500D02*
X7810300Y-16738500D01*
X7873700Y-8943500D02*
X8048700Y-9118500D01*
X8048700Y-8943500D02*
X7873700Y-9118500D01*
X8286500Y-12753500D02*
X8461500Y-12928500D01*
X8461500Y-12753500D02*
X8286500Y-12928500D01*
X8588200Y-16563500D02*
X8763200Y-16738500D01*
X8763200Y-16563500D02*
X8588200Y-16738500D01*
X8762700Y-8943500D02*
X8937700Y-9118500D01*
X8937700Y-8943500D02*
X8762700Y-9118500D01*
X8826300Y-10848500D02*
X9001300Y-11023500D01*
X9001300Y-10848500D02*
X8826300Y-11023500D01*
X8826300Y-16563500D02*
X9001300Y-16738500D01*
X9001300Y-16563500D02*
X8826300Y-16738500D01*
X9239100Y-14658500D02*
X9414100Y-14833500D01*
X9414100Y-14658500D02*
X9239100Y-14833500D01*
X9302500Y-12753500D02*
X9477500Y-12928500D01*
X9477500Y-12753500D02*
X9302500Y-12928500D01*
X9715300Y-10848500D02*
X9890300Y-11023500D01*
X9890300Y-10848500D02*
X9715300Y-11023500D01*
X9778700Y-8943500D02*
X9953700Y-9118500D01*
X9953700Y-8943500D02*
X9778700Y-9118500D01*
X9953500Y-16563500D02*
X10128500Y-16738500D01*
X10128500Y-16563500D02*
X9953500Y-16738500D01*
X10191500Y-12753500D02*
X10366500Y-12928500D01*
X10366500Y-12753500D02*
X10191500Y-12928500D01*
X10191600Y-16563500D02*
X10366600Y-16738500D01*
X10366600Y-16563500D02*
X10191600Y-16738500D01*
X10255100Y-14658500D02*
X10430100Y-14833500D01*
X10430100Y-14658500D02*
X10255100Y-14833500D01*
X10667700Y-8943500D02*
X10842700Y-9118500D01*
X10842700Y-8943500D02*
X10667700Y-9118500D01*
X10731300Y-10848500D02*
X10906300Y-11023500D01*
X10906300Y-10848500D02*
X10731300Y-11023500D01*
X10969500Y-16563500D02*
X11144500Y-16738500D01*
X11144500Y-16563500D02*
X10969500Y-16738500D01*
X11144100Y-14658500D02*
X11319100Y-14833500D01*
X11319100Y-14658500D02*
X11144100Y-14833500D01*
X11207500Y-12753500D02*
X11382500Y-12928500D01*
X11382500Y-12753500D02*
X11207500Y-12928500D01*
X11207600Y-16563500D02*
X11382600Y-16738500D01*
X11382600Y-16563500D02*
X11207600Y-16738500D01*
X11620300Y-10848500D02*
X11795300Y-11023500D01*
X11795300Y-10848500D02*
X11620300Y-11023500D01*
X11683700Y-8943500D02*
X11858700Y-9118500D01*
X11858700Y-8943500D02*
X11683700Y-9118500D01*
X12096500Y-12753500D02*
X12271500Y-12928500D01*
X12271500Y-12753500D02*
X12096500Y-12928500D01*
X12160100Y-14658500D02*
X12335100Y-14833500D01*
X12335100Y-14658500D02*
X12160100Y-14833500D01*
X12572700Y-8943500D02*
X12747700Y-9118500D01*
X12747700Y-8943500D02*
X12572700Y-9118500D01*
X12636300Y-10848500D02*
X12811300Y-11023500D01*
X12811300Y-10848500D02*
X12636300Y-11023500D01*
X13049100Y-14658500D02*
X13224100Y-14833500D01*
X13224100Y-14658500D02*
X13049100Y-14833500D01*
X13112500Y-12753500D02*
X13287500Y-12928500D01*
X13287500Y-12753500D02*
X13112500Y-12928500D01*
X13525300Y-10848500D02*
X13700300Y-11023500D01*
X13700300Y-10848500D02*
X13525300Y-11023500D01*
X13588700Y-8943500D02*
X13763700Y-9118500D01*
X13763700Y-8943500D02*
X13588700Y-9118500D01*
X14001500Y-12753500D02*
X14176500Y-12928500D01*
X14176500Y-12753500D02*
X14001500Y-12928500D01*
X14065100Y-14658500D02*
X14240100Y-14833500D01*
X14240100Y-14658500D02*
X14065100Y-14833500D01*
X14477700Y-8943500D02*
X14652700Y-9118500D01*
X14652700Y-8943500D02*
X14477700Y-9118500D01*
X14541300Y-10848500D02*
X14716300Y-11023500D01*
X14716300Y-10848500D02*
X14541300Y-11023500D01*
X14954100Y-14658500D02*
X15129100Y-14833500D01*
X15129100Y-14658500D02*
X14954100Y-14833500D01*
X15017500Y-12753500D02*
X15192500Y-12928500D01*
X15192500Y-12753500D02*
X15017500Y-12928500D01*
X15430300Y-10848500D02*
X15605300Y-11023500D01*
X15605300Y-10848500D02*
X15430300Y-11023500D01*
X15493700Y-8943500D02*
X15668700Y-9118500D01*
X15668700Y-8943500D02*
X15493700Y-9118500D01*
X15906500Y-12753500D02*
X16081500Y-12928500D01*
X16081500Y-12753500D02*
X15906500Y-12928500D01*
X15970100Y-14658500D02*
X16145100Y-14833500D01*
X16145100Y-14658500D02*
X15970100Y-14833500D01*
X16382700Y-8943500D02*
X16557700Y-9118500D01*
X16557700Y-8943500D02*
X16382700Y-9118500D01*
X16446300Y-10848500D02*
X16621300Y-11023500D01*
X16621300Y-10848500D02*
X16446300Y-11023500D01*
X16859100Y-14658500D02*
X17034100Y-14833500D01*
X17034100Y-14658500D02*
X16859100Y-14833500D01*
X16922500Y-12753500D02*
X17097500Y-12928500D01*
X17097500Y-12753500D02*
X16922500Y-12928500D01*
X17097200Y-16563500D02*
X17272200Y-16738500D01*
X17272200Y-16563500D02*
X17097200Y-16738500D01*
X17335300Y-10848500D02*
X17510300Y-11023500D01*
X17510300Y-10848500D02*
X17335300Y-11023500D01*
X17398700Y-8943500D02*
X17573700Y-9118500D01*
X17573700Y-8943500D02*
X17398700Y-9118500D01*
X17811500Y-12753500D02*
X17986500Y-12928500D01*
X17986500Y-12753500D02*
X17811500Y-12928500D01*
X17875100Y-14658500D02*
X18050100Y-14833500D01*
X18050100Y-14658500D02*
X17875100Y-14833500D01*
X18113200Y-16563500D02*
X18288200Y-16738500D01*
X18288200Y-16563500D02*
X18113200Y-16738500D01*
X18287700Y-8943500D02*
X18462700Y-9118500D01*
X18462700Y-8943500D02*
X18287700Y-9118500D01*
X18287900Y-16563500D02*
X18462900Y-16738500D01*
X18462900Y-16563500D02*
X18287900Y-16738500D01*
X18351300Y-10848500D02*
X18526300Y-11023500D01*
X18526300Y-10848500D02*
X18351300Y-11023500D01*
X18764100Y-14658500D02*
X18939100Y-14833500D01*
X18939100Y-14658500D02*
X18764100Y-14833500D01*
X18827500Y-12753500D02*
X19002500Y-12928500D01*
X19002500Y-12753500D02*
X18827500Y-12928500D01*
X19240300Y-10848500D02*
X19415300Y-11023500D01*
X19415300Y-10848500D02*
X19240300Y-11023500D01*
X19303700Y-8943500D02*
X19478700Y-9118500D01*
X19478700Y-8943500D02*
X19303700Y-9118500D01*
X19303900Y-16563500D02*
X19478900Y-16738500D01*
X19478900Y-16563500D02*
X19303900Y-16738500D01*
X19716500Y-12753500D02*
X19891500Y-12928500D01*
X19891500Y-12753500D02*
X19716500Y-12928500D01*
X19780100Y-14658500D02*
X19955100Y-14833500D01*
X19955100Y-14658500D02*
X19780100Y-14833500D01*
X20192700Y-8943500D02*
X20367700Y-9118500D01*
X20367700Y-8943500D02*
X20192700Y-9118500D01*
X20256300Y-10848500D02*
X20431300Y-11023500D01*
X20431300Y-10848500D02*
X20256300Y-11023500D01*
X20669100Y-14658500D02*
X20844100Y-14833500D01*
X20844100Y-14658500D02*
X20669100Y-14833500D01*
X20732500Y-12753500D02*
X20907500Y-12928500D01*
X20907500Y-12753500D02*
X20732500Y-12928500D01*
X21145300Y-10848500D02*
X21320300Y-11023500D01*
X21320300Y-10848500D02*
X21145300Y-11023500D01*
X21208700Y-8943500D02*
X21383700Y-9118500D01*
X21383700Y-8943500D02*
X21208700Y-9118500D01*
X21621500Y-12753500D02*
X21796500Y-12928500D01*
X21796500Y-12753500D02*
X21621500Y-12928500D01*
X21685100Y-14658500D02*
X21860100Y-14833500D01*
X21860100Y-14658500D02*
X21685100Y-14833500D01*
X22097700Y-8943500D02*
X22272700Y-9118500D01*
X22272700Y-8943500D02*
X22097700Y-9118500D01*
X22161300Y-10848500D02*
X22336300Y-11023500D01*
X22336300Y-10848500D02*
X22161300Y-11023500D01*
X22574100Y-14658500D02*
X22749100Y-14833500D01*
X22749100Y-14658500D02*
X22574100Y-14833500D01*
X22637500Y-12753500D02*
X22812500Y-12928500D01*
X22812500Y-12753500D02*
X22637500Y-12928500D01*
X23050300Y-10848500D02*
X23225300Y-11023500D01*
X23225300Y-10848500D02*
X23050300Y-11023500D01*
X23113700Y-8943500D02*
X23288700Y-9118500D01*
X23288700Y-8943500D02*
X23113700Y-9118500D01*
X23526500Y-12753500D02*
X23701500Y-12928500D01*
X23701500Y-12753500D02*
X23526500Y-12928500D01*
X23590100Y-14658500D02*
X23765100Y-14833500D01*
X23765100Y-14658500D02*
X23590100Y-14833500D01*
X24002700Y-8943500D02*
X24177700Y-9118500D01*
X24177700Y-8943500D02*
X24002700Y-9118500D01*
X24066300Y-10848500D02*
X24241300Y-11023500D01*
X24241300Y-10848500D02*
X24066300Y-11023500D01*
X24240900Y-16563500D02*
X24415900Y-16738500D01*
X24415900Y-16563500D02*
X24240900Y-16738500D01*
X24479100Y-14658500D02*
X24654100Y-14833500D01*
X24654100Y-14658500D02*
X24479100Y-14833500D01*
X24542500Y-12753500D02*
X24717500Y-12928500D01*
X24717500Y-12753500D02*
X24542500Y-12928500D01*
X24955300Y-10848500D02*
X25130300Y-11023500D01*
X25130300Y-10848500D02*
X24955300Y-11023500D01*
X25018700Y-8943500D02*
X25193700Y-9118500D01*
X25193700Y-8943500D02*
X25018700Y-9118500D01*
X25256900Y-16563500D02*
X25431900Y-16738500D01*
X25431900Y-16563500D02*
X25256900Y-16738500D01*
X25431500Y-12753500D02*
X25606500Y-12928500D01*
X25606500Y-12753500D02*
X25431500Y-12928500D01*
X25495100Y-14658500D02*
X25670100Y-14833500D01*
X25670100Y-14658500D02*
X25495100Y-14833500D01*
X25907700Y-8943500D02*
X26082700Y-9118500D01*
X26082700Y-8943500D02*
X25907700Y-9118500D01*
X25971300Y-10848500D02*
X26146300Y-11023500D01*
X26146300Y-10848500D02*
X25971300Y-11023500D01*
X26384100Y-14658500D02*
X26559100Y-14833500D01*
X26559100Y-14658500D02*
X26384100Y-14833500D01*
X26384200Y-16563500D02*
X26559200Y-16738500D01*
X26559200Y-16563500D02*
X26384200Y-16738500D01*
X26447500Y-12753500D02*
X26622500Y-12928500D01*
X26622500Y-12753500D02*
X26447500Y-12928500D01*
X26622100Y-16563500D02*
X26797100Y-16738500D01*
X26797100Y-16563500D02*
X26622100Y-16738500D01*
X26860300Y-10848500D02*
X27035300Y-11023500D01*
X27035300Y-10848500D02*
X26860300Y-11023500D01*
X26923700Y-8943500D02*
X27098700Y-9118500D01*
X27098700Y-8943500D02*
X26923700Y-9118500D01*
X27336500Y-12753500D02*
X27511500Y-12928500D01*
X27511500Y-12753500D02*
X27336500Y-12928500D01*
X27400100Y-14658500D02*
X27575100Y-14833500D01*
X27575100Y-14658500D02*
X27400100Y-14833500D01*
X27400200Y-16563500D02*
X27575200Y-16738500D01*
X27575200Y-16563500D02*
X27400200Y-16738500D01*
X27638100Y-16563500D02*
X27813100Y-16738500D01*
X27813100Y-16563500D02*
X27638100Y-16738500D01*
X27812700Y-8943500D02*
X27987700Y-9118500D01*
X27987700Y-8943500D02*
X27812700Y-9118500D01*
X27876300Y-10848500D02*
X28051300Y-11023500D01*
X28051300Y-10848500D02*
X27876300Y-11023500D01*
X28352500Y-12753500D02*
X28527500Y-12928500D01*
X28527500Y-12753500D02*
X28352500Y-12928500D01*
X28765300Y-10848500D02*
X28940300Y-11023500D01*
X28940300Y-10848500D02*
X28765300Y-11023500D01*
X28828700Y-8943500D02*
X29003700Y-9118500D01*
X29003700Y-8943500D02*
X28828700Y-9118500D01*
X29003500Y-14658500D02*
X29178500Y-14833500D01*
X29178500Y-14658500D02*
X29003500Y-14833500D01*
X29717700Y-16563500D02*
X29892700Y-16738500D01*
X29892700Y-16563500D02*
X29717700Y-16738500D01*
X29781300Y-10848500D02*
X29956300Y-11023500D01*
X29956300Y-10848500D02*
X29781300Y-11023500D01*
X30019500Y-14658500D02*
X30194500Y-14833500D01*
X30194500Y-14658500D02*
X30019500Y-14833500D01*
X30432200Y-12753500D02*
X30607200Y-12928500D01*
X30607200Y-12753500D02*
X30432200Y-12928500D01*
X30670200Y-8943500D02*
X30845200Y-9118500D01*
X30845200Y-8943500D02*
X30670200Y-9118500D01*
X30733700Y-16563500D02*
X30908700Y-16738500D01*
X30908700Y-16563500D02*
X30733700Y-16738500D01*
X31146600Y-10848500D02*
X31321600Y-11023500D01*
X31321600Y-10848500D02*
X31146600Y-11023500D01*
X31448200Y-12753500D02*
X31623200Y-12928500D01*
X31623200Y-12753500D02*
X31448200Y-12928500D01*
X31622700Y-14658500D02*
X31797700Y-14833500D01*
X31797700Y-14658500D02*
X31622700Y-14833500D01*
X31622700Y-16563500D02*
X31797700Y-16738500D01*
X31797700Y-16563500D02*
X31622700Y-16738500D01*
X31686200Y-8943500D02*
X31861200Y-9118500D01*
X31861200Y-8943500D02*
X31686200Y-9118500D01*
X32162600Y-10848500D02*
X32337600Y-11023500D01*
X32337600Y-10848500D02*
X32162600Y-11023500D01*
X32638700Y-14658500D02*
X32813700Y-14833500D01*
X32813700Y-14658500D02*
X32638700Y-14833500D01*
X32638700Y-16563500D02*
X32813700Y-16738500D01*
X32813700Y-16563500D02*
X32638700Y-16738500D01*
X33527700Y-10848500D02*
X33702700Y-11023500D01*
X33702700Y-10848500D02*
X33527700Y-11023500D01*
X33527700Y-12753500D02*
X33702700Y-12928500D01*
X33702700Y-12753500D02*
X33527700Y-12928500D01*
X33527700Y-14658500D02*
X33702700Y-14833500D01*
X33702700Y-14658500D02*
X33527700Y-14833500D01*
X33527700Y-16563500D02*
X33702700Y-16738500D01*
X33702700Y-16563500D02*
X33527700Y-16738500D01*
X34543700Y-10848500D02*
X34718700Y-11023500D01*
X34718700Y-10848500D02*
X34543700Y-11023500D01*
X34543700Y-12753500D02*
X34718700Y-12928500D01*
X34718700Y-12753500D02*
X34543700Y-12928500D01*
X34543700Y-14658500D02*
X34718700Y-14833500D01*
X34718700Y-14658500D02*
X34543700Y-14833500D01*
X34543700Y-16563500D02*
X34718700Y-16738500D01*
X34718700Y-16563500D02*
X34543700Y-16738500D01*
D13*
X5697500Y-14047500D02*
G75*
G03*
X5697500Y-14047500I-152400J0D01*
G01*
X8085100Y-14047500D02*
G75*
G03*
X8085100Y-14047500I-152400J0D01*
G01*
X12845100Y-17349500D02*
G75*
G03*
X12845100Y-17349500I-152400J0D01*
G01*
X13320800Y-17349500D02*
G75*
G03*
X13320800Y-17349500I-152400J0D01*
G01*
X22845100Y-17349500D02*
G75*
G03*
X22845100Y-17349500I-152400J0D01*
G01*
X24750800Y-17349500D02*
G75*
G03*
X24750800Y-17349500I-152400J0D01*
G01*
X29986300Y-12142500D02*
G75*
G03*
X29986300Y-12142500I-152400J0D01*
G01*
X30224300Y-8332500D02*
G75*
G03*
X30224300Y-8332500I-152400J0D01*
G01*
X32373900Y-12142500D02*
G75*
G03*
X32373900Y-12142500I-152400J0D01*
G01*
X32611900Y-8332500D02*
G75*
G03*
X32611900Y-8332500I-152400J0D01*
G01*
D14*
X6500700Y-9006000D02*
X6500700Y-9356000D01*
X6325700Y-9181000D02*
X6675700Y-9181000D01*
X10787100Y-14721000D02*
X10787100Y-15071000D01*
X10612100Y-14896000D02*
X10962100Y-14896000D01*
X19359500Y-12816000D02*
X19359500Y-13166000D01*
X19184500Y-12991000D02*
X19534500Y-12991000D01*
X27455700Y-9006000D02*
X27455700Y-9356000D01*
X27280700Y-9181000D02*
X27630700Y-9181000D01*
X31027700Y-14721000D02*
X31027700Y-15071000D01*
X30852700Y-14896000D02*
X31202700Y-14896000D01*
D15*
X5686091Y-15709491D02*
X5686091Y-15427509D01*
X5404109Y-15427509D01*
X5404109Y-15709491D01*
X5686091Y-15709491D01*
X8073691Y-15709491D02*
X8073691Y-15427509D01*
X7791709Y-15427509D01*
X7791709Y-15709491D01*
X8073691Y-15709491D01*
X12833691Y-15969491D02*
X12833691Y-15687509D01*
X12551709Y-15687509D01*
X12551709Y-15969491D01*
X12833691Y-15969491D01*
X13309391Y-15969491D02*
X13309391Y-15687509D01*
X13027409Y-15687509D01*
X13027409Y-15969491D01*
X13309391Y-15969491D01*
X22833691Y-15969491D02*
X22833691Y-15687509D01*
X22551709Y-15687509D01*
X22551709Y-15969491D01*
X22833691Y-15969491D01*
X24739391Y-15969491D02*
X24739391Y-15687509D01*
X24457409Y-15687509D01*
X24457409Y-15969491D01*
X24739391Y-15969491D01*
X29974891Y-13804491D02*
X29974891Y-13522509D01*
X29692909Y-13522509D01*
X29692909Y-13804491D01*
X29974891Y-13804491D01*
X30212891Y-9994491D02*
X30212891Y-9712509D01*
X29930909Y-9712509D01*
X29930909Y-9994491D01*
X30212891Y-9994491D01*
X32362491Y-13804491D02*
X32362491Y-13522509D01*
X32080509Y-13522509D01*
X32080509Y-13804491D01*
X32362491Y-13804491D01*
X32600491Y-9994491D02*
X32600491Y-9712509D01*
X32318509Y-9712509D01*
X32318509Y-9994491D01*
X32600491Y-9994491D01*
D16*
X5548200Y-9231000D02*
X5748200Y-9031000D01*
X5548200Y-8831000D01*
X5348200Y-9031000D01*
X5548200Y-9231000D01*
X5786400Y-13041000D02*
X5986400Y-12841000D01*
X5786400Y-12641000D01*
X5586400Y-12841000D01*
X5786400Y-13041000D01*
X5786400Y-16851000D02*
X5986400Y-16651000D01*
X5786400Y-16451000D01*
X5586400Y-16651000D01*
X5786400Y-16851000D01*
X6024500Y-11136000D02*
X6224500Y-10936000D01*
X6024500Y-10736000D01*
X5824500Y-10936000D01*
X6024500Y-11136000D01*
X6024500Y-16851000D02*
X6224500Y-16651000D01*
X6024500Y-16451000D01*
X5824500Y-16651000D01*
X6024500Y-16851000D01*
X6262600Y-13041000D02*
X6462600Y-12841000D01*
X6262600Y-12641000D01*
X6062600Y-12841000D01*
X6262600Y-13041000D01*
X6738900Y-14946000D02*
X6938900Y-14746000D01*
X6738900Y-14546000D01*
X6538900Y-14746000D01*
X6738900Y-14946000D01*
X7453200Y-9231000D02*
X7653200Y-9031000D01*
X7453200Y-8831000D01*
X7253200Y-9031000D01*
X7453200Y-9231000D01*
X8167700Y-16851000D02*
X8367700Y-16651000D01*
X8167700Y-16451000D01*
X7967700Y-16651000D01*
X8167700Y-16851000D01*
X8405800Y-11136000D02*
X8605800Y-10936000D01*
X8405800Y-10736000D01*
X8205800Y-10936000D01*
X8405800Y-11136000D01*
X8405800Y-16851000D02*
X8605800Y-16651000D01*
X8405800Y-16451000D01*
X8205800Y-16651000D01*
X8405800Y-16851000D01*
X8882000Y-13041000D02*
X9082000Y-12841000D01*
X8882000Y-12641000D01*
X8682000Y-12841000D01*
X8882000Y-13041000D01*
X9358200Y-9231000D02*
X9558200Y-9031000D01*
X9358200Y-8831000D01*
X9158200Y-9031000D01*
X9358200Y-9231000D01*
X9834600Y-14946000D02*
X10034600Y-14746000D01*
X9834600Y-14546000D01*
X9634600Y-14746000D01*
X9834600Y-14946000D01*
X10310800Y-11136000D02*
X10510800Y-10936000D01*
X10310800Y-10736000D01*
X10110800Y-10936000D01*
X10310800Y-11136000D01*
X10549000Y-16851000D02*
X10749000Y-16651000D01*
X10549000Y-16451000D01*
X10349000Y-16651000D01*
X10549000Y-16851000D01*
X10787000Y-13041000D02*
X10987000Y-12841000D01*
X10787000Y-12641000D01*
X10587000Y-12841000D01*
X10787000Y-13041000D01*
X10787100Y-16851000D02*
X10987100Y-16651000D01*
X10787100Y-16451000D01*
X10587100Y-16651000D01*
X10787100Y-16851000D01*
X11263200Y-9231000D02*
X11463200Y-9031000D01*
X11263200Y-8831000D01*
X11063200Y-9031000D01*
X11263200Y-9231000D01*
X11739600Y-14946000D02*
X11939600Y-14746000D01*
X11739600Y-14546000D01*
X11539600Y-14746000D01*
X11739600Y-14946000D01*
X12215800Y-11136000D02*
X12415800Y-10936000D01*
X12215800Y-10736000D01*
X12015800Y-10936000D01*
X12215800Y-11136000D01*
X12692000Y-13041000D02*
X12892000Y-12841000D01*
X12692000Y-12641000D01*
X12492000Y-12841000D01*
X12692000Y-13041000D01*
X13168200Y-9231000D02*
X13368200Y-9031000D01*
X13168200Y-8831000D01*
X12968200Y-9031000D01*
X13168200Y-9231000D01*
X13644600Y-14946000D02*
X13844600Y-14746000D01*
X13644600Y-14546000D01*
X13444600Y-14746000D01*
X13644600Y-14946000D01*
X14120800Y-11136000D02*
X14320800Y-10936000D01*
X14120800Y-10736000D01*
X13920800Y-10936000D01*
X14120800Y-11136000D01*
X14597000Y-13041000D02*
X14797000Y-12841000D01*
X14597000Y-12641000D01*
X14397000Y-12841000D01*
X14597000Y-13041000D01*
X15073200Y-9231000D02*
X15273200Y-9031000D01*
X15073200Y-8831000D01*
X14873200Y-9031000D01*
X15073200Y-9231000D01*
X15549600Y-14946000D02*
X15749600Y-14746000D01*
X15549600Y-14546000D01*
X15349600Y-14746000D01*
X15549600Y-14946000D01*
X16025800Y-11136000D02*
X16225800Y-10936000D01*
X16025800Y-10736000D01*
X15825800Y-10936000D01*
X16025800Y-11136000D01*
X16502000Y-13041000D02*
X16702000Y-12841000D01*
X16502000Y-12641000D01*
X16302000Y-12841000D01*
X16502000Y-13041000D01*
X16978200Y-9231000D02*
X17178200Y-9031000D01*
X16978200Y-8831000D01*
X16778200Y-9031000D01*
X16978200Y-9231000D01*
X17454600Y-14946000D02*
X17654600Y-14746000D01*
X17454600Y-14546000D01*
X17254600Y-14746000D01*
X17454600Y-14946000D01*
X17692700Y-16851000D02*
X17892700Y-16651000D01*
X17692700Y-16451000D01*
X17492700Y-16651000D01*
X17692700Y-16851000D01*
X17930800Y-11136000D02*
X18130800Y-10936000D01*
X17930800Y-10736000D01*
X17730800Y-10936000D01*
X17930800Y-11136000D01*
X18407000Y-13041000D02*
X18607000Y-12841000D01*
X18407000Y-12641000D01*
X18207000Y-12841000D01*
X18407000Y-13041000D01*
X18883200Y-9231000D02*
X19083200Y-9031000D01*
X18883200Y-8831000D01*
X18683200Y-9031000D01*
X18883200Y-9231000D01*
X18883400Y-16851000D02*
X19083400Y-16651000D01*
X18883400Y-16451000D01*
X18683400Y-16651000D01*
X18883400Y-16851000D01*
X19359600Y-14946000D02*
X19559600Y-14746000D01*
X19359600Y-14546000D01*
X19159600Y-14746000D01*
X19359600Y-14946000D01*
X19835800Y-11136000D02*
X20035800Y-10936000D01*
X19835800Y-10736000D01*
X19635800Y-10936000D01*
X19835800Y-11136000D01*
X20312000Y-13041000D02*
X20512000Y-12841000D01*
X20312000Y-12641000D01*
X20112000Y-12841000D01*
X20312000Y-13041000D01*
X20788200Y-9231000D02*
X20988200Y-9031000D01*
X20788200Y-8831000D01*
X20588200Y-9031000D01*
X20788200Y-9231000D01*
X21264600Y-14946000D02*
X21464600Y-14746000D01*
X21264600Y-14546000D01*
X21064600Y-14746000D01*
X21264600Y-14946000D01*
X21740800Y-11136000D02*
X21940800Y-10936000D01*
X21740800Y-10736000D01*
X21540800Y-10936000D01*
X21740800Y-11136000D01*
X22217000Y-13041000D02*
X22417000Y-12841000D01*
X22217000Y-12641000D01*
X22017000Y-12841000D01*
X22217000Y-13041000D01*
X22693200Y-9231000D02*
X22893200Y-9031000D01*
X22693200Y-8831000D01*
X22493200Y-9031000D01*
X22693200Y-9231000D01*
X23169600Y-14946000D02*
X23369600Y-14746000D01*
X23169600Y-14546000D01*
X22969600Y-14746000D01*
X23169600Y-14946000D01*
X23645800Y-11136000D02*
X23845800Y-10936000D01*
X23645800Y-10736000D01*
X23445800Y-10936000D01*
X23645800Y-11136000D01*
X24122000Y-13041000D02*
X24322000Y-12841000D01*
X24122000Y-12641000D01*
X23922000Y-12841000D01*
X24122000Y-13041000D01*
X24598200Y-9231000D02*
X24798200Y-9031000D01*
X24598200Y-8831000D01*
X24398200Y-9031000D01*
X24598200Y-9231000D01*
X24836400Y-16851000D02*
X25036400Y-16651000D01*
X24836400Y-16451000D01*
X24636400Y-16651000D01*
X24836400Y-16851000D01*
X25074600Y-14946000D02*
X25274600Y-14746000D01*
X25074600Y-14546000D01*
X24874600Y-14746000D01*
X25074600Y-14946000D01*
X25550800Y-11136000D02*
X25750800Y-10936000D01*
X25550800Y-10736000D01*
X25350800Y-10936000D01*
X25550800Y-11136000D01*
X26027000Y-13041000D02*
X26227000Y-12841000D01*
X26027000Y-12641000D01*
X25827000Y-12841000D01*
X26027000Y-13041000D01*
X26503200Y-9231000D02*
X26703200Y-9031000D01*
X26503200Y-8831000D01*
X26303200Y-9031000D01*
X26503200Y-9231000D01*
X26979600Y-14946000D02*
X27179600Y-14746000D01*
X26979600Y-14546000D01*
X26779600Y-14746000D01*
X26979600Y-14946000D01*
X26979700Y-16851000D02*
X27179700Y-16651000D01*
X26979700Y-16451000D01*
X26779700Y-16651000D01*
X26979700Y-16851000D01*
X27217600Y-16851000D02*
X27417600Y-16651000D01*
X27217600Y-16451000D01*
X27017600Y-16651000D01*
X27217600Y-16851000D01*
X27455800Y-11136000D02*
X27655800Y-10936000D01*
X27455800Y-10736000D01*
X27255800Y-10936000D01*
X27455800Y-11136000D01*
X27932000Y-13041000D02*
X28132000Y-12841000D01*
X27932000Y-12641000D01*
X27732000Y-12841000D01*
X27932000Y-13041000D01*
X28408200Y-9231000D02*
X28608200Y-9031000D01*
X28408200Y-8831000D01*
X28208200Y-9031000D01*
X28408200Y-9231000D01*
X29360800Y-11136000D02*
X29560800Y-10936000D01*
X29360800Y-10736000D01*
X29160800Y-10936000D01*
X29360800Y-11136000D01*
X29599000Y-14946000D02*
X29799000Y-14746000D01*
X29599000Y-14546000D01*
X29399000Y-14746000D01*
X29599000Y-14946000D01*
X30313200Y-16851000D02*
X30513200Y-16651000D01*
X30313200Y-16451000D01*
X30113200Y-16651000D01*
X30313200Y-16851000D01*
X31027700Y-13041000D02*
X31227700Y-12841000D01*
X31027700Y-12641000D01*
X30827700Y-12841000D01*
X31027700Y-13041000D01*
X31265700Y-9231000D02*
X31465700Y-9031000D01*
X31265700Y-8831000D01*
X31065700Y-9031000D01*
X31265700Y-9231000D01*
X31742100Y-11136000D02*
X31942100Y-10936000D01*
X31742100Y-10736000D01*
X31542100Y-10936000D01*
X31742100Y-11136000D01*
X32218200Y-14946000D02*
X32418200Y-14746000D01*
X32218200Y-14546000D01*
X32018200Y-14746000D01*
X32218200Y-14946000D01*
X32218200Y-16851000D02*
X32418200Y-16651000D01*
X32218200Y-16451000D01*
X32018200Y-16651000D01*
X32218200Y-16851000D01*
X34123200Y-11136000D02*
X34323200Y-10936000D01*
X34123200Y-10736000D01*
X33923200Y-10936000D01*
X34123200Y-11136000D01*
X34123200Y-13041000D02*
X34323200Y-12841000D01*
X34123200Y-12641000D01*
X33923200Y-12841000D01*
X34123200Y-13041000D01*
X34123200Y-14946000D02*
X34323200Y-14746000D01*
X34123200Y-14546000D01*
X33923200Y-14746000D01*
X34123200Y-14946000D01*
X34123200Y-16851000D02*
X34323200Y-16651000D01*
X34123200Y-16451000D01*
X33923200Y-16651000D01*
X34123200Y-16851000D01*
D11*
X4851477Y-17919984D02*
X4851477Y-17719984D01*
X4851477Y-17719984D02*
X4899096Y-17719984D01*
X4899096Y-17719984D02*
X4927667Y-17729508D01*
X4927667Y-17729508D02*
X4946715Y-17748555D01*
X4946715Y-17748555D02*
X4956239Y-17767603D01*
X4956239Y-17767603D02*
X4965763Y-17805698D01*
X4965763Y-17805698D02*
X4965763Y-17834270D01*
X4965763Y-17834270D02*
X4956239Y-17872365D01*
X4956239Y-17872365D02*
X4946715Y-17891412D01*
X4946715Y-17891412D02*
X4927667Y-17910460D01*
X4927667Y-17910460D02*
X4899096Y-17919984D01*
X4899096Y-17919984D02*
X4851477Y-17919984D01*
X5051477Y-17919984D02*
X5051477Y-17786650D01*
X5051477Y-17824746D02*
X5061001Y-17805698D01*
X5061001Y-17805698D02*
X5070524Y-17796174D01*
X5070524Y-17796174D02*
X5089572Y-17786650D01*
X5089572Y-17786650D02*
X5108620Y-17786650D01*
X5175286Y-17919984D02*
X5175286Y-17786650D01*
X5175286Y-17719984D02*
X5165763Y-17729508D01*
X5165763Y-17729508D02*
X5175286Y-17739031D01*
X5175286Y-17739031D02*
X5184810Y-17729508D01*
X5184810Y-17729508D02*
X5175286Y-17719984D01*
X5175286Y-17719984D02*
X5175286Y-17739031D01*
X5299096Y-17919984D02*
X5280048Y-17910460D01*
X5280048Y-17910460D02*
X5270524Y-17891412D01*
X5270524Y-17891412D02*
X5270524Y-17719984D01*
X5403858Y-17919984D02*
X5384810Y-17910460D01*
X5384810Y-17910460D02*
X5375286Y-17891412D01*
X5375286Y-17891412D02*
X5375286Y-17719984D01*
X5632429Y-17919984D02*
X5632429Y-17719984D01*
X5632429Y-17719984D02*
X5699096Y-17862841D01*
X5699096Y-17862841D02*
X5765762Y-17719984D01*
X5765762Y-17719984D02*
X5765762Y-17919984D01*
X5946715Y-17919984D02*
X5946715Y-17815222D01*
X5946715Y-17815222D02*
X5937191Y-17796174D01*
X5937191Y-17796174D02*
X5918143Y-17786650D01*
X5918143Y-17786650D02*
X5880048Y-17786650D01*
X5880048Y-17786650D02*
X5861001Y-17796174D01*
X5946715Y-17910460D02*
X5927667Y-17919984D01*
X5927667Y-17919984D02*
X5880048Y-17919984D01*
X5880048Y-17919984D02*
X5861001Y-17910460D01*
X5861001Y-17910460D02*
X5851477Y-17891412D01*
X5851477Y-17891412D02*
X5851477Y-17872365D01*
X5851477Y-17872365D02*
X5861001Y-17853317D01*
X5861001Y-17853317D02*
X5880048Y-17843793D01*
X5880048Y-17843793D02*
X5927667Y-17843793D01*
X5927667Y-17843793D02*
X5946715Y-17834270D01*
X6041953Y-17786650D02*
X6041953Y-17986650D01*
X6041953Y-17796174D02*
X6061001Y-17786650D01*
X6061001Y-17786650D02*
X6099096Y-17786650D01*
X6099096Y-17786650D02*
X6118143Y-17796174D01*
X6118143Y-17796174D02*
X6127667Y-17805698D01*
X6127667Y-17805698D02*
X6137191Y-17824746D01*
X6137191Y-17824746D02*
X6137191Y-17881889D01*
X6137191Y-17881889D02*
X6127667Y-17900936D01*
X6127667Y-17900936D02*
X6118143Y-17910460D01*
X6118143Y-17910460D02*
X6099096Y-17919984D01*
X6099096Y-17919984D02*
X6061001Y-17919984D01*
X6061001Y-17919984D02*
X6041953Y-17910460D01*
X6222905Y-17900936D02*
X6232429Y-17910460D01*
X6232429Y-17910460D02*
X6222905Y-17919984D01*
X6222905Y-17919984D02*
X6213382Y-17910460D01*
X6213382Y-17910460D02*
X6222905Y-17900936D01*
X6222905Y-17900936D02*
X6222905Y-17919984D01*
X6222905Y-17796174D02*
X6232429Y-17805698D01*
X6232429Y-17805698D02*
X6222905Y-17815222D01*
X6222905Y-17815222D02*
X6213382Y-17805698D01*
X6213382Y-17805698D02*
X6222905Y-17796174D01*
X6222905Y-17796174D02*
X6222905Y-17815222D01*
D12*
X4415700Y-18161000D02*
X4590700Y-18336000D01*
X4590700Y-18161000D02*
X4415700Y-18336000D01*
D11*
X4956239Y-18339984D02*
X4841953Y-18339984D01*
X4899096Y-18339984D02*
X4899096Y-18139984D01*
X4899096Y-18139984D02*
X4880048Y-18168555D01*
X4880048Y-18168555D02*
X4861001Y-18187603D01*
X4861001Y-18187603D02*
X4841953Y-18197127D01*
X5041953Y-18320936D02*
X5051477Y-18330460D01*
X5051477Y-18330460D02*
X5041953Y-18339984D01*
X5041953Y-18339984D02*
X5032429Y-18330460D01*
X5032429Y-18330460D02*
X5041953Y-18320936D01*
X5041953Y-18320936D02*
X5041953Y-18339984D01*
X5118144Y-18139984D02*
X5251477Y-18139984D01*
X5251477Y-18139984D02*
X5165763Y-18339984D01*
X5422905Y-18139984D02*
X5327667Y-18139984D01*
X5327667Y-18139984D02*
X5318144Y-18235222D01*
X5318144Y-18235222D02*
X5327667Y-18225698D01*
X5327667Y-18225698D02*
X5346715Y-18216174D01*
X5346715Y-18216174D02*
X5394334Y-18216174D01*
X5394334Y-18216174D02*
X5413382Y-18225698D01*
X5413382Y-18225698D02*
X5422905Y-18235222D01*
X5422905Y-18235222D02*
X5432429Y-18254270D01*
X5432429Y-18254270D02*
X5432429Y-18301889D01*
X5432429Y-18301889D02*
X5422905Y-18320936D01*
X5422905Y-18320936D02*
X5413382Y-18330460D01*
X5413382Y-18330460D02*
X5394334Y-18339984D01*
X5394334Y-18339984D02*
X5346715Y-18339984D01*
X5346715Y-18339984D02*
X5327667Y-18330460D01*
X5327667Y-18330460D02*
X5318144Y-18320936D01*
X5556239Y-18139984D02*
X5575286Y-18139984D01*
X5575286Y-18139984D02*
X5594334Y-18149508D01*
X5594334Y-18149508D02*
X5603858Y-18159031D01*
X5603858Y-18159031D02*
X5613382Y-18178079D01*
X5613382Y-18178079D02*
X5622905Y-18216174D01*
X5622905Y-18216174D02*
X5622905Y-18263793D01*
X5622905Y-18263793D02*
X5613382Y-18301889D01*
X5613382Y-18301889D02*
X5603858Y-18320936D01*
X5603858Y-18320936D02*
X5594334Y-18330460D01*
X5594334Y-18330460D02*
X5575286Y-18339984D01*
X5575286Y-18339984D02*
X5556239Y-18339984D01*
X5556239Y-18339984D02*
X5537191Y-18330460D01*
X5537191Y-18330460D02*
X5527667Y-18320936D01*
X5527667Y-18320936D02*
X5518144Y-18301889D01*
X5518144Y-18301889D02*
X5508620Y-18263793D01*
X5508620Y-18263793D02*
X5508620Y-18216174D01*
X5508620Y-18216174D02*
X5518144Y-18178079D01*
X5518144Y-18178079D02*
X5527667Y-18159031D01*
X5527667Y-18159031D02*
X5537191Y-18149508D01*
X5537191Y-18149508D02*
X5556239Y-18139984D01*
X5708620Y-18339984D02*
X5708620Y-18206650D01*
X5708620Y-18225698D02*
X5718143Y-18216174D01*
X5718143Y-18216174D02*
X5737191Y-18206650D01*
X5737191Y-18206650D02*
X5765763Y-18206650D01*
X5765763Y-18206650D02*
X5784810Y-18216174D01*
X5784810Y-18216174D02*
X5794334Y-18235222D01*
X5794334Y-18235222D02*
X5794334Y-18339984D01*
X5794334Y-18235222D02*
X5803858Y-18216174D01*
X5803858Y-18216174D02*
X5822905Y-18206650D01*
X5822905Y-18206650D02*
X5851477Y-18206650D01*
X5851477Y-18206650D02*
X5870524Y-18216174D01*
X5870524Y-18216174D02*
X5880048Y-18235222D01*
X5880048Y-18235222D02*
X5880048Y-18339984D01*
X5975286Y-18339984D02*
X5975286Y-18206650D01*
X5975286Y-18225698D02*
X5984810Y-18216174D01*
X5984810Y-18216174D02*
X6003858Y-18206650D01*
X6003858Y-18206650D02*
X6032429Y-18206650D01*
X6032429Y-18206650D02*
X6051477Y-18216174D01*
X6051477Y-18216174D02*
X6061001Y-18235222D01*
X6061001Y-18235222D02*
X6061001Y-18339984D01*
X6061001Y-18235222D02*
X6070524Y-18216174D01*
X6070524Y-18216174D02*
X6089572Y-18206650D01*
X6089572Y-18206650D02*
X6118143Y-18206650D01*
X6118143Y-18206650D02*
X6137191Y-18216174D01*
X6137191Y-18216174D02*
X6146715Y-18235222D01*
X6146715Y-18235222D02*
X6146715Y-18339984D01*
X6537191Y-18130460D02*
X6365763Y-18387603D01*
X6794334Y-18139984D02*
X6813382Y-18139984D01*
X6813382Y-18139984D02*
X6832429Y-18149508D01*
X6832429Y-18149508D02*
X6841953Y-18159031D01*
X6841953Y-18159031D02*
X6851477Y-18178079D01*
X6851477Y-18178079D02*
X6861001Y-18216174D01*
X6861001Y-18216174D02*
X6861001Y-18263793D01*
X6861001Y-18263793D02*
X6851477Y-18301889D01*
X6851477Y-18301889D02*
X6841953Y-18320936D01*
X6841953Y-18320936D02*
X6832429Y-18330460D01*
X6832429Y-18330460D02*
X6813382Y-18339984D01*
X6813382Y-18339984D02*
X6794334Y-18339984D01*
X6794334Y-18339984D02*
X6775286Y-18330460D01*
X6775286Y-18330460D02*
X6765763Y-18320936D01*
X6765763Y-18320936D02*
X6756239Y-18301889D01*
X6756239Y-18301889D02*
X6746715Y-18263793D01*
X6746715Y-18263793D02*
X6746715Y-18216174D01*
X6746715Y-18216174D02*
X6756239Y-18178079D01*
X6756239Y-18178079D02*
X6765763Y-18159031D01*
X6765763Y-18159031D02*
X6775286Y-18149508D01*
X6775286Y-18149508D02*
X6794334Y-18139984D01*
X6946715Y-18320936D02*
X6956239Y-18330460D01*
X6956239Y-18330460D02*
X6946715Y-18339984D01*
X6946715Y-18339984D02*
X6937191Y-18330460D01*
X6937191Y-18330460D02*
X6946715Y-18320936D01*
X6946715Y-18320936D02*
X6946715Y-18339984D01*
X7080048Y-18139984D02*
X7099096Y-18139984D01*
X7099096Y-18139984D02*
X7118144Y-18149508D01*
X7118144Y-18149508D02*
X7127667Y-18159031D01*
X7127667Y-18159031D02*
X7137191Y-18178079D01*
X7137191Y-18178079D02*
X7146715Y-18216174D01*
X7146715Y-18216174D02*
X7146715Y-18263793D01*
X7146715Y-18263793D02*
X7137191Y-18301889D01*
X7137191Y-18301889D02*
X7127667Y-18320936D01*
X7127667Y-18320936D02*
X7118144Y-18330460D01*
X7118144Y-18330460D02*
X7099096Y-18339984D01*
X7099096Y-18339984D02*
X7080048Y-18339984D01*
X7080048Y-18339984D02*
X7061001Y-18330460D01*
X7061001Y-18330460D02*
X7051477Y-18320936D01*
X7051477Y-18320936D02*
X7041953Y-18301889D01*
X7041953Y-18301889D02*
X7032429Y-18263793D01*
X7032429Y-18263793D02*
X7032429Y-18216174D01*
X7032429Y-18216174D02*
X7041953Y-18178079D01*
X7041953Y-18178079D02*
X7051477Y-18159031D01*
X7051477Y-18159031D02*
X7061001Y-18149508D01*
X7061001Y-18149508D02*
X7080048Y-18139984D01*
X7318144Y-18139984D02*
X7280048Y-18139984D01*
X7280048Y-18139984D02*
X7261001Y-18149508D01*
X7261001Y-18149508D02*
X7251477Y-18159031D01*
X7251477Y-18159031D02*
X7232429Y-18187603D01*
X7232429Y-18187603D02*
X7222906Y-18225698D01*
X7222906Y-18225698D02*
X7222906Y-18301889D01*
X7222906Y-18301889D02*
X7232429Y-18320936D01*
X7232429Y-18320936D02*
X7241953Y-18330460D01*
X7241953Y-18330460D02*
X7261001Y-18339984D01*
X7261001Y-18339984D02*
X7299096Y-18339984D01*
X7299096Y-18339984D02*
X7318144Y-18330460D01*
X7318144Y-18330460D02*
X7327667Y-18320936D01*
X7327667Y-18320936D02*
X7337191Y-18301889D01*
X7337191Y-18301889D02*
X7337191Y-18254270D01*
X7337191Y-18254270D02*
X7327667Y-18235222D01*
X7327667Y-18235222D02*
X7318144Y-18225698D01*
X7318144Y-18225698D02*
X7299096Y-18216174D01*
X7299096Y-18216174D02*
X7261001Y-18216174D01*
X7261001Y-18216174D02*
X7241953Y-18225698D01*
X7241953Y-18225698D02*
X7232429Y-18235222D01*
X7232429Y-18235222D02*
X7222906Y-18254270D01*
X7451477Y-18225698D02*
X7432429Y-18216174D01*
X7432429Y-18216174D02*
X7422906Y-18206650D01*
X7422906Y-18206650D02*
X7413382Y-18187603D01*
X7413382Y-18187603D02*
X7413382Y-18178079D01*
X7413382Y-18178079D02*
X7422906Y-18159031D01*
X7422906Y-18159031D02*
X7432429Y-18149508D01*
X7432429Y-18149508D02*
X7451477Y-18139984D01*
X7451477Y-18139984D02*
X7489572Y-18139984D01*
X7489572Y-18139984D02*
X7508620Y-18149508D01*
X7508620Y-18149508D02*
X7518144Y-18159031D01*
X7518144Y-18159031D02*
X7527667Y-18178079D01*
X7527667Y-18178079D02*
X7527667Y-18187603D01*
X7527667Y-18187603D02*
X7518144Y-18206650D01*
X7518144Y-18206650D02*
X7508620Y-18216174D01*
X7508620Y-18216174D02*
X7489572Y-18225698D01*
X7489572Y-18225698D02*
X7451477Y-18225698D01*
X7451477Y-18225698D02*
X7432429Y-18235222D01*
X7432429Y-18235222D02*
X7422906Y-18244746D01*
X7422906Y-18244746D02*
X7413382Y-18263793D01*
X7413382Y-18263793D02*
X7413382Y-18301889D01*
X7413382Y-18301889D02*
X7422906Y-18320936D01*
X7422906Y-18320936D02*
X7432429Y-18330460D01*
X7432429Y-18330460D02*
X7451477Y-18339984D01*
X7451477Y-18339984D02*
X7489572Y-18339984D01*
X7489572Y-18339984D02*
X7508620Y-18330460D01*
X7508620Y-18330460D02*
X7518144Y-18320936D01*
X7518144Y-18320936D02*
X7527667Y-18301889D01*
X7527667Y-18301889D02*
X7527667Y-18263793D01*
X7527667Y-18263793D02*
X7518144Y-18244746D01*
X7518144Y-18244746D02*
X7508620Y-18235222D01*
X7508620Y-18235222D02*
X7489572Y-18225698D01*
X7622906Y-18339984D02*
X7661001Y-18339984D01*
X7661001Y-18339984D02*
X7680048Y-18330460D01*
X7680048Y-18330460D02*
X7689572Y-18320936D01*
X7689572Y-18320936D02*
X7708620Y-18292365D01*
X7708620Y-18292365D02*
X7718144Y-18254270D01*
X7718144Y-18254270D02*
X7718144Y-18178079D01*
X7718144Y-18178079D02*
X7708620Y-18159031D01*
X7708620Y-18159031D02*
X7699096Y-18149508D01*
X7699096Y-18149508D02*
X7680048Y-18139984D01*
X7680048Y-18139984D02*
X7641953Y-18139984D01*
X7641953Y-18139984D02*
X7622906Y-18149508D01*
X7622906Y-18149508D02*
X7613382Y-18159031D01*
X7613382Y-18159031D02*
X7603858Y-18178079D01*
X7603858Y-18178079D02*
X7603858Y-18225698D01*
X7603858Y-18225698D02*
X7613382Y-18244746D01*
X7613382Y-18244746D02*
X7622906Y-18254270D01*
X7622906Y-18254270D02*
X7641953Y-18263793D01*
X7641953Y-18263793D02*
X7680048Y-18263793D01*
X7680048Y-18263793D02*
X7699096Y-18254270D01*
X7699096Y-18254270D02*
X7708620Y-18244746D01*
X7708620Y-18244746D02*
X7718144Y-18225698D01*
X7794334Y-18139984D02*
X7794334Y-18178079D01*
X7870525Y-18139984D02*
X7870525Y-18178079D01*
X8165763Y-18416174D02*
X8156239Y-18406650D01*
X8156239Y-18406650D02*
X8137191Y-18378079D01*
X8137191Y-18378079D02*
X8127668Y-18359031D01*
X8127668Y-18359031D02*
X8118144Y-18330460D01*
X8118144Y-18330460D02*
X8108620Y-18282841D01*
X8108620Y-18282841D02*
X8108620Y-18244746D01*
X8108620Y-18244746D02*
X8118144Y-18197127D01*
X8118144Y-18197127D02*
X8127668Y-18168555D01*
X8127668Y-18168555D02*
X8137191Y-18149508D01*
X8137191Y-18149508D02*
X8156239Y-18120936D01*
X8156239Y-18120936D02*
X8165763Y-18111412D01*
X8346715Y-18339984D02*
X8232429Y-18339984D01*
X8289572Y-18339984D02*
X8289572Y-18139984D01*
X8289572Y-18139984D02*
X8270525Y-18168555D01*
X8270525Y-18168555D02*
X8251477Y-18187603D01*
X8251477Y-18187603D02*
X8232429Y-18197127D01*
X8518144Y-18206650D02*
X8518144Y-18339984D01*
X8470525Y-18130460D02*
X8422906Y-18273317D01*
X8422906Y-18273317D02*
X8546715Y-18273317D01*
X8708620Y-18206650D02*
X8708620Y-18339984D01*
X8661001Y-18130460D02*
X8613382Y-18273317D01*
X8613382Y-18273317D02*
X8737191Y-18273317D01*
X8965763Y-18339984D02*
X8965763Y-18139984D01*
X9051477Y-18339984D02*
X9051477Y-18235222D01*
X9051477Y-18235222D02*
X9041953Y-18216174D01*
X9041953Y-18216174D02*
X9022906Y-18206650D01*
X9022906Y-18206650D02*
X8994334Y-18206650D01*
X8994334Y-18206650D02*
X8975287Y-18216174D01*
X8975287Y-18216174D02*
X8965763Y-18225698D01*
X9175287Y-18339984D02*
X9156239Y-18330460D01*
X9156239Y-18330460D02*
X9146715Y-18320936D01*
X9146715Y-18320936D02*
X9137192Y-18301889D01*
X9137192Y-18301889D02*
X9137192Y-18244746D01*
X9137192Y-18244746D02*
X9146715Y-18225698D01*
X9146715Y-18225698D02*
X9156239Y-18216174D01*
X9156239Y-18216174D02*
X9175287Y-18206650D01*
X9175287Y-18206650D02*
X9203858Y-18206650D01*
X9203858Y-18206650D02*
X9222906Y-18216174D01*
X9222906Y-18216174D02*
X9232430Y-18225698D01*
X9232430Y-18225698D02*
X9241953Y-18244746D01*
X9241953Y-18244746D02*
X9241953Y-18301889D01*
X9241953Y-18301889D02*
X9232430Y-18320936D01*
X9232430Y-18320936D02*
X9222906Y-18330460D01*
X9222906Y-18330460D02*
X9203858Y-18339984D01*
X9203858Y-18339984D02*
X9175287Y-18339984D01*
X9356239Y-18339984D02*
X9337192Y-18330460D01*
X9337192Y-18330460D02*
X9327668Y-18311412D01*
X9327668Y-18311412D02*
X9327668Y-18139984D01*
X9508620Y-18330460D02*
X9489573Y-18339984D01*
X9489573Y-18339984D02*
X9451477Y-18339984D01*
X9451477Y-18339984D02*
X9432430Y-18330460D01*
X9432430Y-18330460D02*
X9422906Y-18311412D01*
X9422906Y-18311412D02*
X9422906Y-18235222D01*
X9422906Y-18235222D02*
X9432430Y-18216174D01*
X9432430Y-18216174D02*
X9451477Y-18206650D01*
X9451477Y-18206650D02*
X9489573Y-18206650D01*
X9489573Y-18206650D02*
X9508620Y-18216174D01*
X9508620Y-18216174D02*
X9518144Y-18235222D01*
X9518144Y-18235222D02*
X9518144Y-18254270D01*
X9518144Y-18254270D02*
X9422906Y-18273317D01*
X9594334Y-18330460D02*
X9613382Y-18339984D01*
X9613382Y-18339984D02*
X9651477Y-18339984D01*
X9651477Y-18339984D02*
X9670525Y-18330460D01*
X9670525Y-18330460D02*
X9680049Y-18311412D01*
X9680049Y-18311412D02*
X9680049Y-18301889D01*
X9680049Y-18301889D02*
X9670525Y-18282841D01*
X9670525Y-18282841D02*
X9651477Y-18273317D01*
X9651477Y-18273317D02*
X9622906Y-18273317D01*
X9622906Y-18273317D02*
X9603858Y-18263793D01*
X9603858Y-18263793D02*
X9594334Y-18244746D01*
X9594334Y-18244746D02*
X9594334Y-18235222D01*
X9594334Y-18235222D02*
X9603858Y-18216174D01*
X9603858Y-18216174D02*
X9622906Y-18206650D01*
X9622906Y-18206650D02*
X9651477Y-18206650D01*
X9651477Y-18206650D02*
X9670525Y-18216174D01*
X9746715Y-18416174D02*
X9756239Y-18406650D01*
X9756239Y-18406650D02*
X9775287Y-18378079D01*
X9775287Y-18378079D02*
X9784811Y-18359031D01*
X9784811Y-18359031D02*
X9794334Y-18330460D01*
X9794334Y-18330460D02*
X9803858Y-18282841D01*
X9803858Y-18282841D02*
X9803858Y-18244746D01*
X9803858Y-18244746D02*
X9794334Y-18197127D01*
X9794334Y-18197127D02*
X9784811Y-18168555D01*
X9784811Y-18168555D02*
X9775287Y-18149508D01*
X9775287Y-18149508D02*
X9756239Y-18120936D01*
X9756239Y-18120936D02*
X9746715Y-18111412D01*
X10108620Y-18416174D02*
X10099096Y-18406650D01*
X10099096Y-18406650D02*
X10080049Y-18378079D01*
X10080049Y-18378079D02*
X10070525Y-18359031D01*
X10070525Y-18359031D02*
X10061001Y-18330460D01*
X10061001Y-18330460D02*
X10051477Y-18282841D01*
X10051477Y-18282841D02*
X10051477Y-18244746D01*
X10051477Y-18244746D02*
X10061001Y-18197127D01*
X10061001Y-18197127D02*
X10070525Y-18168555D01*
X10070525Y-18168555D02*
X10080049Y-18149508D01*
X10080049Y-18149508D02*
X10099096Y-18120936D01*
X10099096Y-18120936D02*
X10108620Y-18111412D01*
X10184811Y-18206650D02*
X10184811Y-18339984D01*
X10184811Y-18225698D02*
X10194334Y-18216174D01*
X10194334Y-18216174D02*
X10213382Y-18206650D01*
X10213382Y-18206650D02*
X10241954Y-18206650D01*
X10241954Y-18206650D02*
X10261001Y-18216174D01*
X10261001Y-18216174D02*
X10270525Y-18235222D01*
X10270525Y-18235222D02*
X10270525Y-18339984D01*
X10394334Y-18339984D02*
X10375287Y-18330460D01*
X10375287Y-18330460D02*
X10365763Y-18320936D01*
X10365763Y-18320936D02*
X10356239Y-18301889D01*
X10356239Y-18301889D02*
X10356239Y-18244746D01*
X10356239Y-18244746D02*
X10365763Y-18225698D01*
X10365763Y-18225698D02*
X10375287Y-18216174D01*
X10375287Y-18216174D02*
X10394334Y-18206650D01*
X10394334Y-18206650D02*
X10422906Y-18206650D01*
X10422906Y-18206650D02*
X10441954Y-18216174D01*
X10441954Y-18216174D02*
X10451477Y-18225698D01*
X10451477Y-18225698D02*
X10461001Y-18244746D01*
X10461001Y-18244746D02*
X10461001Y-18301889D01*
X10461001Y-18301889D02*
X10451477Y-18320936D01*
X10451477Y-18320936D02*
X10441954Y-18330460D01*
X10441954Y-18330460D02*
X10422906Y-18339984D01*
X10422906Y-18339984D02*
X10394334Y-18339984D01*
X10518144Y-18206650D02*
X10594334Y-18206650D01*
X10546715Y-18139984D02*
X10546715Y-18311412D01*
X10546715Y-18311412D02*
X10556239Y-18330460D01*
X10556239Y-18330460D02*
X10575287Y-18339984D01*
X10575287Y-18339984D02*
X10594334Y-18339984D01*
X10813382Y-18206650D02*
X10813382Y-18406650D01*
X10813382Y-18216174D02*
X10832430Y-18206650D01*
X10832430Y-18206650D02*
X10870525Y-18206650D01*
X10870525Y-18206650D02*
X10889573Y-18216174D01*
X10889573Y-18216174D02*
X10899096Y-18225698D01*
X10899096Y-18225698D02*
X10908620Y-18244746D01*
X10908620Y-18244746D02*
X10908620Y-18301889D01*
X10908620Y-18301889D02*
X10899096Y-18320936D01*
X10899096Y-18320936D02*
X10889573Y-18330460D01*
X10889573Y-18330460D02*
X10870525Y-18339984D01*
X10870525Y-18339984D02*
X10832430Y-18339984D01*
X10832430Y-18339984D02*
X10813382Y-18330460D01*
X11022906Y-18339984D02*
X11003858Y-18330460D01*
X11003858Y-18330460D02*
X10994335Y-18311412D01*
X10994335Y-18311412D02*
X10994335Y-18139984D01*
X11184811Y-18339984D02*
X11184811Y-18235222D01*
X11184811Y-18235222D02*
X11175287Y-18216174D01*
X11175287Y-18216174D02*
X11156239Y-18206650D01*
X11156239Y-18206650D02*
X11118144Y-18206650D01*
X11118144Y-18206650D02*
X11099096Y-18216174D01*
X11184811Y-18330460D02*
X11165763Y-18339984D01*
X11165763Y-18339984D02*
X11118144Y-18339984D01*
X11118144Y-18339984D02*
X11099096Y-18330460D01*
X11099096Y-18330460D02*
X11089573Y-18311412D01*
X11089573Y-18311412D02*
X11089573Y-18292365D01*
X11089573Y-18292365D02*
X11099096Y-18273317D01*
X11099096Y-18273317D02*
X11118144Y-18263793D01*
X11118144Y-18263793D02*
X11165763Y-18263793D01*
X11165763Y-18263793D02*
X11184811Y-18254270D01*
X11251477Y-18206650D02*
X11327668Y-18206650D01*
X11280049Y-18139984D02*
X11280049Y-18311412D01*
X11280049Y-18311412D02*
X11289573Y-18330460D01*
X11289573Y-18330460D02*
X11308620Y-18339984D01*
X11308620Y-18339984D02*
X11327668Y-18339984D01*
X11470525Y-18330460D02*
X11451477Y-18339984D01*
X11451477Y-18339984D02*
X11413382Y-18339984D01*
X11413382Y-18339984D02*
X11394334Y-18330460D01*
X11394334Y-18330460D02*
X11384811Y-18311412D01*
X11384811Y-18311412D02*
X11384811Y-18235222D01*
X11384811Y-18235222D02*
X11394334Y-18216174D01*
X11394334Y-18216174D02*
X11413382Y-18206650D01*
X11413382Y-18206650D02*
X11451477Y-18206650D01*
X11451477Y-18206650D02*
X11470525Y-18216174D01*
X11470525Y-18216174D02*
X11480049Y-18235222D01*
X11480049Y-18235222D02*
X11480049Y-18254270D01*
X11480049Y-18254270D02*
X11384811Y-18273317D01*
X11651477Y-18339984D02*
X11651477Y-18139984D01*
X11651477Y-18330460D02*
X11632430Y-18339984D01*
X11632430Y-18339984D02*
X11594334Y-18339984D01*
X11594334Y-18339984D02*
X11575287Y-18330460D01*
X11575287Y-18330460D02*
X11565763Y-18320936D01*
X11565763Y-18320936D02*
X11556239Y-18301889D01*
X11556239Y-18301889D02*
X11556239Y-18244746D01*
X11556239Y-18244746D02*
X11565763Y-18225698D01*
X11565763Y-18225698D02*
X11575287Y-18216174D01*
X11575287Y-18216174D02*
X11594334Y-18206650D01*
X11594334Y-18206650D02*
X11632430Y-18206650D01*
X11632430Y-18206650D02*
X11651477Y-18216174D01*
X11727668Y-18416174D02*
X11737192Y-18406650D01*
X11737192Y-18406650D02*
X11756239Y-18378079D01*
X11756239Y-18378079D02*
X11765763Y-18359031D01*
X11765763Y-18359031D02*
X11775287Y-18330460D01*
X11775287Y-18330460D02*
X11784811Y-18282841D01*
X11784811Y-18282841D02*
X11784811Y-18244746D01*
X11784811Y-18244746D02*
X11775287Y-18197127D01*
X11775287Y-18197127D02*
X11765763Y-18168555D01*
X11765763Y-18168555D02*
X11756239Y-18149508D01*
X11756239Y-18149508D02*
X11737192Y-18120936D01*
X11737192Y-18120936D02*
X11727668Y-18111412D01*
X4590700Y-18543500D02*
G75*
G03*
X4590700Y-18543500I-100000J0D01*
G01*
X4832429Y-18434984D02*
X4956239Y-18434984D01*
X4956239Y-18434984D02*
X4889572Y-18511174D01*
X4889572Y-18511174D02*
X4918144Y-18511174D01*
X4918144Y-18511174D02*
X4937191Y-18520698D01*
X4937191Y-18520698D02*
X4946715Y-18530222D01*
X4946715Y-18530222D02*
X4956239Y-18549270D01*
X4956239Y-18549270D02*
X4956239Y-18596889D01*
X4956239Y-18596889D02*
X4946715Y-18615936D01*
X4946715Y-18615936D02*
X4937191Y-18625460D01*
X4937191Y-18625460D02*
X4918144Y-18634984D01*
X4918144Y-18634984D02*
X4861001Y-18634984D01*
X4861001Y-18634984D02*
X4841953Y-18625460D01*
X4841953Y-18625460D02*
X4832429Y-18615936D01*
X5041953Y-18615936D02*
X5051477Y-18625460D01*
X5051477Y-18625460D02*
X5041953Y-18634984D01*
X5041953Y-18634984D02*
X5032429Y-18625460D01*
X5032429Y-18625460D02*
X5041953Y-18615936D01*
X5041953Y-18615936D02*
X5041953Y-18634984D01*
X5175286Y-18434984D02*
X5194334Y-18434984D01*
X5194334Y-18434984D02*
X5213382Y-18444508D01*
X5213382Y-18444508D02*
X5222905Y-18454031D01*
X5222905Y-18454031D02*
X5232429Y-18473079D01*
X5232429Y-18473079D02*
X5241953Y-18511174D01*
X5241953Y-18511174D02*
X5241953Y-18558793D01*
X5241953Y-18558793D02*
X5232429Y-18596889D01*
X5232429Y-18596889D02*
X5222905Y-18615936D01*
X5222905Y-18615936D02*
X5213382Y-18625460D01*
X5213382Y-18625460D02*
X5194334Y-18634984D01*
X5194334Y-18634984D02*
X5175286Y-18634984D01*
X5175286Y-18634984D02*
X5156239Y-18625460D01*
X5156239Y-18625460D02*
X5146715Y-18615936D01*
X5146715Y-18615936D02*
X5137191Y-18596889D01*
X5137191Y-18596889D02*
X5127667Y-18558793D01*
X5127667Y-18558793D02*
X5127667Y-18511174D01*
X5127667Y-18511174D02*
X5137191Y-18473079D01*
X5137191Y-18473079D02*
X5146715Y-18454031D01*
X5146715Y-18454031D02*
X5156239Y-18444508D01*
X5156239Y-18444508D02*
X5175286Y-18434984D01*
X5413382Y-18501650D02*
X5413382Y-18634984D01*
X5365763Y-18425460D02*
X5318144Y-18568317D01*
X5318144Y-18568317D02*
X5441953Y-18568317D01*
X5546715Y-18520698D02*
X5527667Y-18511174D01*
X5527667Y-18511174D02*
X5518144Y-18501650D01*
X5518144Y-18501650D02*
X5508620Y-18482603D01*
X5508620Y-18482603D02*
X5508620Y-18473079D01*
X5508620Y-18473079D02*
X5518144Y-18454031D01*
X5518144Y-18454031D02*
X5527667Y-18444508D01*
X5527667Y-18444508D02*
X5546715Y-18434984D01*
X5546715Y-18434984D02*
X5584810Y-18434984D01*
X5584810Y-18434984D02*
X5603858Y-18444508D01*
X5603858Y-18444508D02*
X5613382Y-18454031D01*
X5613382Y-18454031D02*
X5622905Y-18473079D01*
X5622905Y-18473079D02*
X5622905Y-18482603D01*
X5622905Y-18482603D02*
X5613382Y-18501650D01*
X5613382Y-18501650D02*
X5603858Y-18511174D01*
X5603858Y-18511174D02*
X5584810Y-18520698D01*
X5584810Y-18520698D02*
X5546715Y-18520698D01*
X5546715Y-18520698D02*
X5527667Y-18530222D01*
X5527667Y-18530222D02*
X5518144Y-18539746D01*
X5518144Y-18539746D02*
X5508620Y-18558793D01*
X5508620Y-18558793D02*
X5508620Y-18596889D01*
X5508620Y-18596889D02*
X5518144Y-18615936D01*
X5518144Y-18615936D02*
X5527667Y-18625460D01*
X5527667Y-18625460D02*
X5546715Y-18634984D01*
X5546715Y-18634984D02*
X5584810Y-18634984D01*
X5584810Y-18634984D02*
X5603858Y-18625460D01*
X5603858Y-18625460D02*
X5613382Y-18615936D01*
X5613382Y-18615936D02*
X5622905Y-18596889D01*
X5622905Y-18596889D02*
X5622905Y-18558793D01*
X5622905Y-18558793D02*
X5613382Y-18539746D01*
X5613382Y-18539746D02*
X5603858Y-18530222D01*
X5603858Y-18530222D02*
X5584810Y-18520698D01*
X5708620Y-18634984D02*
X5708620Y-18501650D01*
X5708620Y-18520698D02*
X5718143Y-18511174D01*
X5718143Y-18511174D02*
X5737191Y-18501650D01*
X5737191Y-18501650D02*
X5765763Y-18501650D01*
X5765763Y-18501650D02*
X5784810Y-18511174D01*
X5784810Y-18511174D02*
X5794334Y-18530222D01*
X5794334Y-18530222D02*
X5794334Y-18634984D01*
X5794334Y-18530222D02*
X5803858Y-18511174D01*
X5803858Y-18511174D02*
X5822905Y-18501650D01*
X5822905Y-18501650D02*
X5851477Y-18501650D01*
X5851477Y-18501650D02*
X5870524Y-18511174D01*
X5870524Y-18511174D02*
X5880048Y-18530222D01*
X5880048Y-18530222D02*
X5880048Y-18634984D01*
X5975286Y-18634984D02*
X5975286Y-18501650D01*
X5975286Y-18520698D02*
X5984810Y-18511174D01*
X5984810Y-18511174D02*
X6003858Y-18501650D01*
X6003858Y-18501650D02*
X6032429Y-18501650D01*
X6032429Y-18501650D02*
X6051477Y-18511174D01*
X6051477Y-18511174D02*
X6061001Y-18530222D01*
X6061001Y-18530222D02*
X6061001Y-18634984D01*
X6061001Y-18530222D02*
X6070524Y-18511174D01*
X6070524Y-18511174D02*
X6089572Y-18501650D01*
X6089572Y-18501650D02*
X6118143Y-18501650D01*
X6118143Y-18501650D02*
X6137191Y-18511174D01*
X6137191Y-18511174D02*
X6146715Y-18530222D01*
X6146715Y-18530222D02*
X6146715Y-18634984D01*
X6537191Y-18425460D02*
X6365763Y-18682603D01*
X6794334Y-18434984D02*
X6813382Y-18434984D01*
X6813382Y-18434984D02*
X6832429Y-18444508D01*
X6832429Y-18444508D02*
X6841953Y-18454031D01*
X6841953Y-18454031D02*
X6851477Y-18473079D01*
X6851477Y-18473079D02*
X6861001Y-18511174D01*
X6861001Y-18511174D02*
X6861001Y-18558793D01*
X6861001Y-18558793D02*
X6851477Y-18596889D01*
X6851477Y-18596889D02*
X6841953Y-18615936D01*
X6841953Y-18615936D02*
X6832429Y-18625460D01*
X6832429Y-18625460D02*
X6813382Y-18634984D01*
X6813382Y-18634984D02*
X6794334Y-18634984D01*
X6794334Y-18634984D02*
X6775286Y-18625460D01*
X6775286Y-18625460D02*
X6765763Y-18615936D01*
X6765763Y-18615936D02*
X6756239Y-18596889D01*
X6756239Y-18596889D02*
X6746715Y-18558793D01*
X6746715Y-18558793D02*
X6746715Y-18511174D01*
X6746715Y-18511174D02*
X6756239Y-18473079D01*
X6756239Y-18473079D02*
X6765763Y-18454031D01*
X6765763Y-18454031D02*
X6775286Y-18444508D01*
X6775286Y-18444508D02*
X6794334Y-18434984D01*
X6946715Y-18615936D02*
X6956239Y-18625460D01*
X6956239Y-18625460D02*
X6946715Y-18634984D01*
X6946715Y-18634984D02*
X6937191Y-18625460D01*
X6937191Y-18625460D02*
X6946715Y-18615936D01*
X6946715Y-18615936D02*
X6946715Y-18634984D01*
X7146715Y-18634984D02*
X7032429Y-18634984D01*
X7089572Y-18634984D02*
X7089572Y-18434984D01*
X7089572Y-18434984D02*
X7070525Y-18463555D01*
X7070525Y-18463555D02*
X7051477Y-18482603D01*
X7051477Y-18482603D02*
X7032429Y-18492127D01*
X7222906Y-18454031D02*
X7232429Y-18444508D01*
X7232429Y-18444508D02*
X7251477Y-18434984D01*
X7251477Y-18434984D02*
X7299096Y-18434984D01*
X7299096Y-18434984D02*
X7318144Y-18444508D01*
X7318144Y-18444508D02*
X7327667Y-18454031D01*
X7327667Y-18454031D02*
X7337191Y-18473079D01*
X7337191Y-18473079D02*
X7337191Y-18492127D01*
X7337191Y-18492127D02*
X7327667Y-18520698D01*
X7327667Y-18520698D02*
X7213382Y-18634984D01*
X7213382Y-18634984D02*
X7337191Y-18634984D01*
X7461001Y-18434984D02*
X7480048Y-18434984D01*
X7480048Y-18434984D02*
X7499096Y-18444508D01*
X7499096Y-18444508D02*
X7508620Y-18454031D01*
X7508620Y-18454031D02*
X7518144Y-18473079D01*
X7518144Y-18473079D02*
X7527667Y-18511174D01*
X7527667Y-18511174D02*
X7527667Y-18558793D01*
X7527667Y-18558793D02*
X7518144Y-18596889D01*
X7518144Y-18596889D02*
X7508620Y-18615936D01*
X7508620Y-18615936D02*
X7499096Y-18625460D01*
X7499096Y-18625460D02*
X7480048Y-18634984D01*
X7480048Y-18634984D02*
X7461001Y-18634984D01*
X7461001Y-18634984D02*
X7441953Y-18625460D01*
X7441953Y-18625460D02*
X7432429Y-18615936D01*
X7432429Y-18615936D02*
X7422906Y-18596889D01*
X7422906Y-18596889D02*
X7413382Y-18558793D01*
X7413382Y-18558793D02*
X7413382Y-18511174D01*
X7413382Y-18511174D02*
X7422906Y-18473079D01*
X7422906Y-18473079D02*
X7432429Y-18454031D01*
X7432429Y-18454031D02*
X7441953Y-18444508D01*
X7441953Y-18444508D02*
X7461001Y-18434984D01*
X7651477Y-18434984D02*
X7670525Y-18434984D01*
X7670525Y-18434984D02*
X7689572Y-18444508D01*
X7689572Y-18444508D02*
X7699096Y-18454031D01*
X7699096Y-18454031D02*
X7708620Y-18473079D01*
X7708620Y-18473079D02*
X7718144Y-18511174D01*
X7718144Y-18511174D02*
X7718144Y-18558793D01*
X7718144Y-18558793D02*
X7708620Y-18596889D01*
X7708620Y-18596889D02*
X7699096Y-18615936D01*
X7699096Y-18615936D02*
X7689572Y-18625460D01*
X7689572Y-18625460D02*
X7670525Y-18634984D01*
X7670525Y-18634984D02*
X7651477Y-18634984D01*
X7651477Y-18634984D02*
X7632429Y-18625460D01*
X7632429Y-18625460D02*
X7622906Y-18615936D01*
X7622906Y-18615936D02*
X7613382Y-18596889D01*
X7613382Y-18596889D02*
X7603858Y-18558793D01*
X7603858Y-18558793D02*
X7603858Y-18511174D01*
X7603858Y-18511174D02*
X7613382Y-18473079D01*
X7613382Y-18473079D02*
X7622906Y-18454031D01*
X7622906Y-18454031D02*
X7632429Y-18444508D01*
X7632429Y-18444508D02*
X7651477Y-18434984D01*
X7794334Y-18434984D02*
X7794334Y-18473079D01*
X7870525Y-18434984D02*
X7870525Y-18473079D01*
X8165763Y-18711174D02*
X8156239Y-18701650D01*
X8156239Y-18701650D02*
X8137191Y-18673079D01*
X8137191Y-18673079D02*
X8127668Y-18654031D01*
X8127668Y-18654031D02*
X8118144Y-18625460D01*
X8118144Y-18625460D02*
X8108620Y-18577841D01*
X8108620Y-18577841D02*
X8108620Y-18539746D01*
X8108620Y-18539746D02*
X8118144Y-18492127D01*
X8118144Y-18492127D02*
X8127668Y-18463555D01*
X8127668Y-18463555D02*
X8137191Y-18444508D01*
X8137191Y-18444508D02*
X8156239Y-18415936D01*
X8156239Y-18415936D02*
X8165763Y-18406412D01*
X8346715Y-18634984D02*
X8232429Y-18634984D01*
X8289572Y-18634984D02*
X8289572Y-18434984D01*
X8289572Y-18434984D02*
X8270525Y-18463555D01*
X8270525Y-18463555D02*
X8251477Y-18482603D01*
X8251477Y-18482603D02*
X8232429Y-18492127D01*
X8470525Y-18434984D02*
X8489572Y-18434984D01*
X8489572Y-18434984D02*
X8508620Y-18444508D01*
X8508620Y-18444508D02*
X8518144Y-18454031D01*
X8518144Y-18454031D02*
X8527668Y-18473079D01*
X8527668Y-18473079D02*
X8537191Y-18511174D01*
X8537191Y-18511174D02*
X8537191Y-18558793D01*
X8537191Y-18558793D02*
X8527668Y-18596889D01*
X8527668Y-18596889D02*
X8518144Y-18615936D01*
X8518144Y-18615936D02*
X8508620Y-18625460D01*
X8508620Y-18625460D02*
X8489572Y-18634984D01*
X8489572Y-18634984D02*
X8470525Y-18634984D01*
X8470525Y-18634984D02*
X8451477Y-18625460D01*
X8451477Y-18625460D02*
X8441953Y-18615936D01*
X8441953Y-18615936D02*
X8432430Y-18596889D01*
X8432430Y-18596889D02*
X8422906Y-18558793D01*
X8422906Y-18558793D02*
X8422906Y-18511174D01*
X8422906Y-18511174D02*
X8432430Y-18473079D01*
X8432430Y-18473079D02*
X8441953Y-18454031D01*
X8441953Y-18454031D02*
X8451477Y-18444508D01*
X8451477Y-18444508D02*
X8470525Y-18434984D01*
X8775287Y-18634984D02*
X8775287Y-18434984D01*
X8861001Y-18634984D02*
X8861001Y-18530222D01*
X8861001Y-18530222D02*
X8851477Y-18511174D01*
X8851477Y-18511174D02*
X8832430Y-18501650D01*
X8832430Y-18501650D02*
X8803858Y-18501650D01*
X8803858Y-18501650D02*
X8784811Y-18511174D01*
X8784811Y-18511174D02*
X8775287Y-18520698D01*
X8984811Y-18634984D02*
X8965763Y-18625460D01*
X8965763Y-18625460D02*
X8956239Y-18615936D01*
X8956239Y-18615936D02*
X8946715Y-18596889D01*
X8946715Y-18596889D02*
X8946715Y-18539746D01*
X8946715Y-18539746D02*
X8956239Y-18520698D01*
X8956239Y-18520698D02*
X8965763Y-18511174D01*
X8965763Y-18511174D02*
X8984811Y-18501650D01*
X8984811Y-18501650D02*
X9013382Y-18501650D01*
X9013382Y-18501650D02*
X9032430Y-18511174D01*
X9032430Y-18511174D02*
X9041953Y-18520698D01*
X9041953Y-18520698D02*
X9051477Y-18539746D01*
X9051477Y-18539746D02*
X9051477Y-18596889D01*
X9051477Y-18596889D02*
X9041953Y-18615936D01*
X9041953Y-18615936D02*
X9032430Y-18625460D01*
X9032430Y-18625460D02*
X9013382Y-18634984D01*
X9013382Y-18634984D02*
X8984811Y-18634984D01*
X9165763Y-18634984D02*
X9146715Y-18625460D01*
X9146715Y-18625460D02*
X9137192Y-18606412D01*
X9137192Y-18606412D02*
X9137192Y-18434984D01*
X9318144Y-18625460D02*
X9299096Y-18634984D01*
X9299096Y-18634984D02*
X9261001Y-18634984D01*
X9261001Y-18634984D02*
X9241953Y-18625460D01*
X9241953Y-18625460D02*
X9232430Y-18606412D01*
X9232430Y-18606412D02*
X9232430Y-18530222D01*
X9232430Y-18530222D02*
X9241953Y-18511174D01*
X9241953Y-18511174D02*
X9261001Y-18501650D01*
X9261001Y-18501650D02*
X9299096Y-18501650D01*
X9299096Y-18501650D02*
X9318144Y-18511174D01*
X9318144Y-18511174D02*
X9327668Y-18530222D01*
X9327668Y-18530222D02*
X9327668Y-18549270D01*
X9327668Y-18549270D02*
X9232430Y-18568317D01*
X9403858Y-18625460D02*
X9422906Y-18634984D01*
X9422906Y-18634984D02*
X9461001Y-18634984D01*
X9461001Y-18634984D02*
X9480049Y-18625460D01*
X9480049Y-18625460D02*
X9489573Y-18606412D01*
X9489573Y-18606412D02*
X9489573Y-18596889D01*
X9489573Y-18596889D02*
X9480049Y-18577841D01*
X9480049Y-18577841D02*
X9461001Y-18568317D01*
X9461001Y-18568317D02*
X9432430Y-18568317D01*
X9432430Y-18568317D02*
X9413382Y-18558793D01*
X9413382Y-18558793D02*
X9403858Y-18539746D01*
X9403858Y-18539746D02*
X9403858Y-18530222D01*
X9403858Y-18530222D02*
X9413382Y-18511174D01*
X9413382Y-18511174D02*
X9432430Y-18501650D01*
X9432430Y-18501650D02*
X9461001Y-18501650D01*
X9461001Y-18501650D02*
X9480049Y-18511174D01*
X9556239Y-18711174D02*
X9565763Y-18701650D01*
X9565763Y-18701650D02*
X9584811Y-18673079D01*
X9584811Y-18673079D02*
X9594334Y-18654031D01*
X9594334Y-18654031D02*
X9603858Y-18625460D01*
X9603858Y-18625460D02*
X9613382Y-18577841D01*
X9613382Y-18577841D02*
X9613382Y-18539746D01*
X9613382Y-18539746D02*
X9603858Y-18492127D01*
X9603858Y-18492127D02*
X9594334Y-18463555D01*
X9594334Y-18463555D02*
X9584811Y-18444508D01*
X9584811Y-18444508D02*
X9565763Y-18415936D01*
X9565763Y-18415936D02*
X9556239Y-18406412D01*
X9918144Y-18711174D02*
X9908620Y-18701650D01*
X9908620Y-18701650D02*
X9889573Y-18673079D01*
X9889573Y-18673079D02*
X9880049Y-18654031D01*
X9880049Y-18654031D02*
X9870525Y-18625460D01*
X9870525Y-18625460D02*
X9861001Y-18577841D01*
X9861001Y-18577841D02*
X9861001Y-18539746D01*
X9861001Y-18539746D02*
X9870525Y-18492127D01*
X9870525Y-18492127D02*
X9880049Y-18463555D01*
X9880049Y-18463555D02*
X9889573Y-18444508D01*
X9889573Y-18444508D02*
X9908620Y-18415936D01*
X9908620Y-18415936D02*
X9918144Y-18406412D01*
X9994334Y-18501650D02*
X9994334Y-18634984D01*
X9994334Y-18520698D02*
X10003858Y-18511174D01*
X10003858Y-18511174D02*
X10022906Y-18501650D01*
X10022906Y-18501650D02*
X10051477Y-18501650D01*
X10051477Y-18501650D02*
X10070525Y-18511174D01*
X10070525Y-18511174D02*
X10080049Y-18530222D01*
X10080049Y-18530222D02*
X10080049Y-18634984D01*
X10203858Y-18634984D02*
X10184811Y-18625460D01*
X10184811Y-18625460D02*
X10175287Y-18615936D01*
X10175287Y-18615936D02*
X10165763Y-18596889D01*
X10165763Y-18596889D02*
X10165763Y-18539746D01*
X10165763Y-18539746D02*
X10175287Y-18520698D01*
X10175287Y-18520698D02*
X10184811Y-18511174D01*
X10184811Y-18511174D02*
X10203858Y-18501650D01*
X10203858Y-18501650D02*
X10232430Y-18501650D01*
X10232430Y-18501650D02*
X10251477Y-18511174D01*
X10251477Y-18511174D02*
X10261001Y-18520698D01*
X10261001Y-18520698D02*
X10270525Y-18539746D01*
X10270525Y-18539746D02*
X10270525Y-18596889D01*
X10270525Y-18596889D02*
X10261001Y-18615936D01*
X10261001Y-18615936D02*
X10251477Y-18625460D01*
X10251477Y-18625460D02*
X10232430Y-18634984D01*
X10232430Y-18634984D02*
X10203858Y-18634984D01*
X10327668Y-18501650D02*
X10403858Y-18501650D01*
X10356239Y-18434984D02*
X10356239Y-18606412D01*
X10356239Y-18606412D02*
X10365763Y-18625460D01*
X10365763Y-18625460D02*
X10384811Y-18634984D01*
X10384811Y-18634984D02*
X10403858Y-18634984D01*
X10622906Y-18501650D02*
X10622906Y-18701650D01*
X10622906Y-18511174D02*
X10641954Y-18501650D01*
X10641954Y-18501650D02*
X10680049Y-18501650D01*
X10680049Y-18501650D02*
X10699096Y-18511174D01*
X10699096Y-18511174D02*
X10708620Y-18520698D01*
X10708620Y-18520698D02*
X10718144Y-18539746D01*
X10718144Y-18539746D02*
X10718144Y-18596889D01*
X10718144Y-18596889D02*
X10708620Y-18615936D01*
X10708620Y-18615936D02*
X10699096Y-18625460D01*
X10699096Y-18625460D02*
X10680049Y-18634984D01*
X10680049Y-18634984D02*
X10641954Y-18634984D01*
X10641954Y-18634984D02*
X10622906Y-18625460D01*
X10832430Y-18634984D02*
X10813382Y-18625460D01*
X10813382Y-18625460D02*
X10803858Y-18606412D01*
X10803858Y-18606412D02*
X10803858Y-18434984D01*
X10994335Y-18634984D02*
X10994335Y-18530222D01*
X10994335Y-18530222D02*
X10984811Y-18511174D01*
X10984811Y-18511174D02*
X10965763Y-18501650D01*
X10965763Y-18501650D02*
X10927668Y-18501650D01*
X10927668Y-18501650D02*
X10908620Y-18511174D01*
X10994335Y-18625460D02*
X10975287Y-18634984D01*
X10975287Y-18634984D02*
X10927668Y-18634984D01*
X10927668Y-18634984D02*
X10908620Y-18625460D01*
X10908620Y-18625460D02*
X10899096Y-18606412D01*
X10899096Y-18606412D02*
X10899096Y-18587365D01*
X10899096Y-18587365D02*
X10908620Y-18568317D01*
X10908620Y-18568317D02*
X10927668Y-18558793D01*
X10927668Y-18558793D02*
X10975287Y-18558793D01*
X10975287Y-18558793D02*
X10994335Y-18549270D01*
X11061001Y-18501650D02*
X11137192Y-18501650D01*
X11089573Y-18434984D02*
X11089573Y-18606412D01*
X11089573Y-18606412D02*
X11099096Y-18625460D01*
X11099096Y-18625460D02*
X11118144Y-18634984D01*
X11118144Y-18634984D02*
X11137192Y-18634984D01*
X11280049Y-18625460D02*
X11261001Y-18634984D01*
X11261001Y-18634984D02*
X11222906Y-18634984D01*
X11222906Y-18634984D02*
X11203858Y-18625460D01*
X11203858Y-18625460D02*
X11194334Y-18606412D01*
X11194334Y-18606412D02*
X11194334Y-18530222D01*
X11194334Y-18530222D02*
X11203858Y-18511174D01*
X11203858Y-18511174D02*
X11222906Y-18501650D01*
X11222906Y-18501650D02*
X11261001Y-18501650D01*
X11261001Y-18501650D02*
X11280049Y-18511174D01*
X11280049Y-18511174D02*
X11289573Y-18530222D01*
X11289573Y-18530222D02*
X11289573Y-18549270D01*
X11289573Y-18549270D02*
X11194334Y-18568317D01*
X11461001Y-18634984D02*
X11461001Y-18434984D01*
X11461001Y-18625460D02*
X11441954Y-18634984D01*
X11441954Y-18634984D02*
X11403858Y-18634984D01*
X11403858Y-18634984D02*
X11384811Y-18625460D01*
X11384811Y-18625460D02*
X11375287Y-18615936D01*
X11375287Y-18615936D02*
X11365763Y-18596889D01*
X11365763Y-18596889D02*
X11365763Y-18539746D01*
X11365763Y-18539746D02*
X11375287Y-18520698D01*
X11375287Y-18520698D02*
X11384811Y-18511174D01*
X11384811Y-18511174D02*
X11403858Y-18501650D01*
X11403858Y-18501650D02*
X11441954Y-18501650D01*
X11441954Y-18501650D02*
X11461001Y-18511174D01*
X11537192Y-18711174D02*
X11546715Y-18701650D01*
X11546715Y-18701650D02*
X11565763Y-18673079D01*
X11565763Y-18673079D02*
X11575287Y-18654031D01*
X11575287Y-18654031D02*
X11584811Y-18625460D01*
X11584811Y-18625460D02*
X11594334Y-18577841D01*
X11594334Y-18577841D02*
X11594334Y-18539746D01*
X11594334Y-18539746D02*
X11584811Y-18492127D01*
X11584811Y-18492127D02*
X11575287Y-18463555D01*
X11575287Y-18463555D02*
X11565763Y-18444508D01*
X11565763Y-18444508D02*
X11546715Y-18415936D01*
X11546715Y-18415936D02*
X11537192Y-18406412D01*
X4490700Y-18763500D02*
X4490700Y-18963500D01*
X4390700Y-18863500D02*
X4590700Y-18863500D01*
X4832429Y-18754984D02*
X4956239Y-18754984D01*
X4956239Y-18754984D02*
X4889572Y-18831174D01*
X4889572Y-18831174D02*
X4918144Y-18831174D01*
X4918144Y-18831174D02*
X4937191Y-18840698D01*
X4937191Y-18840698D02*
X4946715Y-18850222D01*
X4946715Y-18850222D02*
X4956239Y-18869270D01*
X4956239Y-18869270D02*
X4956239Y-18916889D01*
X4956239Y-18916889D02*
X4946715Y-18935936D01*
X4946715Y-18935936D02*
X4937191Y-18945460D01*
X4937191Y-18945460D02*
X4918144Y-18954984D01*
X4918144Y-18954984D02*
X4861001Y-18954984D01*
X4861001Y-18954984D02*
X4841953Y-18945460D01*
X4841953Y-18945460D02*
X4832429Y-18935936D01*
X5041953Y-18935936D02*
X5051477Y-18945460D01*
X5051477Y-18945460D02*
X5041953Y-18954984D01*
X5041953Y-18954984D02*
X5032429Y-18945460D01*
X5032429Y-18945460D02*
X5041953Y-18935936D01*
X5041953Y-18935936D02*
X5041953Y-18954984D01*
X5232429Y-18754984D02*
X5137191Y-18754984D01*
X5137191Y-18754984D02*
X5127667Y-18850222D01*
X5127667Y-18850222D02*
X5137191Y-18840698D01*
X5137191Y-18840698D02*
X5156239Y-18831174D01*
X5156239Y-18831174D02*
X5203858Y-18831174D01*
X5203858Y-18831174D02*
X5222905Y-18840698D01*
X5222905Y-18840698D02*
X5232429Y-18850222D01*
X5232429Y-18850222D02*
X5241953Y-18869270D01*
X5241953Y-18869270D02*
X5241953Y-18916889D01*
X5241953Y-18916889D02*
X5232429Y-18935936D01*
X5232429Y-18935936D02*
X5222905Y-18945460D01*
X5222905Y-18945460D02*
X5203858Y-18954984D01*
X5203858Y-18954984D02*
X5156239Y-18954984D01*
X5156239Y-18954984D02*
X5137191Y-18945460D01*
X5137191Y-18945460D02*
X5127667Y-18935936D01*
X5365763Y-18754984D02*
X5384810Y-18754984D01*
X5384810Y-18754984D02*
X5403858Y-18764508D01*
X5403858Y-18764508D02*
X5413382Y-18774031D01*
X5413382Y-18774031D02*
X5422905Y-18793079D01*
X5422905Y-18793079D02*
X5432429Y-18831174D01*
X5432429Y-18831174D02*
X5432429Y-18878793D01*
X5432429Y-18878793D02*
X5422905Y-18916889D01*
X5422905Y-18916889D02*
X5413382Y-18935936D01*
X5413382Y-18935936D02*
X5403858Y-18945460D01*
X5403858Y-18945460D02*
X5384810Y-18954984D01*
X5384810Y-18954984D02*
X5365763Y-18954984D01*
X5365763Y-18954984D02*
X5346715Y-18945460D01*
X5346715Y-18945460D02*
X5337191Y-18935936D01*
X5337191Y-18935936D02*
X5327667Y-18916889D01*
X5327667Y-18916889D02*
X5318144Y-18878793D01*
X5318144Y-18878793D02*
X5318144Y-18831174D01*
X5318144Y-18831174D02*
X5327667Y-18793079D01*
X5327667Y-18793079D02*
X5337191Y-18774031D01*
X5337191Y-18774031D02*
X5346715Y-18764508D01*
X5346715Y-18764508D02*
X5365763Y-18754984D01*
X5556239Y-18754984D02*
X5575286Y-18754984D01*
X5575286Y-18754984D02*
X5594334Y-18764508D01*
X5594334Y-18764508D02*
X5603858Y-18774031D01*
X5603858Y-18774031D02*
X5613382Y-18793079D01*
X5613382Y-18793079D02*
X5622905Y-18831174D01*
X5622905Y-18831174D02*
X5622905Y-18878793D01*
X5622905Y-18878793D02*
X5613382Y-18916889D01*
X5613382Y-18916889D02*
X5603858Y-18935936D01*
X5603858Y-18935936D02*
X5594334Y-18945460D01*
X5594334Y-18945460D02*
X5575286Y-18954984D01*
X5575286Y-18954984D02*
X5556239Y-18954984D01*
X5556239Y-18954984D02*
X5537191Y-18945460D01*
X5537191Y-18945460D02*
X5527667Y-18935936D01*
X5527667Y-18935936D02*
X5518144Y-18916889D01*
X5518144Y-18916889D02*
X5508620Y-18878793D01*
X5508620Y-18878793D02*
X5508620Y-18831174D01*
X5508620Y-18831174D02*
X5518144Y-18793079D01*
X5518144Y-18793079D02*
X5527667Y-18774031D01*
X5527667Y-18774031D02*
X5537191Y-18764508D01*
X5537191Y-18764508D02*
X5556239Y-18754984D01*
X5708620Y-18954984D02*
X5708620Y-18821650D01*
X5708620Y-18840698D02*
X5718143Y-18831174D01*
X5718143Y-18831174D02*
X5737191Y-18821650D01*
X5737191Y-18821650D02*
X5765763Y-18821650D01*
X5765763Y-18821650D02*
X5784810Y-18831174D01*
X5784810Y-18831174D02*
X5794334Y-18850222D01*
X5794334Y-18850222D02*
X5794334Y-18954984D01*
X5794334Y-18850222D02*
X5803858Y-18831174D01*
X5803858Y-18831174D02*
X5822905Y-18821650D01*
X5822905Y-18821650D02*
X5851477Y-18821650D01*
X5851477Y-18821650D02*
X5870524Y-18831174D01*
X5870524Y-18831174D02*
X5880048Y-18850222D01*
X5880048Y-18850222D02*
X5880048Y-18954984D01*
X5975286Y-18954984D02*
X5975286Y-18821650D01*
X5975286Y-18840698D02*
X5984810Y-18831174D01*
X5984810Y-18831174D02*
X6003858Y-18821650D01*
X6003858Y-18821650D02*
X6032429Y-18821650D01*
X6032429Y-18821650D02*
X6051477Y-18831174D01*
X6051477Y-18831174D02*
X6061001Y-18850222D01*
X6061001Y-18850222D02*
X6061001Y-18954984D01*
X6061001Y-18850222D02*
X6070524Y-18831174D01*
X6070524Y-18831174D02*
X6089572Y-18821650D01*
X6089572Y-18821650D02*
X6118143Y-18821650D01*
X6118143Y-18821650D02*
X6137191Y-18831174D01*
X6137191Y-18831174D02*
X6146715Y-18850222D01*
X6146715Y-18850222D02*
X6146715Y-18954984D01*
X6537191Y-18745460D02*
X6365763Y-19002603D01*
X6794334Y-18754984D02*
X6813382Y-18754984D01*
X6813382Y-18754984D02*
X6832429Y-18764508D01*
X6832429Y-18764508D02*
X6841953Y-18774031D01*
X6841953Y-18774031D02*
X6851477Y-18793079D01*
X6851477Y-18793079D02*
X6861001Y-18831174D01*
X6861001Y-18831174D02*
X6861001Y-18878793D01*
X6861001Y-18878793D02*
X6851477Y-18916889D01*
X6851477Y-18916889D02*
X6841953Y-18935936D01*
X6841953Y-18935936D02*
X6832429Y-18945460D01*
X6832429Y-18945460D02*
X6813382Y-18954984D01*
X6813382Y-18954984D02*
X6794334Y-18954984D01*
X6794334Y-18954984D02*
X6775286Y-18945460D01*
X6775286Y-18945460D02*
X6765763Y-18935936D01*
X6765763Y-18935936D02*
X6756239Y-18916889D01*
X6756239Y-18916889D02*
X6746715Y-18878793D01*
X6746715Y-18878793D02*
X6746715Y-18831174D01*
X6746715Y-18831174D02*
X6756239Y-18793079D01*
X6756239Y-18793079D02*
X6765763Y-18774031D01*
X6765763Y-18774031D02*
X6775286Y-18764508D01*
X6775286Y-18764508D02*
X6794334Y-18754984D01*
X6946715Y-18935936D02*
X6956239Y-18945460D01*
X6956239Y-18945460D02*
X6946715Y-18954984D01*
X6946715Y-18954984D02*
X6937191Y-18945460D01*
X6937191Y-18945460D02*
X6946715Y-18935936D01*
X6946715Y-18935936D02*
X6946715Y-18954984D01*
X7146715Y-18954984D02*
X7032429Y-18954984D01*
X7089572Y-18954984D02*
X7089572Y-18754984D01*
X7089572Y-18754984D02*
X7070525Y-18783555D01*
X7070525Y-18783555D02*
X7051477Y-18802603D01*
X7051477Y-18802603D02*
X7032429Y-18812127D01*
X7213382Y-18754984D02*
X7337191Y-18754984D01*
X7337191Y-18754984D02*
X7270525Y-18831174D01*
X7270525Y-18831174D02*
X7299096Y-18831174D01*
X7299096Y-18831174D02*
X7318144Y-18840698D01*
X7318144Y-18840698D02*
X7327667Y-18850222D01*
X7327667Y-18850222D02*
X7337191Y-18869270D01*
X7337191Y-18869270D02*
X7337191Y-18916889D01*
X7337191Y-18916889D02*
X7327667Y-18935936D01*
X7327667Y-18935936D02*
X7318144Y-18945460D01*
X7318144Y-18945460D02*
X7299096Y-18954984D01*
X7299096Y-18954984D02*
X7241953Y-18954984D01*
X7241953Y-18954984D02*
X7222906Y-18945460D01*
X7222906Y-18945460D02*
X7213382Y-18935936D01*
X7403858Y-18754984D02*
X7537191Y-18754984D01*
X7537191Y-18754984D02*
X7451477Y-18954984D01*
X7641953Y-18840698D02*
X7622906Y-18831174D01*
X7622906Y-18831174D02*
X7613382Y-18821650D01*
X7613382Y-18821650D02*
X7603858Y-18802603D01*
X7603858Y-18802603D02*
X7603858Y-18793079D01*
X7603858Y-18793079D02*
X7613382Y-18774031D01*
X7613382Y-18774031D02*
X7622906Y-18764508D01*
X7622906Y-18764508D02*
X7641953Y-18754984D01*
X7641953Y-18754984D02*
X7680048Y-18754984D01*
X7680048Y-18754984D02*
X7699096Y-18764508D01*
X7699096Y-18764508D02*
X7708620Y-18774031D01*
X7708620Y-18774031D02*
X7718144Y-18793079D01*
X7718144Y-18793079D02*
X7718144Y-18802603D01*
X7718144Y-18802603D02*
X7708620Y-18821650D01*
X7708620Y-18821650D02*
X7699096Y-18831174D01*
X7699096Y-18831174D02*
X7680048Y-18840698D01*
X7680048Y-18840698D02*
X7641953Y-18840698D01*
X7641953Y-18840698D02*
X7622906Y-18850222D01*
X7622906Y-18850222D02*
X7613382Y-18859746D01*
X7613382Y-18859746D02*
X7603858Y-18878793D01*
X7603858Y-18878793D02*
X7603858Y-18916889D01*
X7603858Y-18916889D02*
X7613382Y-18935936D01*
X7613382Y-18935936D02*
X7622906Y-18945460D01*
X7622906Y-18945460D02*
X7641953Y-18954984D01*
X7641953Y-18954984D02*
X7680048Y-18954984D01*
X7680048Y-18954984D02*
X7699096Y-18945460D01*
X7699096Y-18945460D02*
X7708620Y-18935936D01*
X7708620Y-18935936D02*
X7718144Y-18916889D01*
X7718144Y-18916889D02*
X7718144Y-18878793D01*
X7718144Y-18878793D02*
X7708620Y-18859746D01*
X7708620Y-18859746D02*
X7699096Y-18850222D01*
X7699096Y-18850222D02*
X7680048Y-18840698D01*
X7794334Y-18754984D02*
X7794334Y-18793079D01*
X7870525Y-18754984D02*
X7870525Y-18793079D01*
X8165763Y-19031174D02*
X8156239Y-19021650D01*
X8156239Y-19021650D02*
X8137191Y-18993079D01*
X8137191Y-18993079D02*
X8127668Y-18974031D01*
X8127668Y-18974031D02*
X8118144Y-18945460D01*
X8118144Y-18945460D02*
X8108620Y-18897841D01*
X8108620Y-18897841D02*
X8108620Y-18859746D01*
X8108620Y-18859746D02*
X8118144Y-18812127D01*
X8118144Y-18812127D02*
X8127668Y-18783555D01*
X8127668Y-18783555D02*
X8137191Y-18764508D01*
X8137191Y-18764508D02*
X8156239Y-18735936D01*
X8156239Y-18735936D02*
X8165763Y-18726412D01*
X8337191Y-18754984D02*
X8241953Y-18754984D01*
X8241953Y-18754984D02*
X8232429Y-18850222D01*
X8232429Y-18850222D02*
X8241953Y-18840698D01*
X8241953Y-18840698D02*
X8261001Y-18831174D01*
X8261001Y-18831174D02*
X8308620Y-18831174D01*
X8308620Y-18831174D02*
X8327668Y-18840698D01*
X8327668Y-18840698D02*
X8337191Y-18850222D01*
X8337191Y-18850222D02*
X8346715Y-18869270D01*
X8346715Y-18869270D02*
X8346715Y-18916889D01*
X8346715Y-18916889D02*
X8337191Y-18935936D01*
X8337191Y-18935936D02*
X8327668Y-18945460D01*
X8327668Y-18945460D02*
X8308620Y-18954984D01*
X8308620Y-18954984D02*
X8261001Y-18954984D01*
X8261001Y-18954984D02*
X8241953Y-18945460D01*
X8241953Y-18945460D02*
X8232429Y-18935936D01*
X8584811Y-18954984D02*
X8584811Y-18754984D01*
X8670525Y-18954984D02*
X8670525Y-18850222D01*
X8670525Y-18850222D02*
X8661001Y-18831174D01*
X8661001Y-18831174D02*
X8641953Y-18821650D01*
X8641953Y-18821650D02*
X8613382Y-18821650D01*
X8613382Y-18821650D02*
X8594334Y-18831174D01*
X8594334Y-18831174D02*
X8584811Y-18840698D01*
X8794334Y-18954984D02*
X8775287Y-18945460D01*
X8775287Y-18945460D02*
X8765763Y-18935936D01*
X8765763Y-18935936D02*
X8756239Y-18916889D01*
X8756239Y-18916889D02*
X8756239Y-18859746D01*
X8756239Y-18859746D02*
X8765763Y-18840698D01*
X8765763Y-18840698D02*
X8775287Y-18831174D01*
X8775287Y-18831174D02*
X8794334Y-18821650D01*
X8794334Y-18821650D02*
X8822906Y-18821650D01*
X8822906Y-18821650D02*
X8841953Y-18831174D01*
X8841953Y-18831174D02*
X8851477Y-18840698D01*
X8851477Y-18840698D02*
X8861001Y-18859746D01*
X8861001Y-18859746D02*
X8861001Y-18916889D01*
X8861001Y-18916889D02*
X8851477Y-18935936D01*
X8851477Y-18935936D02*
X8841953Y-18945460D01*
X8841953Y-18945460D02*
X8822906Y-18954984D01*
X8822906Y-18954984D02*
X8794334Y-18954984D01*
X8975287Y-18954984D02*
X8956239Y-18945460D01*
X8956239Y-18945460D02*
X8946715Y-18926412D01*
X8946715Y-18926412D02*
X8946715Y-18754984D01*
X9127668Y-18945460D02*
X9108620Y-18954984D01*
X9108620Y-18954984D02*
X9070525Y-18954984D01*
X9070525Y-18954984D02*
X9051477Y-18945460D01*
X9051477Y-18945460D02*
X9041953Y-18926412D01*
X9041953Y-18926412D02*
X9041953Y-18850222D01*
X9041953Y-18850222D02*
X9051477Y-18831174D01*
X9051477Y-18831174D02*
X9070525Y-18821650D01*
X9070525Y-18821650D02*
X9108620Y-18821650D01*
X9108620Y-18821650D02*
X9127668Y-18831174D01*
X9127668Y-18831174D02*
X9137192Y-18850222D01*
X9137192Y-18850222D02*
X9137192Y-18869270D01*
X9137192Y-18869270D02*
X9041953Y-18888317D01*
X9213382Y-18945460D02*
X9232430Y-18954984D01*
X9232430Y-18954984D02*
X9270525Y-18954984D01*
X9270525Y-18954984D02*
X9289573Y-18945460D01*
X9289573Y-18945460D02*
X9299096Y-18926412D01*
X9299096Y-18926412D02*
X9299096Y-18916889D01*
X9299096Y-18916889D02*
X9289573Y-18897841D01*
X9289573Y-18897841D02*
X9270525Y-18888317D01*
X9270525Y-18888317D02*
X9241953Y-18888317D01*
X9241953Y-18888317D02*
X9222906Y-18878793D01*
X9222906Y-18878793D02*
X9213382Y-18859746D01*
X9213382Y-18859746D02*
X9213382Y-18850222D01*
X9213382Y-18850222D02*
X9222906Y-18831174D01*
X9222906Y-18831174D02*
X9241953Y-18821650D01*
X9241953Y-18821650D02*
X9270525Y-18821650D01*
X9270525Y-18821650D02*
X9289573Y-18831174D01*
X9365763Y-19031174D02*
X9375287Y-19021650D01*
X9375287Y-19021650D02*
X9394334Y-18993079D01*
X9394334Y-18993079D02*
X9403858Y-18974031D01*
X9403858Y-18974031D02*
X9413382Y-18945460D01*
X9413382Y-18945460D02*
X9422906Y-18897841D01*
X9422906Y-18897841D02*
X9422906Y-18859746D01*
X9422906Y-18859746D02*
X9413382Y-18812127D01*
X9413382Y-18812127D02*
X9403858Y-18783555D01*
X9403858Y-18783555D02*
X9394334Y-18764508D01*
X9394334Y-18764508D02*
X9375287Y-18735936D01*
X9375287Y-18735936D02*
X9365763Y-18726412D01*
X9727668Y-19031174D02*
X9718144Y-19021650D01*
X9718144Y-19021650D02*
X9699096Y-18993079D01*
X9699096Y-18993079D02*
X9689573Y-18974031D01*
X9689573Y-18974031D02*
X9680049Y-18945460D01*
X9680049Y-18945460D02*
X9670525Y-18897841D01*
X9670525Y-18897841D02*
X9670525Y-18859746D01*
X9670525Y-18859746D02*
X9680049Y-18812127D01*
X9680049Y-18812127D02*
X9689573Y-18783555D01*
X9689573Y-18783555D02*
X9699096Y-18764508D01*
X9699096Y-18764508D02*
X9718144Y-18735936D01*
X9718144Y-18735936D02*
X9727668Y-18726412D01*
X9803858Y-18821650D02*
X9803858Y-18954984D01*
X9803858Y-18840698D02*
X9813382Y-18831174D01*
X9813382Y-18831174D02*
X9832430Y-18821650D01*
X9832430Y-18821650D02*
X9861001Y-18821650D01*
X9861001Y-18821650D02*
X9880049Y-18831174D01*
X9880049Y-18831174D02*
X9889573Y-18850222D01*
X9889573Y-18850222D02*
X9889573Y-18954984D01*
X10013382Y-18954984D02*
X9994334Y-18945460D01*
X9994334Y-18945460D02*
X9984811Y-18935936D01*
X9984811Y-18935936D02*
X9975287Y-18916889D01*
X9975287Y-18916889D02*
X9975287Y-18859746D01*
X9975287Y-18859746D02*
X9984811Y-18840698D01*
X9984811Y-18840698D02*
X9994334Y-18831174D01*
X9994334Y-18831174D02*
X10013382Y-18821650D01*
X10013382Y-18821650D02*
X10041954Y-18821650D01*
X10041954Y-18821650D02*
X10061001Y-18831174D01*
X10061001Y-18831174D02*
X10070525Y-18840698D01*
X10070525Y-18840698D02*
X10080049Y-18859746D01*
X10080049Y-18859746D02*
X10080049Y-18916889D01*
X10080049Y-18916889D02*
X10070525Y-18935936D01*
X10070525Y-18935936D02*
X10061001Y-18945460D01*
X10061001Y-18945460D02*
X10041954Y-18954984D01*
X10041954Y-18954984D02*
X10013382Y-18954984D01*
X10137192Y-18821650D02*
X10213382Y-18821650D01*
X10165763Y-18754984D02*
X10165763Y-18926412D01*
X10165763Y-18926412D02*
X10175287Y-18945460D01*
X10175287Y-18945460D02*
X10194334Y-18954984D01*
X10194334Y-18954984D02*
X10213382Y-18954984D01*
X10432430Y-18821650D02*
X10432430Y-19021650D01*
X10432430Y-18831174D02*
X10451477Y-18821650D01*
X10451477Y-18821650D02*
X10489573Y-18821650D01*
X10489573Y-18821650D02*
X10508620Y-18831174D01*
X10508620Y-18831174D02*
X10518144Y-18840698D01*
X10518144Y-18840698D02*
X10527668Y-18859746D01*
X10527668Y-18859746D02*
X10527668Y-18916889D01*
X10527668Y-18916889D02*
X10518144Y-18935936D01*
X10518144Y-18935936D02*
X10508620Y-18945460D01*
X10508620Y-18945460D02*
X10489573Y-18954984D01*
X10489573Y-18954984D02*
X10451477Y-18954984D01*
X10451477Y-18954984D02*
X10432430Y-18945460D01*
X10641954Y-18954984D02*
X10622906Y-18945460D01*
X10622906Y-18945460D02*
X10613382Y-18926412D01*
X10613382Y-18926412D02*
X10613382Y-18754984D01*
X10803858Y-18954984D02*
X10803858Y-18850222D01*
X10803858Y-18850222D02*
X10794335Y-18831174D01*
X10794335Y-18831174D02*
X10775287Y-18821650D01*
X10775287Y-18821650D02*
X10737192Y-18821650D01*
X10737192Y-18821650D02*
X10718144Y-18831174D01*
X10803858Y-18945460D02*
X10784811Y-18954984D01*
X10784811Y-18954984D02*
X10737192Y-18954984D01*
X10737192Y-18954984D02*
X10718144Y-18945460D01*
X10718144Y-18945460D02*
X10708620Y-18926412D01*
X10708620Y-18926412D02*
X10708620Y-18907365D01*
X10708620Y-18907365D02*
X10718144Y-18888317D01*
X10718144Y-18888317D02*
X10737192Y-18878793D01*
X10737192Y-18878793D02*
X10784811Y-18878793D01*
X10784811Y-18878793D02*
X10803858Y-18869270D01*
X10870525Y-18821650D02*
X10946715Y-18821650D01*
X10899096Y-18754984D02*
X10899096Y-18926412D01*
X10899096Y-18926412D02*
X10908620Y-18945460D01*
X10908620Y-18945460D02*
X10927668Y-18954984D01*
X10927668Y-18954984D02*
X10946715Y-18954984D01*
X11089573Y-18945460D02*
X11070525Y-18954984D01*
X11070525Y-18954984D02*
X11032430Y-18954984D01*
X11032430Y-18954984D02*
X11013382Y-18945460D01*
X11013382Y-18945460D02*
X11003858Y-18926412D01*
X11003858Y-18926412D02*
X11003858Y-18850222D01*
X11003858Y-18850222D02*
X11013382Y-18831174D01*
X11013382Y-18831174D02*
X11032430Y-18821650D01*
X11032430Y-18821650D02*
X11070525Y-18821650D01*
X11070525Y-18821650D02*
X11089573Y-18831174D01*
X11089573Y-18831174D02*
X11099096Y-18850222D01*
X11099096Y-18850222D02*
X11099096Y-18869270D01*
X11099096Y-18869270D02*
X11003858Y-18888317D01*
X11270525Y-18954984D02*
X11270525Y-18754984D01*
X11270525Y-18945460D02*
X11251477Y-18954984D01*
X11251477Y-18954984D02*
X11213382Y-18954984D01*
X11213382Y-18954984D02*
X11194334Y-18945460D01*
X11194334Y-18945460D02*
X11184811Y-18935936D01*
X11184811Y-18935936D02*
X11175287Y-18916889D01*
X11175287Y-18916889D02*
X11175287Y-18859746D01*
X11175287Y-18859746D02*
X11184811Y-18840698D01*
X11184811Y-18840698D02*
X11194334Y-18831174D01*
X11194334Y-18831174D02*
X11213382Y-18821650D01*
X11213382Y-18821650D02*
X11251477Y-18821650D01*
X11251477Y-18821650D02*
X11270525Y-18831174D01*
X11346715Y-19031174D02*
X11356239Y-19021650D01*
X11356239Y-19021650D02*
X11375287Y-18993079D01*
X11375287Y-18993079D02*
X11384811Y-18974031D01*
X11384811Y-18974031D02*
X11394334Y-18945460D01*
X11394334Y-18945460D02*
X11403858Y-18897841D01*
X11403858Y-18897841D02*
X11403858Y-18859746D01*
X11403858Y-18859746D02*
X11394334Y-18812127D01*
X11394334Y-18812127D02*
X11384811Y-18783555D01*
X11384811Y-18783555D02*
X11375287Y-18764508D01*
X11375287Y-18764508D02*
X11356239Y-18735936D01*
X11356239Y-18735936D02*
X11346715Y-18726412D01*
X4561411Y-19254211D02*
X4561411Y-19112789D01*
X4419989Y-19112789D01*
X4419989Y-19254211D01*
X4561411Y-19254211D01*
X4832429Y-19074984D02*
X4956239Y-19074984D01*
X4956239Y-19074984D02*
X4889572Y-19151174D01*
X4889572Y-19151174D02*
X4918144Y-19151174D01*
X4918144Y-19151174D02*
X4937191Y-19160698D01*
X4937191Y-19160698D02*
X4946715Y-19170222D01*
X4946715Y-19170222D02*
X4956239Y-19189270D01*
X4956239Y-19189270D02*
X4956239Y-19236889D01*
X4956239Y-19236889D02*
X4946715Y-19255936D01*
X4946715Y-19255936D02*
X4937191Y-19265460D01*
X4937191Y-19265460D02*
X4918144Y-19274984D01*
X4918144Y-19274984D02*
X4861001Y-19274984D01*
X4861001Y-19274984D02*
X4841953Y-19265460D01*
X4841953Y-19265460D02*
X4832429Y-19255936D01*
X5041953Y-19255936D02*
X5051477Y-19265460D01*
X5051477Y-19265460D02*
X5041953Y-19274984D01*
X5041953Y-19274984D02*
X5032429Y-19265460D01*
X5032429Y-19265460D02*
X5041953Y-19255936D01*
X5041953Y-19255936D02*
X5041953Y-19274984D01*
X5146715Y-19274984D02*
X5184810Y-19274984D01*
X5184810Y-19274984D02*
X5203858Y-19265460D01*
X5203858Y-19265460D02*
X5213382Y-19255936D01*
X5213382Y-19255936D02*
X5232429Y-19227365D01*
X5232429Y-19227365D02*
X5241953Y-19189270D01*
X5241953Y-19189270D02*
X5241953Y-19113079D01*
X5241953Y-19113079D02*
X5232429Y-19094031D01*
X5232429Y-19094031D02*
X5222905Y-19084508D01*
X5222905Y-19084508D02*
X5203858Y-19074984D01*
X5203858Y-19074984D02*
X5165763Y-19074984D01*
X5165763Y-19074984D02*
X5146715Y-19084508D01*
X5146715Y-19084508D02*
X5137191Y-19094031D01*
X5137191Y-19094031D02*
X5127667Y-19113079D01*
X5127667Y-19113079D02*
X5127667Y-19160698D01*
X5127667Y-19160698D02*
X5137191Y-19179746D01*
X5137191Y-19179746D02*
X5146715Y-19189270D01*
X5146715Y-19189270D02*
X5165763Y-19198793D01*
X5165763Y-19198793D02*
X5203858Y-19198793D01*
X5203858Y-19198793D02*
X5222905Y-19189270D01*
X5222905Y-19189270D02*
X5232429Y-19179746D01*
X5232429Y-19179746D02*
X5241953Y-19160698D01*
X5356239Y-19160698D02*
X5337191Y-19151174D01*
X5337191Y-19151174D02*
X5327667Y-19141650D01*
X5327667Y-19141650D02*
X5318144Y-19122603D01*
X5318144Y-19122603D02*
X5318144Y-19113079D01*
X5318144Y-19113079D02*
X5327667Y-19094031D01*
X5327667Y-19094031D02*
X5337191Y-19084508D01*
X5337191Y-19084508D02*
X5356239Y-19074984D01*
X5356239Y-19074984D02*
X5394334Y-19074984D01*
X5394334Y-19074984D02*
X5413382Y-19084508D01*
X5413382Y-19084508D02*
X5422905Y-19094031D01*
X5422905Y-19094031D02*
X5432429Y-19113079D01*
X5432429Y-19113079D02*
X5432429Y-19122603D01*
X5432429Y-19122603D02*
X5422905Y-19141650D01*
X5422905Y-19141650D02*
X5413382Y-19151174D01*
X5413382Y-19151174D02*
X5394334Y-19160698D01*
X5394334Y-19160698D02*
X5356239Y-19160698D01*
X5356239Y-19160698D02*
X5337191Y-19170222D01*
X5337191Y-19170222D02*
X5327667Y-19179746D01*
X5327667Y-19179746D02*
X5318144Y-19198793D01*
X5318144Y-19198793D02*
X5318144Y-19236889D01*
X5318144Y-19236889D02*
X5327667Y-19255936D01*
X5327667Y-19255936D02*
X5337191Y-19265460D01*
X5337191Y-19265460D02*
X5356239Y-19274984D01*
X5356239Y-19274984D02*
X5394334Y-19274984D01*
X5394334Y-19274984D02*
X5413382Y-19265460D01*
X5413382Y-19265460D02*
X5422905Y-19255936D01*
X5422905Y-19255936D02*
X5432429Y-19236889D01*
X5432429Y-19236889D02*
X5432429Y-19198793D01*
X5432429Y-19198793D02*
X5422905Y-19179746D01*
X5422905Y-19179746D02*
X5413382Y-19170222D01*
X5413382Y-19170222D02*
X5394334Y-19160698D01*
X5546715Y-19160698D02*
X5527667Y-19151174D01*
X5527667Y-19151174D02*
X5518144Y-19141650D01*
X5518144Y-19141650D02*
X5508620Y-19122603D01*
X5508620Y-19122603D02*
X5508620Y-19113079D01*
X5508620Y-19113079D02*
X5518144Y-19094031D01*
X5518144Y-19094031D02*
X5527667Y-19084508D01*
X5527667Y-19084508D02*
X5546715Y-19074984D01*
X5546715Y-19074984D02*
X5584810Y-19074984D01*
X5584810Y-19074984D02*
X5603858Y-19084508D01*
X5603858Y-19084508D02*
X5613382Y-19094031D01*
X5613382Y-19094031D02*
X5622905Y-19113079D01*
X5622905Y-19113079D02*
X5622905Y-19122603D01*
X5622905Y-19122603D02*
X5613382Y-19141650D01*
X5613382Y-19141650D02*
X5603858Y-19151174D01*
X5603858Y-19151174D02*
X5584810Y-19160698D01*
X5584810Y-19160698D02*
X5546715Y-19160698D01*
X5546715Y-19160698D02*
X5527667Y-19170222D01*
X5527667Y-19170222D02*
X5518144Y-19179746D01*
X5518144Y-19179746D02*
X5508620Y-19198793D01*
X5508620Y-19198793D02*
X5508620Y-19236889D01*
X5508620Y-19236889D02*
X5518144Y-19255936D01*
X5518144Y-19255936D02*
X5527667Y-19265460D01*
X5527667Y-19265460D02*
X5546715Y-19274984D01*
X5546715Y-19274984D02*
X5584810Y-19274984D01*
X5584810Y-19274984D02*
X5603858Y-19265460D01*
X5603858Y-19265460D02*
X5613382Y-19255936D01*
X5613382Y-19255936D02*
X5622905Y-19236889D01*
X5622905Y-19236889D02*
X5622905Y-19198793D01*
X5622905Y-19198793D02*
X5613382Y-19179746D01*
X5613382Y-19179746D02*
X5603858Y-19170222D01*
X5603858Y-19170222D02*
X5584810Y-19160698D01*
X5708620Y-19274984D02*
X5708620Y-19141650D01*
X5708620Y-19160698D02*
X5718143Y-19151174D01*
X5718143Y-19151174D02*
X5737191Y-19141650D01*
X5737191Y-19141650D02*
X5765763Y-19141650D01*
X5765763Y-19141650D02*
X5784810Y-19151174D01*
X5784810Y-19151174D02*
X5794334Y-19170222D01*
X5794334Y-19170222D02*
X5794334Y-19274984D01*
X5794334Y-19170222D02*
X5803858Y-19151174D01*
X5803858Y-19151174D02*
X5822905Y-19141650D01*
X5822905Y-19141650D02*
X5851477Y-19141650D01*
X5851477Y-19141650D02*
X5870524Y-19151174D01*
X5870524Y-19151174D02*
X5880048Y-19170222D01*
X5880048Y-19170222D02*
X5880048Y-19274984D01*
X5975286Y-19274984D02*
X5975286Y-19141650D01*
X5975286Y-19160698D02*
X5984810Y-19151174D01*
X5984810Y-19151174D02*
X6003858Y-19141650D01*
X6003858Y-19141650D02*
X6032429Y-19141650D01*
X6032429Y-19141650D02*
X6051477Y-19151174D01*
X6051477Y-19151174D02*
X6061001Y-19170222D01*
X6061001Y-19170222D02*
X6061001Y-19274984D01*
X6061001Y-19170222D02*
X6070524Y-19151174D01*
X6070524Y-19151174D02*
X6089572Y-19141650D01*
X6089572Y-19141650D02*
X6118143Y-19141650D01*
X6118143Y-19141650D02*
X6137191Y-19151174D01*
X6137191Y-19151174D02*
X6146715Y-19170222D01*
X6146715Y-19170222D02*
X6146715Y-19274984D01*
X6537191Y-19065460D02*
X6365763Y-19322603D01*
X6794334Y-19074984D02*
X6813382Y-19074984D01*
X6813382Y-19074984D02*
X6832429Y-19084508D01*
X6832429Y-19084508D02*
X6841953Y-19094031D01*
X6841953Y-19094031D02*
X6851477Y-19113079D01*
X6851477Y-19113079D02*
X6861001Y-19151174D01*
X6861001Y-19151174D02*
X6861001Y-19198793D01*
X6861001Y-19198793D02*
X6851477Y-19236889D01*
X6851477Y-19236889D02*
X6841953Y-19255936D01*
X6841953Y-19255936D02*
X6832429Y-19265460D01*
X6832429Y-19265460D02*
X6813382Y-19274984D01*
X6813382Y-19274984D02*
X6794334Y-19274984D01*
X6794334Y-19274984D02*
X6775286Y-19265460D01*
X6775286Y-19265460D02*
X6765763Y-19255936D01*
X6765763Y-19255936D02*
X6756239Y-19236889D01*
X6756239Y-19236889D02*
X6746715Y-19198793D01*
X6746715Y-19198793D02*
X6746715Y-19151174D01*
X6746715Y-19151174D02*
X6756239Y-19113079D01*
X6756239Y-19113079D02*
X6765763Y-19094031D01*
X6765763Y-19094031D02*
X6775286Y-19084508D01*
X6775286Y-19084508D02*
X6794334Y-19074984D01*
X6946715Y-19255936D02*
X6956239Y-19265460D01*
X6956239Y-19265460D02*
X6946715Y-19274984D01*
X6946715Y-19274984D02*
X6937191Y-19265460D01*
X6937191Y-19265460D02*
X6946715Y-19255936D01*
X6946715Y-19255936D02*
X6946715Y-19274984D01*
X7146715Y-19274984D02*
X7032429Y-19274984D01*
X7089572Y-19274984D02*
X7089572Y-19074984D01*
X7089572Y-19074984D02*
X7070525Y-19103555D01*
X7070525Y-19103555D02*
X7051477Y-19122603D01*
X7051477Y-19122603D02*
X7032429Y-19132127D01*
X7327667Y-19074984D02*
X7232429Y-19074984D01*
X7232429Y-19074984D02*
X7222906Y-19170222D01*
X7222906Y-19170222D02*
X7232429Y-19160698D01*
X7232429Y-19160698D02*
X7251477Y-19151174D01*
X7251477Y-19151174D02*
X7299096Y-19151174D01*
X7299096Y-19151174D02*
X7318144Y-19160698D01*
X7318144Y-19160698D02*
X7327667Y-19170222D01*
X7327667Y-19170222D02*
X7337191Y-19189270D01*
X7337191Y-19189270D02*
X7337191Y-19236889D01*
X7337191Y-19236889D02*
X7327667Y-19255936D01*
X7327667Y-19255936D02*
X7318144Y-19265460D01*
X7318144Y-19265460D02*
X7299096Y-19274984D01*
X7299096Y-19274984D02*
X7251477Y-19274984D01*
X7251477Y-19274984D02*
X7232429Y-19265460D01*
X7232429Y-19265460D02*
X7222906Y-19255936D01*
X7403858Y-19074984D02*
X7537191Y-19074984D01*
X7537191Y-19074984D02*
X7451477Y-19274984D01*
X7651477Y-19074984D02*
X7670525Y-19074984D01*
X7670525Y-19074984D02*
X7689572Y-19084508D01*
X7689572Y-19084508D02*
X7699096Y-19094031D01*
X7699096Y-19094031D02*
X7708620Y-19113079D01*
X7708620Y-19113079D02*
X7718144Y-19151174D01*
X7718144Y-19151174D02*
X7718144Y-19198793D01*
X7718144Y-19198793D02*
X7708620Y-19236889D01*
X7708620Y-19236889D02*
X7699096Y-19255936D01*
X7699096Y-19255936D02*
X7689572Y-19265460D01*
X7689572Y-19265460D02*
X7670525Y-19274984D01*
X7670525Y-19274984D02*
X7651477Y-19274984D01*
X7651477Y-19274984D02*
X7632429Y-19265460D01*
X7632429Y-19265460D02*
X7622906Y-19255936D01*
X7622906Y-19255936D02*
X7613382Y-19236889D01*
X7613382Y-19236889D02*
X7603858Y-19198793D01*
X7603858Y-19198793D02*
X7603858Y-19151174D01*
X7603858Y-19151174D02*
X7613382Y-19113079D01*
X7613382Y-19113079D02*
X7622906Y-19094031D01*
X7622906Y-19094031D02*
X7632429Y-19084508D01*
X7632429Y-19084508D02*
X7651477Y-19074984D01*
X7794334Y-19074984D02*
X7794334Y-19113079D01*
X7870525Y-19074984D02*
X7870525Y-19113079D01*
X8165763Y-19351174D02*
X8156239Y-19341650D01*
X8156239Y-19341650D02*
X8137191Y-19313079D01*
X8137191Y-19313079D02*
X8127668Y-19294031D01*
X8127668Y-19294031D02*
X8118144Y-19265460D01*
X8118144Y-19265460D02*
X8108620Y-19217841D01*
X8108620Y-19217841D02*
X8108620Y-19179746D01*
X8108620Y-19179746D02*
X8118144Y-19132127D01*
X8118144Y-19132127D02*
X8127668Y-19103555D01*
X8127668Y-19103555D02*
X8137191Y-19084508D01*
X8137191Y-19084508D02*
X8156239Y-19055936D01*
X8156239Y-19055936D02*
X8165763Y-19046412D01*
X8346715Y-19274984D02*
X8232429Y-19274984D01*
X8289572Y-19274984D02*
X8289572Y-19074984D01*
X8289572Y-19074984D02*
X8270525Y-19103555D01*
X8270525Y-19103555D02*
X8251477Y-19122603D01*
X8251477Y-19122603D02*
X8232429Y-19132127D01*
X8470525Y-19074984D02*
X8489572Y-19074984D01*
X8489572Y-19074984D02*
X8508620Y-19084508D01*
X8508620Y-19084508D02*
X8518144Y-19094031D01*
X8518144Y-19094031D02*
X8527668Y-19113079D01*
X8527668Y-19113079D02*
X8537191Y-19151174D01*
X8537191Y-19151174D02*
X8537191Y-19198793D01*
X8537191Y-19198793D02*
X8527668Y-19236889D01*
X8527668Y-19236889D02*
X8518144Y-19255936D01*
X8518144Y-19255936D02*
X8508620Y-19265460D01*
X8508620Y-19265460D02*
X8489572Y-19274984D01*
X8489572Y-19274984D02*
X8470525Y-19274984D01*
X8470525Y-19274984D02*
X8451477Y-19265460D01*
X8451477Y-19265460D02*
X8441953Y-19255936D01*
X8441953Y-19255936D02*
X8432430Y-19236889D01*
X8432430Y-19236889D02*
X8422906Y-19198793D01*
X8422906Y-19198793D02*
X8422906Y-19151174D01*
X8422906Y-19151174D02*
X8432430Y-19113079D01*
X8432430Y-19113079D02*
X8441953Y-19094031D01*
X8441953Y-19094031D02*
X8451477Y-19084508D01*
X8451477Y-19084508D02*
X8470525Y-19074984D01*
X8775287Y-19274984D02*
X8775287Y-19074984D01*
X8861001Y-19274984D02*
X8861001Y-19170222D01*
X8861001Y-19170222D02*
X8851477Y-19151174D01*
X8851477Y-19151174D02*
X8832430Y-19141650D01*
X8832430Y-19141650D02*
X8803858Y-19141650D01*
X8803858Y-19141650D02*
X8784811Y-19151174D01*
X8784811Y-19151174D02*
X8775287Y-19160698D01*
X8984811Y-19274984D02*
X8965763Y-19265460D01*
X8965763Y-19265460D02*
X8956239Y-19255936D01*
X8956239Y-19255936D02*
X8946715Y-19236889D01*
X8946715Y-19236889D02*
X8946715Y-19179746D01*
X8946715Y-19179746D02*
X8956239Y-19160698D01*
X8956239Y-19160698D02*
X8965763Y-19151174D01*
X8965763Y-19151174D02*
X8984811Y-19141650D01*
X8984811Y-19141650D02*
X9013382Y-19141650D01*
X9013382Y-19141650D02*
X9032430Y-19151174D01*
X9032430Y-19151174D02*
X9041953Y-19160698D01*
X9041953Y-19160698D02*
X9051477Y-19179746D01*
X9051477Y-19179746D02*
X9051477Y-19236889D01*
X9051477Y-19236889D02*
X9041953Y-19255936D01*
X9041953Y-19255936D02*
X9032430Y-19265460D01*
X9032430Y-19265460D02*
X9013382Y-19274984D01*
X9013382Y-19274984D02*
X8984811Y-19274984D01*
X9165763Y-19274984D02*
X9146715Y-19265460D01*
X9146715Y-19265460D02*
X9137192Y-19246412D01*
X9137192Y-19246412D02*
X9137192Y-19074984D01*
X9318144Y-19265460D02*
X9299096Y-19274984D01*
X9299096Y-19274984D02*
X9261001Y-19274984D01*
X9261001Y-19274984D02*
X9241953Y-19265460D01*
X9241953Y-19265460D02*
X9232430Y-19246412D01*
X9232430Y-19246412D02*
X9232430Y-19170222D01*
X9232430Y-19170222D02*
X9241953Y-19151174D01*
X9241953Y-19151174D02*
X9261001Y-19141650D01*
X9261001Y-19141650D02*
X9299096Y-19141650D01*
X9299096Y-19141650D02*
X9318144Y-19151174D01*
X9318144Y-19151174D02*
X9327668Y-19170222D01*
X9327668Y-19170222D02*
X9327668Y-19189270D01*
X9327668Y-19189270D02*
X9232430Y-19208317D01*
X9403858Y-19265460D02*
X9422906Y-19274984D01*
X9422906Y-19274984D02*
X9461001Y-19274984D01*
X9461001Y-19274984D02*
X9480049Y-19265460D01*
X9480049Y-19265460D02*
X9489573Y-19246412D01*
X9489573Y-19246412D02*
X9489573Y-19236889D01*
X9489573Y-19236889D02*
X9480049Y-19217841D01*
X9480049Y-19217841D02*
X9461001Y-19208317D01*
X9461001Y-19208317D02*
X9432430Y-19208317D01*
X9432430Y-19208317D02*
X9413382Y-19198793D01*
X9413382Y-19198793D02*
X9403858Y-19179746D01*
X9403858Y-19179746D02*
X9403858Y-19170222D01*
X9403858Y-19170222D02*
X9413382Y-19151174D01*
X9413382Y-19151174D02*
X9432430Y-19141650D01*
X9432430Y-19141650D02*
X9461001Y-19141650D01*
X9461001Y-19141650D02*
X9480049Y-19151174D01*
X9556239Y-19351174D02*
X9565763Y-19341650D01*
X9565763Y-19341650D02*
X9584811Y-19313079D01*
X9584811Y-19313079D02*
X9594334Y-19294031D01*
X9594334Y-19294031D02*
X9603858Y-19265460D01*
X9603858Y-19265460D02*
X9613382Y-19217841D01*
X9613382Y-19217841D02*
X9613382Y-19179746D01*
X9613382Y-19179746D02*
X9603858Y-19132127D01*
X9603858Y-19132127D02*
X9594334Y-19103555D01*
X9594334Y-19103555D02*
X9584811Y-19084508D01*
X9584811Y-19084508D02*
X9565763Y-19055936D01*
X9565763Y-19055936D02*
X9556239Y-19046412D01*
X9918144Y-19351174D02*
X9908620Y-19341650D01*
X9908620Y-19341650D02*
X9889573Y-19313079D01*
X9889573Y-19313079D02*
X9880049Y-19294031D01*
X9880049Y-19294031D02*
X9870525Y-19265460D01*
X9870525Y-19265460D02*
X9861001Y-19217841D01*
X9861001Y-19217841D02*
X9861001Y-19179746D01*
X9861001Y-19179746D02*
X9870525Y-19132127D01*
X9870525Y-19132127D02*
X9880049Y-19103555D01*
X9880049Y-19103555D02*
X9889573Y-19084508D01*
X9889573Y-19084508D02*
X9908620Y-19055936D01*
X9908620Y-19055936D02*
X9918144Y-19046412D01*
X9994334Y-19141650D02*
X9994334Y-19274984D01*
X9994334Y-19160698D02*
X10003858Y-19151174D01*
X10003858Y-19151174D02*
X10022906Y-19141650D01*
X10022906Y-19141650D02*
X10051477Y-19141650D01*
X10051477Y-19141650D02*
X10070525Y-19151174D01*
X10070525Y-19151174D02*
X10080049Y-19170222D01*
X10080049Y-19170222D02*
X10080049Y-19274984D01*
X10203858Y-19274984D02*
X10184811Y-19265460D01*
X10184811Y-19265460D02*
X10175287Y-19255936D01*
X10175287Y-19255936D02*
X10165763Y-19236889D01*
X10165763Y-19236889D02*
X10165763Y-19179746D01*
X10165763Y-19179746D02*
X10175287Y-19160698D01*
X10175287Y-19160698D02*
X10184811Y-19151174D01*
X10184811Y-19151174D02*
X10203858Y-19141650D01*
X10203858Y-19141650D02*
X10232430Y-19141650D01*
X10232430Y-19141650D02*
X10251477Y-19151174D01*
X10251477Y-19151174D02*
X10261001Y-19160698D01*
X10261001Y-19160698D02*
X10270525Y-19179746D01*
X10270525Y-19179746D02*
X10270525Y-19236889D01*
X10270525Y-19236889D02*
X10261001Y-19255936D01*
X10261001Y-19255936D02*
X10251477Y-19265460D01*
X10251477Y-19265460D02*
X10232430Y-19274984D01*
X10232430Y-19274984D02*
X10203858Y-19274984D01*
X10327668Y-19141650D02*
X10403858Y-19141650D01*
X10356239Y-19074984D02*
X10356239Y-19246412D01*
X10356239Y-19246412D02*
X10365763Y-19265460D01*
X10365763Y-19265460D02*
X10384811Y-19274984D01*
X10384811Y-19274984D02*
X10403858Y-19274984D01*
X10622906Y-19141650D02*
X10622906Y-19341650D01*
X10622906Y-19151174D02*
X10641954Y-19141650D01*
X10641954Y-19141650D02*
X10680049Y-19141650D01*
X10680049Y-19141650D02*
X10699096Y-19151174D01*
X10699096Y-19151174D02*
X10708620Y-19160698D01*
X10708620Y-19160698D02*
X10718144Y-19179746D01*
X10718144Y-19179746D02*
X10718144Y-19236889D01*
X10718144Y-19236889D02*
X10708620Y-19255936D01*
X10708620Y-19255936D02*
X10699096Y-19265460D01*
X10699096Y-19265460D02*
X10680049Y-19274984D01*
X10680049Y-19274984D02*
X10641954Y-19274984D01*
X10641954Y-19274984D02*
X10622906Y-19265460D01*
X10832430Y-19274984D02*
X10813382Y-19265460D01*
X10813382Y-19265460D02*
X10803858Y-19246412D01*
X10803858Y-19246412D02*
X10803858Y-19074984D01*
X10994335Y-19274984D02*
X10994335Y-19170222D01*
X10994335Y-19170222D02*
X10984811Y-19151174D01*
X10984811Y-19151174D02*
X10965763Y-19141650D01*
X10965763Y-19141650D02*
X10927668Y-19141650D01*
X10927668Y-19141650D02*
X10908620Y-19151174D01*
X10994335Y-19265460D02*
X10975287Y-19274984D01*
X10975287Y-19274984D02*
X10927668Y-19274984D01*
X10927668Y-19274984D02*
X10908620Y-19265460D01*
X10908620Y-19265460D02*
X10899096Y-19246412D01*
X10899096Y-19246412D02*
X10899096Y-19227365D01*
X10899096Y-19227365D02*
X10908620Y-19208317D01*
X10908620Y-19208317D02*
X10927668Y-19198793D01*
X10927668Y-19198793D02*
X10975287Y-19198793D01*
X10975287Y-19198793D02*
X10994335Y-19189270D01*
X11061001Y-19141650D02*
X11137192Y-19141650D01*
X11089573Y-19074984D02*
X11089573Y-19246412D01*
X11089573Y-19246412D02*
X11099096Y-19265460D01*
X11099096Y-19265460D02*
X11118144Y-19274984D01*
X11118144Y-19274984D02*
X11137192Y-19274984D01*
X11280049Y-19265460D02*
X11261001Y-19274984D01*
X11261001Y-19274984D02*
X11222906Y-19274984D01*
X11222906Y-19274984D02*
X11203858Y-19265460D01*
X11203858Y-19265460D02*
X11194334Y-19246412D01*
X11194334Y-19246412D02*
X11194334Y-19170222D01*
X11194334Y-19170222D02*
X11203858Y-19151174D01*
X11203858Y-19151174D02*
X11222906Y-19141650D01*
X11222906Y-19141650D02*
X11261001Y-19141650D01*
X11261001Y-19141650D02*
X11280049Y-19151174D01*
X11280049Y-19151174D02*
X11289573Y-19170222D01*
X11289573Y-19170222D02*
X11289573Y-19189270D01*
X11289573Y-19189270D02*
X11194334Y-19208317D01*
X11461001Y-19274984D02*
X11461001Y-19074984D01*
X11461001Y-19265460D02*
X11441954Y-19274984D01*
X11441954Y-19274984D02*
X11403858Y-19274984D01*
X11403858Y-19274984D02*
X11384811Y-19265460D01*
X11384811Y-19265460D02*
X11375287Y-19255936D01*
X11375287Y-19255936D02*
X11365763Y-19236889D01*
X11365763Y-19236889D02*
X11365763Y-19179746D01*
X11365763Y-19179746D02*
X11375287Y-19160698D01*
X11375287Y-19160698D02*
X11384811Y-19151174D01*
X11384811Y-19151174D02*
X11403858Y-19141650D01*
X11403858Y-19141650D02*
X11441954Y-19141650D01*
X11441954Y-19141650D02*
X11461001Y-19151174D01*
X11537192Y-19351174D02*
X11546715Y-19341650D01*
X11546715Y-19341650D02*
X11565763Y-19313079D01*
X11565763Y-19313079D02*
X11575287Y-19294031D01*
X11575287Y-19294031D02*
X11584811Y-19265460D01*
X11584811Y-19265460D02*
X11594334Y-19217841D01*
X11594334Y-19217841D02*
X11594334Y-19179746D01*
X11594334Y-19179746D02*
X11584811Y-19132127D01*
X11584811Y-19132127D02*
X11575287Y-19103555D01*
X11575287Y-19103555D02*
X11565763Y-19084508D01*
X11565763Y-19084508D02*
X11546715Y-19055936D01*
X11546715Y-19055936D02*
X11537192Y-19046412D01*
X4490700Y-19603500D02*
X4590700Y-19503500D01*
X4490700Y-19403500D01*
X4390700Y-19503500D01*
X4490700Y-19603500D01*
X4937191Y-19461650D02*
X4937191Y-19594984D01*
X4889572Y-19385460D02*
X4841953Y-19528317D01*
X4841953Y-19528317D02*
X4965763Y-19528317D01*
X5041953Y-19575936D02*
X5051477Y-19585460D01*
X5051477Y-19585460D02*
X5041953Y-19594984D01*
X5041953Y-19594984D02*
X5032429Y-19585460D01*
X5032429Y-19585460D02*
X5041953Y-19575936D01*
X5041953Y-19575936D02*
X5041953Y-19594984D01*
X5175286Y-19394984D02*
X5194334Y-19394984D01*
X5194334Y-19394984D02*
X5213382Y-19404508D01*
X5213382Y-19404508D02*
X5222905Y-19414031D01*
X5222905Y-19414031D02*
X5232429Y-19433079D01*
X5232429Y-19433079D02*
X5241953Y-19471174D01*
X5241953Y-19471174D02*
X5241953Y-19518793D01*
X5241953Y-19518793D02*
X5232429Y-19556889D01*
X5232429Y-19556889D02*
X5222905Y-19575936D01*
X5222905Y-19575936D02*
X5213382Y-19585460D01*
X5213382Y-19585460D02*
X5194334Y-19594984D01*
X5194334Y-19594984D02*
X5175286Y-19594984D01*
X5175286Y-19594984D02*
X5156239Y-19585460D01*
X5156239Y-19585460D02*
X5146715Y-19575936D01*
X5146715Y-19575936D02*
X5137191Y-19556889D01*
X5137191Y-19556889D02*
X5127667Y-19518793D01*
X5127667Y-19518793D02*
X5127667Y-19471174D01*
X5127667Y-19471174D02*
X5137191Y-19433079D01*
X5137191Y-19433079D02*
X5146715Y-19414031D01*
X5146715Y-19414031D02*
X5156239Y-19404508D01*
X5156239Y-19404508D02*
X5175286Y-19394984D01*
X5365763Y-19394984D02*
X5384810Y-19394984D01*
X5384810Y-19394984D02*
X5403858Y-19404508D01*
X5403858Y-19404508D02*
X5413382Y-19414031D01*
X5413382Y-19414031D02*
X5422905Y-19433079D01*
X5422905Y-19433079D02*
X5432429Y-19471174D01*
X5432429Y-19471174D02*
X5432429Y-19518793D01*
X5432429Y-19518793D02*
X5422905Y-19556889D01*
X5422905Y-19556889D02*
X5413382Y-19575936D01*
X5413382Y-19575936D02*
X5403858Y-19585460D01*
X5403858Y-19585460D02*
X5384810Y-19594984D01*
X5384810Y-19594984D02*
X5365763Y-19594984D01*
X5365763Y-19594984D02*
X5346715Y-19585460D01*
X5346715Y-19585460D02*
X5337191Y-19575936D01*
X5337191Y-19575936D02*
X5327667Y-19556889D01*
X5327667Y-19556889D02*
X5318144Y-19518793D01*
X5318144Y-19518793D02*
X5318144Y-19471174D01*
X5318144Y-19471174D02*
X5327667Y-19433079D01*
X5327667Y-19433079D02*
X5337191Y-19414031D01*
X5337191Y-19414031D02*
X5346715Y-19404508D01*
X5346715Y-19404508D02*
X5365763Y-19394984D01*
X5556239Y-19394984D02*
X5575286Y-19394984D01*
X5575286Y-19394984D02*
X5594334Y-19404508D01*
X5594334Y-19404508D02*
X5603858Y-19414031D01*
X5603858Y-19414031D02*
X5613382Y-19433079D01*
X5613382Y-19433079D02*
X5622905Y-19471174D01*
X5622905Y-19471174D02*
X5622905Y-19518793D01*
X5622905Y-19518793D02*
X5613382Y-19556889D01*
X5613382Y-19556889D02*
X5603858Y-19575936D01*
X5603858Y-19575936D02*
X5594334Y-19585460D01*
X5594334Y-19585460D02*
X5575286Y-19594984D01*
X5575286Y-19594984D02*
X5556239Y-19594984D01*
X5556239Y-19594984D02*
X5537191Y-19585460D01*
X5537191Y-19585460D02*
X5527667Y-19575936D01*
X5527667Y-19575936D02*
X5518144Y-19556889D01*
X5518144Y-19556889D02*
X5508620Y-19518793D01*
X5508620Y-19518793D02*
X5508620Y-19471174D01*
X5508620Y-19471174D02*
X5518144Y-19433079D01*
X5518144Y-19433079D02*
X5527667Y-19414031D01*
X5527667Y-19414031D02*
X5537191Y-19404508D01*
X5537191Y-19404508D02*
X5556239Y-19394984D01*
X5708620Y-19594984D02*
X5708620Y-19461650D01*
X5708620Y-19480698D02*
X5718143Y-19471174D01*
X5718143Y-19471174D02*
X5737191Y-19461650D01*
X5737191Y-19461650D02*
X5765763Y-19461650D01*
X5765763Y-19461650D02*
X5784810Y-19471174D01*
X5784810Y-19471174D02*
X5794334Y-19490222D01*
X5794334Y-19490222D02*
X5794334Y-19594984D01*
X5794334Y-19490222D02*
X5803858Y-19471174D01*
X5803858Y-19471174D02*
X5822905Y-19461650D01*
X5822905Y-19461650D02*
X5851477Y-19461650D01*
X5851477Y-19461650D02*
X5870524Y-19471174D01*
X5870524Y-19471174D02*
X5880048Y-19490222D01*
X5880048Y-19490222D02*
X5880048Y-19594984D01*
X5975286Y-19594984D02*
X5975286Y-19461650D01*
X5975286Y-19480698D02*
X5984810Y-19471174D01*
X5984810Y-19471174D02*
X6003858Y-19461650D01*
X6003858Y-19461650D02*
X6032429Y-19461650D01*
X6032429Y-19461650D02*
X6051477Y-19471174D01*
X6051477Y-19471174D02*
X6061001Y-19490222D01*
X6061001Y-19490222D02*
X6061001Y-19594984D01*
X6061001Y-19490222D02*
X6070524Y-19471174D01*
X6070524Y-19471174D02*
X6089572Y-19461650D01*
X6089572Y-19461650D02*
X6118143Y-19461650D01*
X6118143Y-19461650D02*
X6137191Y-19471174D01*
X6137191Y-19471174D02*
X6146715Y-19490222D01*
X6146715Y-19490222D02*
X6146715Y-19594984D01*
X6537191Y-19385460D02*
X6365763Y-19642603D01*
X6794334Y-19394984D02*
X6813382Y-19394984D01*
X6813382Y-19394984D02*
X6832429Y-19404508D01*
X6832429Y-19404508D02*
X6841953Y-19414031D01*
X6841953Y-19414031D02*
X6851477Y-19433079D01*
X6851477Y-19433079D02*
X6861001Y-19471174D01*
X6861001Y-19471174D02*
X6861001Y-19518793D01*
X6861001Y-19518793D02*
X6851477Y-19556889D01*
X6851477Y-19556889D02*
X6841953Y-19575936D01*
X6841953Y-19575936D02*
X6832429Y-19585460D01*
X6832429Y-19585460D02*
X6813382Y-19594984D01*
X6813382Y-19594984D02*
X6794334Y-19594984D01*
X6794334Y-19594984D02*
X6775286Y-19585460D01*
X6775286Y-19585460D02*
X6765763Y-19575936D01*
X6765763Y-19575936D02*
X6756239Y-19556889D01*
X6756239Y-19556889D02*
X6746715Y-19518793D01*
X6746715Y-19518793D02*
X6746715Y-19471174D01*
X6746715Y-19471174D02*
X6756239Y-19433079D01*
X6756239Y-19433079D02*
X6765763Y-19414031D01*
X6765763Y-19414031D02*
X6775286Y-19404508D01*
X6775286Y-19404508D02*
X6794334Y-19394984D01*
X6946715Y-19575936D02*
X6956239Y-19585460D01*
X6956239Y-19585460D02*
X6946715Y-19594984D01*
X6946715Y-19594984D02*
X6937191Y-19585460D01*
X6937191Y-19585460D02*
X6946715Y-19575936D01*
X6946715Y-19575936D02*
X6946715Y-19594984D01*
X7146715Y-19594984D02*
X7032429Y-19594984D01*
X7089572Y-19594984D02*
X7089572Y-19394984D01*
X7089572Y-19394984D02*
X7070525Y-19423555D01*
X7070525Y-19423555D02*
X7051477Y-19442603D01*
X7051477Y-19442603D02*
X7032429Y-19452127D01*
X7327667Y-19394984D02*
X7232429Y-19394984D01*
X7232429Y-19394984D02*
X7222906Y-19490222D01*
X7222906Y-19490222D02*
X7232429Y-19480698D01*
X7232429Y-19480698D02*
X7251477Y-19471174D01*
X7251477Y-19471174D02*
X7299096Y-19471174D01*
X7299096Y-19471174D02*
X7318144Y-19480698D01*
X7318144Y-19480698D02*
X7327667Y-19490222D01*
X7327667Y-19490222D02*
X7337191Y-19509270D01*
X7337191Y-19509270D02*
X7337191Y-19556889D01*
X7337191Y-19556889D02*
X7327667Y-19575936D01*
X7327667Y-19575936D02*
X7318144Y-19585460D01*
X7318144Y-19585460D02*
X7299096Y-19594984D01*
X7299096Y-19594984D02*
X7251477Y-19594984D01*
X7251477Y-19594984D02*
X7232429Y-19585460D01*
X7232429Y-19585460D02*
X7222906Y-19575936D01*
X7403858Y-19394984D02*
X7537191Y-19394984D01*
X7537191Y-19394984D02*
X7451477Y-19594984D01*
X7708620Y-19394984D02*
X7613382Y-19394984D01*
X7613382Y-19394984D02*
X7603858Y-19490222D01*
X7603858Y-19490222D02*
X7613382Y-19480698D01*
X7613382Y-19480698D02*
X7632429Y-19471174D01*
X7632429Y-19471174D02*
X7680048Y-19471174D01*
X7680048Y-19471174D02*
X7699096Y-19480698D01*
X7699096Y-19480698D02*
X7708620Y-19490222D01*
X7708620Y-19490222D02*
X7718144Y-19509270D01*
X7718144Y-19509270D02*
X7718144Y-19556889D01*
X7718144Y-19556889D02*
X7708620Y-19575936D01*
X7708620Y-19575936D02*
X7699096Y-19585460D01*
X7699096Y-19585460D02*
X7680048Y-19594984D01*
X7680048Y-19594984D02*
X7632429Y-19594984D01*
X7632429Y-19594984D02*
X7613382Y-19585460D01*
X7613382Y-19585460D02*
X7603858Y-19575936D01*
X7794334Y-19394984D02*
X7794334Y-19433079D01*
X7870525Y-19394984D02*
X7870525Y-19433079D01*
X8165763Y-19671174D02*
X8156239Y-19661650D01*
X8156239Y-19661650D02*
X8137191Y-19633079D01*
X8137191Y-19633079D02*
X8127668Y-19614031D01*
X8127668Y-19614031D02*
X8118144Y-19585460D01*
X8118144Y-19585460D02*
X8108620Y-19537841D01*
X8108620Y-19537841D02*
X8108620Y-19499746D01*
X8108620Y-19499746D02*
X8118144Y-19452127D01*
X8118144Y-19452127D02*
X8127668Y-19423555D01*
X8127668Y-19423555D02*
X8137191Y-19404508D01*
X8137191Y-19404508D02*
X8156239Y-19375936D01*
X8156239Y-19375936D02*
X8165763Y-19366412D01*
X8222906Y-19394984D02*
X8356239Y-19394984D01*
X8356239Y-19394984D02*
X8270525Y-19594984D01*
X8422906Y-19414031D02*
X8432430Y-19404508D01*
X8432430Y-19404508D02*
X8451477Y-19394984D01*
X8451477Y-19394984D02*
X8499096Y-19394984D01*
X8499096Y-19394984D02*
X8518144Y-19404508D01*
X8518144Y-19404508D02*
X8527668Y-19414031D01*
X8527668Y-19414031D02*
X8537191Y-19433079D01*
X8537191Y-19433079D02*
X8537191Y-19452127D01*
X8537191Y-19452127D02*
X8527668Y-19480698D01*
X8527668Y-19480698D02*
X8413382Y-19594984D01*
X8413382Y-19594984D02*
X8537191Y-19594984D01*
X8775287Y-19594984D02*
X8775287Y-19394984D01*
X8861001Y-19594984D02*
X8861001Y-19490222D01*
X8861001Y-19490222D02*
X8851477Y-19471174D01*
X8851477Y-19471174D02*
X8832430Y-19461650D01*
X8832430Y-19461650D02*
X8803858Y-19461650D01*
X8803858Y-19461650D02*
X8784811Y-19471174D01*
X8784811Y-19471174D02*
X8775287Y-19480698D01*
X8984811Y-19594984D02*
X8965763Y-19585460D01*
X8965763Y-19585460D02*
X8956239Y-19575936D01*
X8956239Y-19575936D02*
X8946715Y-19556889D01*
X8946715Y-19556889D02*
X8946715Y-19499746D01*
X8946715Y-19499746D02*
X8956239Y-19480698D01*
X8956239Y-19480698D02*
X8965763Y-19471174D01*
X8965763Y-19471174D02*
X8984811Y-19461650D01*
X8984811Y-19461650D02*
X9013382Y-19461650D01*
X9013382Y-19461650D02*
X9032430Y-19471174D01*
X9032430Y-19471174D02*
X9041953Y-19480698D01*
X9041953Y-19480698D02*
X9051477Y-19499746D01*
X9051477Y-19499746D02*
X9051477Y-19556889D01*
X9051477Y-19556889D02*
X9041953Y-19575936D01*
X9041953Y-19575936D02*
X9032430Y-19585460D01*
X9032430Y-19585460D02*
X9013382Y-19594984D01*
X9013382Y-19594984D02*
X8984811Y-19594984D01*
X9165763Y-19594984D02*
X9146715Y-19585460D01*
X9146715Y-19585460D02*
X9137192Y-19566412D01*
X9137192Y-19566412D02*
X9137192Y-19394984D01*
X9318144Y-19585460D02*
X9299096Y-19594984D01*
X9299096Y-19594984D02*
X9261001Y-19594984D01*
X9261001Y-19594984D02*
X9241953Y-19585460D01*
X9241953Y-19585460D02*
X9232430Y-19566412D01*
X9232430Y-19566412D02*
X9232430Y-19490222D01*
X9232430Y-19490222D02*
X9241953Y-19471174D01*
X9241953Y-19471174D02*
X9261001Y-19461650D01*
X9261001Y-19461650D02*
X9299096Y-19461650D01*
X9299096Y-19461650D02*
X9318144Y-19471174D01*
X9318144Y-19471174D02*
X9327668Y-19490222D01*
X9327668Y-19490222D02*
X9327668Y-19509270D01*
X9327668Y-19509270D02*
X9232430Y-19528317D01*
X9403858Y-19585460D02*
X9422906Y-19594984D01*
X9422906Y-19594984D02*
X9461001Y-19594984D01*
X9461001Y-19594984D02*
X9480049Y-19585460D01*
X9480049Y-19585460D02*
X9489573Y-19566412D01*
X9489573Y-19566412D02*
X9489573Y-19556889D01*
X9489573Y-19556889D02*
X9480049Y-19537841D01*
X9480049Y-19537841D02*
X9461001Y-19528317D01*
X9461001Y-19528317D02*
X9432430Y-19528317D01*
X9432430Y-19528317D02*
X9413382Y-19518793D01*
X9413382Y-19518793D02*
X9403858Y-19499746D01*
X9403858Y-19499746D02*
X9403858Y-19490222D01*
X9403858Y-19490222D02*
X9413382Y-19471174D01*
X9413382Y-19471174D02*
X9432430Y-19461650D01*
X9432430Y-19461650D02*
X9461001Y-19461650D01*
X9461001Y-19461650D02*
X9480049Y-19471174D01*
X9556239Y-19671174D02*
X9565763Y-19661650D01*
X9565763Y-19661650D02*
X9584811Y-19633079D01*
X9584811Y-19633079D02*
X9594334Y-19614031D01*
X9594334Y-19614031D02*
X9603858Y-19585460D01*
X9603858Y-19585460D02*
X9613382Y-19537841D01*
X9613382Y-19537841D02*
X9613382Y-19499746D01*
X9613382Y-19499746D02*
X9603858Y-19452127D01*
X9603858Y-19452127D02*
X9594334Y-19423555D01*
X9594334Y-19423555D02*
X9584811Y-19404508D01*
X9584811Y-19404508D02*
X9565763Y-19375936D01*
X9565763Y-19375936D02*
X9556239Y-19366412D01*
X9918144Y-19671174D02*
X9908620Y-19661650D01*
X9908620Y-19661650D02*
X9889573Y-19633079D01*
X9889573Y-19633079D02*
X9880049Y-19614031D01*
X9880049Y-19614031D02*
X9870525Y-19585460D01*
X9870525Y-19585460D02*
X9861001Y-19537841D01*
X9861001Y-19537841D02*
X9861001Y-19499746D01*
X9861001Y-19499746D02*
X9870525Y-19452127D01*
X9870525Y-19452127D02*
X9880049Y-19423555D01*
X9880049Y-19423555D02*
X9889573Y-19404508D01*
X9889573Y-19404508D02*
X9908620Y-19375936D01*
X9908620Y-19375936D02*
X9918144Y-19366412D01*
X9994334Y-19461650D02*
X9994334Y-19594984D01*
X9994334Y-19480698D02*
X10003858Y-19471174D01*
X10003858Y-19471174D02*
X10022906Y-19461650D01*
X10022906Y-19461650D02*
X10051477Y-19461650D01*
X10051477Y-19461650D02*
X10070525Y-19471174D01*
X10070525Y-19471174D02*
X10080049Y-19490222D01*
X10080049Y-19490222D02*
X10080049Y-19594984D01*
X10203858Y-19594984D02*
X10184811Y-19585460D01*
X10184811Y-19585460D02*
X10175287Y-19575936D01*
X10175287Y-19575936D02*
X10165763Y-19556889D01*
X10165763Y-19556889D02*
X10165763Y-19499746D01*
X10165763Y-19499746D02*
X10175287Y-19480698D01*
X10175287Y-19480698D02*
X10184811Y-19471174D01*
X10184811Y-19471174D02*
X10203858Y-19461650D01*
X10203858Y-19461650D02*
X10232430Y-19461650D01*
X10232430Y-19461650D02*
X10251477Y-19471174D01*
X10251477Y-19471174D02*
X10261001Y-19480698D01*
X10261001Y-19480698D02*
X10270525Y-19499746D01*
X10270525Y-19499746D02*
X10270525Y-19556889D01*
X10270525Y-19556889D02*
X10261001Y-19575936D01*
X10261001Y-19575936D02*
X10251477Y-19585460D01*
X10251477Y-19585460D02*
X10232430Y-19594984D01*
X10232430Y-19594984D02*
X10203858Y-19594984D01*
X10327668Y-19461650D02*
X10403858Y-19461650D01*
X10356239Y-19394984D02*
X10356239Y-19566412D01*
X10356239Y-19566412D02*
X10365763Y-19585460D01*
X10365763Y-19585460D02*
X10384811Y-19594984D01*
X10384811Y-19594984D02*
X10403858Y-19594984D01*
X10622906Y-19461650D02*
X10622906Y-19661650D01*
X10622906Y-19471174D02*
X10641954Y-19461650D01*
X10641954Y-19461650D02*
X10680049Y-19461650D01*
X10680049Y-19461650D02*
X10699096Y-19471174D01*
X10699096Y-19471174D02*
X10708620Y-19480698D01*
X10708620Y-19480698D02*
X10718144Y-19499746D01*
X10718144Y-19499746D02*
X10718144Y-19556889D01*
X10718144Y-19556889D02*
X10708620Y-19575936D01*
X10708620Y-19575936D02*
X10699096Y-19585460D01*
X10699096Y-19585460D02*
X10680049Y-19594984D01*
X10680049Y-19594984D02*
X10641954Y-19594984D01*
X10641954Y-19594984D02*
X10622906Y-19585460D01*
X10832430Y-19594984D02*
X10813382Y-19585460D01*
X10813382Y-19585460D02*
X10803858Y-19566412D01*
X10803858Y-19566412D02*
X10803858Y-19394984D01*
X10994335Y-19594984D02*
X10994335Y-19490222D01*
X10994335Y-19490222D02*
X10984811Y-19471174D01*
X10984811Y-19471174D02*
X10965763Y-19461650D01*
X10965763Y-19461650D02*
X10927668Y-19461650D01*
X10927668Y-19461650D02*
X10908620Y-19471174D01*
X10994335Y-19585460D02*
X10975287Y-19594984D01*
X10975287Y-19594984D02*
X10927668Y-19594984D01*
X10927668Y-19594984D02*
X10908620Y-19585460D01*
X10908620Y-19585460D02*
X10899096Y-19566412D01*
X10899096Y-19566412D02*
X10899096Y-19547365D01*
X10899096Y-19547365D02*
X10908620Y-19528317D01*
X10908620Y-19528317D02*
X10927668Y-19518793D01*
X10927668Y-19518793D02*
X10975287Y-19518793D01*
X10975287Y-19518793D02*
X10994335Y-19509270D01*
X11061001Y-19461650D02*
X11137192Y-19461650D01*
X11089573Y-19394984D02*
X11089573Y-19566412D01*
X11089573Y-19566412D02*
X11099096Y-19585460D01*
X11099096Y-19585460D02*
X11118144Y-19594984D01*
X11118144Y-19594984D02*
X11137192Y-19594984D01*
X11280049Y-19585460D02*
X11261001Y-19594984D01*
X11261001Y-19594984D02*
X11222906Y-19594984D01*
X11222906Y-19594984D02*
X11203858Y-19585460D01*
X11203858Y-19585460D02*
X11194334Y-19566412D01*
X11194334Y-19566412D02*
X11194334Y-19490222D01*
X11194334Y-19490222D02*
X11203858Y-19471174D01*
X11203858Y-19471174D02*
X11222906Y-19461650D01*
X11222906Y-19461650D02*
X11261001Y-19461650D01*
X11261001Y-19461650D02*
X11280049Y-19471174D01*
X11280049Y-19471174D02*
X11289573Y-19490222D01*
X11289573Y-19490222D02*
X11289573Y-19509270D01*
X11289573Y-19509270D02*
X11194334Y-19528317D01*
X11461001Y-19594984D02*
X11461001Y-19394984D01*
X11461001Y-19585460D02*
X11441954Y-19594984D01*
X11441954Y-19594984D02*
X11403858Y-19594984D01*
X11403858Y-19594984D02*
X11384811Y-19585460D01*
X11384811Y-19585460D02*
X11375287Y-19575936D01*
X11375287Y-19575936D02*
X11365763Y-19556889D01*
X11365763Y-19556889D02*
X11365763Y-19499746D01*
X11365763Y-19499746D02*
X11375287Y-19480698D01*
X11375287Y-19480698D02*
X11384811Y-19471174D01*
X11384811Y-19471174D02*
X11403858Y-19461650D01*
X11403858Y-19461650D02*
X11441954Y-19461650D01*
X11441954Y-19461650D02*
X11461001Y-19471174D01*
X11537192Y-19671174D02*
X11546715Y-19661650D01*
X11546715Y-19661650D02*
X11565763Y-19633079D01*
X11565763Y-19633079D02*
X11575287Y-19614031D01*
X11575287Y-19614031D02*
X11584811Y-19585460D01*
X11584811Y-19585460D02*
X11594334Y-19537841D01*
X11594334Y-19537841D02*
X11594334Y-19499746D01*
X11594334Y-19499746D02*
X11584811Y-19452127D01*
X11584811Y-19452127D02*
X11575287Y-19423555D01*
X11575287Y-19423555D02*
X11565763Y-19404508D01*
X11565763Y-19404508D02*
X11546715Y-19375936D01*
X11546715Y-19375936D02*
X11537192Y-19366412D01*
M02*
