%TF.GenerationSoftware,KiCad,Pcbnew,7.0.5*%
%TF.CreationDate,2023-09-15T18:16:34+08:00*%
%TF.ProjectId,Openero65,4f70656e-6572-46f3-9635-2e6b69636164,rev?*%
%TF.SameCoordinates,Original*%
%TF.FileFunction,Soldermask,Bot*%
%TF.FilePolarity,Negative*%
%FSLAX46Y46*%
G04 Gerber Fmt 4.6, Leading zero omitted, Abs format (unit mm)*
G04 Created by KiCad (PCBNEW 7.0.5) date 2023-09-15 18:16:34*
%MOMM*%
%LPD*%
G01*
G04 APERTURE LIST*
G04 Aperture macros list*
%AMRoundRect*
0 Rectangle with rounded corners*
0 $1 Rounding radius*
0 $2 $3 $4 $5 $6 $7 $8 $9 X,Y pos of 4 corners*
0 Add a 4 corners polygon primitive as box body*
4,1,4,$2,$3,$4,$5,$6,$7,$8,$9,$2,$3,0*
0 Add four circle primitives for the rounded corners*
1,1,$1+$1,$2,$3*
1,1,$1+$1,$4,$5*
1,1,$1+$1,$6,$7*
1,1,$1+$1,$8,$9*
0 Add four rect primitives between the rounded corners*
20,1,$1+$1,$2,$3,$4,$5,0*
20,1,$1+$1,$4,$5,$6,$7,0*
20,1,$1+$1,$6,$7,$8,$9,0*
20,1,$1+$1,$8,$9,$2,$3,0*%
G04 Aperture macros list end*
%ADD10RoundRect,0.250000X-1.025000X-1.000000X1.025000X-1.000000X1.025000X1.000000X-1.025000X1.000000X0*%
%ADD11C,1.750000*%
%ADD12C,4.000000*%
%ADD13C,3.600000*%
%ADD14C,3.048000*%
%ADD15C,3.987800*%
%ADD16C,3.500000*%
%ADD17RoundRect,0.250000X1.025000X1.000000X-1.025000X1.000000X-1.025000X-1.000000X1.025000X-1.000000X0*%
%ADD18R,1.752600X1.752600*%
%ADD19RoundRect,0.438150X-0.438150X-0.438150X0.438150X-0.438150X0.438150X0.438150X-0.438150X0.438150X0*%
%ADD20C,1.752600*%
%ADD21RoundRect,0.225000X0.375000X-0.225000X0.375000X0.225000X-0.375000X0.225000X-0.375000X-0.225000X0*%
G04 APERTURE END LIST*
D10*
%TO.C,SW1*%
X48397000Y-87770000D03*
D11*
X50402000Y-90310000D03*
D12*
X55482000Y-90310000D03*
D11*
X60562000Y-90310000D03*
D10*
X61324000Y-85230000D03*
D13*
X51672000Y-87770000D03*
X58022000Y-85230000D03*
%TD*%
D10*
%TO.C,SW50*%
X224611000Y-144920000D03*
D11*
X226616000Y-147460000D03*
D12*
X231696000Y-147460000D03*
D11*
X236776000Y-147460000D03*
D10*
X237538000Y-142380000D03*
D13*
X227886000Y-144920000D03*
X234236000Y-142380000D03*
%TD*%
D10*
%TO.C,SW42*%
X60304000Y-144920000D03*
D11*
X62309000Y-147460000D03*
D12*
X67389000Y-147460000D03*
D11*
X72469000Y-147460000D03*
D10*
X73231000Y-142380000D03*
D13*
X63579000Y-144920000D03*
X69929000Y-142380000D03*
%TD*%
D14*
%TO.C,stab4*%
X245984000Y-173495000D03*
D15*
X245984000Y-158285000D03*
D14*
X131684000Y-173495000D03*
D15*
X131684000Y-158285000D03*
%TD*%
D16*
%TO.C,hole1*%
X193595000Y-129910000D03*
%TD*%
D10*
%TO.C,SW40*%
X272235000Y-125870000D03*
D11*
X274240000Y-128410000D03*
D12*
X279320000Y-128410000D03*
D11*
X284400000Y-128410000D03*
D10*
X285162000Y-123330000D03*
D13*
X275510000Y-125870000D03*
X281860000Y-123330000D03*
%TD*%
D10*
%TO.C,SW23*%
X210323000Y-106820000D03*
D11*
X212328000Y-109360000D03*
D12*
X217408000Y-109360000D03*
D11*
X222488000Y-109360000D03*
D10*
X223250000Y-104280000D03*
D13*
X213598000Y-106820000D03*
X219948000Y-104280000D03*
%TD*%
D10*
%TO.C,SW63*%
X334147000Y-163970000D03*
D11*
X336152000Y-166510000D03*
D12*
X341232000Y-166510000D03*
D11*
X346312000Y-166510000D03*
D10*
X347074000Y-161430000D03*
D13*
X337422000Y-163970000D03*
X343772000Y-161430000D03*
%TD*%
D17*
%TO.C,SW29*%
X69711000Y-130950000D03*
D11*
X67706000Y-128410000D03*
D12*
X62626000Y-128410000D03*
D11*
X57546000Y-128410000D03*
D17*
X56784000Y-133490000D03*
D13*
X66436000Y-130950000D03*
X60086000Y-133490000D03*
%TD*%
D10*
%TO.C,SW17*%
X96023000Y-106820000D03*
D11*
X98028000Y-109360000D03*
D12*
X103108000Y-109360000D03*
D11*
X108188000Y-109360000D03*
D10*
X108950000Y-104280000D03*
D13*
X99298000Y-106820000D03*
X105648000Y-104280000D03*
%TD*%
D10*
%TO.C,SW44*%
X110311000Y-144920000D03*
D11*
X112316000Y-147460000D03*
D12*
X117396000Y-147460000D03*
D11*
X122476000Y-147460000D03*
D10*
X123238000Y-142380000D03*
D13*
X113586000Y-144920000D03*
X119936000Y-142380000D03*
%TD*%
D10*
%TO.C,SW65*%
X315097000Y-163970000D03*
D11*
X317102000Y-166510000D03*
D12*
X322182000Y-166510000D03*
D11*
X327262000Y-166510000D03*
D10*
X328024000Y-161430000D03*
D13*
X318372000Y-163970000D03*
X324722000Y-161430000D03*
%TD*%
D10*
%TO.C,SW39*%
X253185000Y-125870000D03*
D11*
X255190000Y-128410000D03*
D12*
X260270000Y-128410000D03*
D11*
X265350000Y-128410000D03*
D10*
X266112000Y-123330000D03*
D13*
X256460000Y-125870000D03*
X262810000Y-123330000D03*
%TD*%
D10*
%TO.C,SW31*%
X100785000Y-125870000D03*
D11*
X102790000Y-128410000D03*
D12*
X107870000Y-128410000D03*
D11*
X112950000Y-128410000D03*
D10*
X113712000Y-123330000D03*
D13*
X104060000Y-125870000D03*
X110410000Y-123330000D03*
%TD*%
D17*
%TO.C,SW71*%
X195919000Y-169050000D03*
D11*
X193914000Y-166510000D03*
D12*
X188834000Y-166510000D03*
D11*
X183754000Y-166510000D03*
D17*
X182992000Y-171590000D03*
D13*
X192644000Y-169050000D03*
X186294000Y-171590000D03*
%TD*%
D10*
%TO.C,SW47*%
X167461000Y-144920000D03*
D11*
X169466000Y-147460000D03*
D12*
X174546000Y-147460000D03*
D11*
X179626000Y-147460000D03*
D10*
X180388000Y-142380000D03*
D13*
X170736000Y-144920000D03*
X177086000Y-142380000D03*
%TD*%
D14*
%TO.C,stab2*%
X300719000Y-83325000D03*
D15*
X300719000Y-98535000D03*
D14*
X324595000Y-83325000D03*
D15*
X324595000Y-98535000D03*
%TD*%
D17*
%TO.C,SW59*%
X279261000Y-169050000D03*
D11*
X277256000Y-166510000D03*
D12*
X272176000Y-166510000D03*
D11*
X267096000Y-166510000D03*
D17*
X266334000Y-171590000D03*
D13*
X275986000Y-169050000D03*
X269636000Y-171590000D03*
%TD*%
D10*
%TO.C,SW67*%
X50779000Y-125870000D03*
D11*
X52784000Y-128410000D03*
D12*
X57864000Y-128410000D03*
D11*
X62944000Y-128410000D03*
D10*
X63706000Y-123330000D03*
D13*
X54054000Y-125870000D03*
X60404000Y-123330000D03*
%TD*%
D10*
%TO.C,SW10*%
X219847000Y-87770000D03*
D11*
X221852000Y-90310000D03*
D12*
X226932000Y-90310000D03*
D11*
X232012000Y-90310000D03*
D10*
X232774000Y-85230000D03*
D13*
X223122000Y-87770000D03*
X229472000Y-85230000D03*
%TD*%
D10*
%TO.C,SW5*%
X124597000Y-87770000D03*
D11*
X126602000Y-90310000D03*
D12*
X131682000Y-90310000D03*
D11*
X136762000Y-90310000D03*
D10*
X137524000Y-85230000D03*
D13*
X127872000Y-87770000D03*
X134222000Y-85230000D03*
%TD*%
D17*
%TO.C,SW70*%
X114956000Y-169050000D03*
D11*
X112951000Y-166510000D03*
D12*
X107871000Y-166510000D03*
D11*
X102791000Y-166510000D03*
D17*
X102029000Y-171590000D03*
D13*
X111681000Y-169050000D03*
X105331000Y-171590000D03*
%TD*%
D10*
%TO.C,SW58*%
X241279000Y-163970000D03*
D11*
X243284000Y-166510000D03*
D12*
X248364000Y-166510000D03*
D11*
X253444000Y-166510000D03*
D10*
X254206000Y-161430000D03*
D13*
X244554000Y-163970000D03*
X250904000Y-161430000D03*
%TD*%
D10*
%TO.C,SW34*%
X157935000Y-125870000D03*
D11*
X159940000Y-128410000D03*
D12*
X165020000Y-128410000D03*
D11*
X170100000Y-128410000D03*
D10*
X170862000Y-123330000D03*
D13*
X161210000Y-125870000D03*
X167560000Y-123330000D03*
%TD*%
D10*
%TO.C,SW56*%
X98405000Y-163970000D03*
D11*
X100410000Y-166510000D03*
D12*
X105490000Y-166510000D03*
D11*
X110570000Y-166510000D03*
D10*
X111332000Y-161430000D03*
D13*
X101680000Y-163970000D03*
X108030000Y-161430000D03*
%TD*%
D10*
%TO.C,SW6*%
X143647000Y-87770000D03*
D11*
X145652000Y-90310000D03*
D12*
X150732000Y-90310000D03*
D11*
X155812000Y-90310000D03*
D10*
X156574000Y-85230000D03*
D13*
X146922000Y-87770000D03*
X153272000Y-85230000D03*
%TD*%
D10*
%TO.C,SW37*%
X215085000Y-125870000D03*
D11*
X217090000Y-128410000D03*
D12*
X222170000Y-128410000D03*
D11*
X227250000Y-128410000D03*
D10*
X228012000Y-123330000D03*
D13*
X218360000Y-125870000D03*
X224710000Y-123330000D03*
%TD*%
D10*
%TO.C,SW28*%
X310336000Y-106820000D03*
D11*
X312341000Y-109360000D03*
D12*
X317421000Y-109360000D03*
D11*
X322501000Y-109360000D03*
D10*
X323263000Y-104280000D03*
D13*
X313611000Y-106820000D03*
X319961000Y-104280000D03*
%TD*%
D10*
%TO.C,SW3*%
X86497000Y-87770000D03*
D11*
X88502000Y-90310000D03*
D12*
X93582000Y-90310000D03*
D11*
X98662000Y-90310000D03*
D10*
X99424000Y-85230000D03*
D13*
X89772000Y-87770000D03*
X96122000Y-85230000D03*
%TD*%
D16*
%TO.C,hole5*%
X310277000Y-148960000D03*
%TD*%
D10*
%TO.C,SW27*%
X286523000Y-106820000D03*
D11*
X288528000Y-109360000D03*
D12*
X293608000Y-109360000D03*
D11*
X298688000Y-109360000D03*
D10*
X299450000Y-104280000D03*
D13*
X289798000Y-106820000D03*
X296148000Y-104280000D03*
%TD*%
D10*
%TO.C,SW45*%
X129361000Y-144920000D03*
D11*
X131366000Y-147460000D03*
D12*
X136446000Y-147460000D03*
D11*
X141526000Y-147460000D03*
D10*
X142288000Y-142380000D03*
D13*
X132636000Y-144920000D03*
X138986000Y-142380000D03*
%TD*%
D10*
%TO.C,SW24*%
X229373000Y-106820000D03*
D11*
X231378000Y-109360000D03*
D12*
X236458000Y-109360000D03*
D11*
X241538000Y-109360000D03*
D10*
X242300000Y-104280000D03*
D13*
X232648000Y-106820000D03*
X238998000Y-104280000D03*
%TD*%
D10*
%TO.C,SW4*%
X105547000Y-87770000D03*
D11*
X107552000Y-90310000D03*
D12*
X112632000Y-90310000D03*
D11*
X117712000Y-90310000D03*
D10*
X118474000Y-85230000D03*
D13*
X108822000Y-87770000D03*
X115172000Y-85230000D03*
%TD*%
D10*
%TO.C,SW46*%
X148411000Y-144920000D03*
D11*
X150416000Y-147460000D03*
D12*
X155496000Y-147460000D03*
D11*
X160576000Y-147460000D03*
D10*
X161338000Y-142380000D03*
D13*
X151686000Y-144920000D03*
X158036000Y-142380000D03*
%TD*%
D10*
%TO.C,SW11*%
X238897000Y-87770000D03*
D11*
X240902000Y-90310000D03*
D12*
X245982000Y-90310000D03*
D11*
X251062000Y-90310000D03*
D10*
X251824000Y-85230000D03*
D13*
X242172000Y-87770000D03*
X248522000Y-85230000D03*
%TD*%
D10*
%TO.C,SW52*%
X262711000Y-144920000D03*
D11*
X264716000Y-147460000D03*
D12*
X269796000Y-147460000D03*
D11*
X274876000Y-147460000D03*
D10*
X275638000Y-142380000D03*
D13*
X265986000Y-144920000D03*
X272336000Y-142380000D03*
%TD*%
D10*
%TO.C,SW7*%
X162697000Y-87770000D03*
D11*
X164702000Y-90310000D03*
D12*
X169782000Y-90310000D03*
D11*
X174862000Y-90310000D03*
D10*
X175624000Y-85230000D03*
D13*
X165972000Y-87770000D03*
X172322000Y-85230000D03*
%TD*%
D10*
%TO.C,SW15*%
X53160000Y-106820000D03*
D11*
X55165000Y-109360000D03*
D12*
X60245000Y-109360000D03*
D11*
X65325000Y-109360000D03*
D10*
X66087000Y-104280000D03*
D13*
X56435000Y-106820000D03*
X62785000Y-104280000D03*
%TD*%
D10*
%TO.C,SW49*%
X205561000Y-144920000D03*
D11*
X207566000Y-147460000D03*
D12*
X212646000Y-147460000D03*
D11*
X217726000Y-147460000D03*
D10*
X218488000Y-142380000D03*
D13*
X208836000Y-144920000D03*
X215186000Y-142380000D03*
%TD*%
D10*
%TO.C,SW25*%
X248423000Y-106820000D03*
D11*
X250428000Y-109360000D03*
D12*
X255508000Y-109360000D03*
D11*
X260588000Y-109360000D03*
D10*
X261350000Y-104280000D03*
D13*
X251698000Y-106820000D03*
X258048000Y-104280000D03*
%TD*%
D10*
%TO.C,SW30*%
X81735000Y-125870000D03*
D11*
X83740000Y-128410000D03*
D12*
X88820000Y-128410000D03*
D11*
X93900000Y-128410000D03*
D10*
X94662000Y-123330000D03*
D13*
X85010000Y-125870000D03*
X91360000Y-123330000D03*
%TD*%
D17*
%TO.C,SW68*%
X67330000Y-169050000D03*
D11*
X65325000Y-166510000D03*
D12*
X60245000Y-166510000D03*
D11*
X55165000Y-166510000D03*
D17*
X54403000Y-171590000D03*
D13*
X64055000Y-169050000D03*
X57705000Y-171590000D03*
%TD*%
D18*
%TO.C,U1*%
X333557000Y-77525000D03*
D19*
X333557000Y-80065000D03*
D18*
X333557000Y-82605000D03*
D20*
X333557000Y-85145000D03*
X333557000Y-87685000D03*
X333557000Y-90225000D03*
X333557000Y-92765000D03*
X333557000Y-95305000D03*
X333557000Y-97845000D03*
X348907000Y-77525000D03*
X348907000Y-80065000D03*
X348907000Y-82605000D03*
X348907000Y-85145000D03*
X348907000Y-87685000D03*
X348907000Y-90225000D03*
X348907000Y-92765000D03*
X348907000Y-95305000D03*
X348907000Y-97845000D03*
X346312000Y-98165000D03*
X343772000Y-98165000D03*
X341232000Y-98165000D03*
X338692000Y-98165000D03*
X336152000Y-98165000D03*
%TD*%
D16*
%TO.C,hole4*%
X107871000Y-148960000D03*
%TD*%
D10*
%TO.C,SW55*%
X74592000Y-163970000D03*
D11*
X76597000Y-166510000D03*
D12*
X81677000Y-166510000D03*
D11*
X86757000Y-166510000D03*
D10*
X87519000Y-161430000D03*
D13*
X77867000Y-163970000D03*
X84217000Y-161430000D03*
%TD*%
D17*
%TO.C,SW69*%
X91143000Y-169050000D03*
D11*
X89138000Y-166510000D03*
D12*
X84058000Y-166510000D03*
D11*
X78978000Y-166510000D03*
D17*
X78216000Y-171590000D03*
D13*
X87868000Y-169050000D03*
X81518000Y-171590000D03*
%TD*%
D10*
%TO.C,SW18*%
X115073000Y-106820000D03*
D11*
X117078000Y-109360000D03*
D12*
X122158000Y-109360000D03*
D11*
X127238000Y-109360000D03*
D10*
X128000000Y-104280000D03*
D13*
X118348000Y-106820000D03*
X124698000Y-104280000D03*
%TD*%
D10*
%TO.C,SW53*%
X288905000Y-144920000D03*
D11*
X290910000Y-147460000D03*
D12*
X295990000Y-147460000D03*
D11*
X301070000Y-147460000D03*
D10*
X301832000Y-142380000D03*
D13*
X292180000Y-144920000D03*
X298530000Y-142380000D03*
%TD*%
D10*
%TO.C,SW64*%
X315097000Y-144920000D03*
D11*
X317102000Y-147460000D03*
D12*
X322182000Y-147460000D03*
D11*
X327262000Y-147460000D03*
D10*
X328024000Y-142380000D03*
D13*
X318372000Y-144920000D03*
X324722000Y-142380000D03*
%TD*%
D10*
%TO.C,SW26*%
X267473000Y-106820000D03*
D11*
X269478000Y-109360000D03*
D12*
X274558000Y-109360000D03*
D11*
X279638000Y-109360000D03*
D10*
X280400000Y-104280000D03*
D13*
X270748000Y-106820000D03*
X277098000Y-104280000D03*
%TD*%
D14*
%TO.C,stab5*%
X226927000Y-173495000D03*
D15*
X226927000Y-158285000D03*
D14*
X126927000Y-173495000D03*
D15*
X126927000Y-158285000D03*
%TD*%
D10*
%TO.C,SW61*%
X334147000Y-125870000D03*
D11*
X336152000Y-128410000D03*
D12*
X341232000Y-128410000D03*
D11*
X346312000Y-128410000D03*
D10*
X347074000Y-123330000D03*
D13*
X337422000Y-125870000D03*
X343772000Y-123330000D03*
%TD*%
D14*
%TO.C,stab1*%
X55451000Y-140475000D03*
D15*
X55451000Y-155685000D03*
D14*
X79327000Y-140475000D03*
D15*
X79327000Y-155685000D03*
%TD*%
D10*
%TO.C,SW62*%
X334147000Y-144920000D03*
D11*
X336152000Y-147460000D03*
D12*
X341232000Y-147460000D03*
D11*
X346312000Y-147460000D03*
D10*
X347074000Y-142380000D03*
D13*
X337422000Y-144920000D03*
X343772000Y-142380000D03*
%TD*%
D10*
%TO.C,SW66*%
X296047000Y-163970000D03*
D11*
X298052000Y-166510000D03*
D12*
X303132000Y-166510000D03*
D11*
X308212000Y-166510000D03*
D10*
X308974000Y-161430000D03*
D13*
X299322000Y-163970000D03*
X305672000Y-161430000D03*
%TD*%
D10*
%TO.C,SW20*%
X153173000Y-106820000D03*
D11*
X155178000Y-109360000D03*
D12*
X160258000Y-109360000D03*
D11*
X165338000Y-109360000D03*
D10*
X166100000Y-104280000D03*
D13*
X156448000Y-106820000D03*
X162798000Y-104280000D03*
%TD*%
D10*
%TO.C,SW9*%
X200797000Y-87770000D03*
D11*
X202802000Y-90310000D03*
D12*
X207882000Y-90310000D03*
D11*
X212962000Y-90310000D03*
D10*
X213724000Y-85230000D03*
D13*
X204072000Y-87770000D03*
X210422000Y-85230000D03*
%TD*%
D10*
%TO.C,SW36*%
X196035000Y-125870000D03*
D11*
X198040000Y-128410000D03*
D12*
X203120000Y-128410000D03*
D11*
X208200000Y-128410000D03*
D10*
X208962000Y-123330000D03*
D13*
X199310000Y-125870000D03*
X205660000Y-123330000D03*
%TD*%
D10*
%TO.C,SW22*%
X191273000Y-106820000D03*
D11*
X193278000Y-109360000D03*
D12*
X198358000Y-109360000D03*
D11*
X203438000Y-109360000D03*
D10*
X204200000Y-104280000D03*
D13*
X194548000Y-106820000D03*
X200898000Y-104280000D03*
%TD*%
D16*
%TO.C,hole3*%
X274557000Y-91810000D03*
%TD*%
D10*
%TO.C,SW38*%
X234135000Y-125870000D03*
D11*
X236140000Y-128410000D03*
D12*
X241220000Y-128410000D03*
D11*
X246300000Y-128410000D03*
D10*
X247062000Y-123330000D03*
D13*
X237410000Y-125870000D03*
X243760000Y-123330000D03*
%TD*%
D10*
%TO.C,SW33*%
X138885000Y-125870000D03*
D11*
X140890000Y-128410000D03*
D12*
X145970000Y-128410000D03*
D11*
X151050000Y-128410000D03*
D10*
X151812000Y-123330000D03*
D13*
X142160000Y-125870000D03*
X148510000Y-123330000D03*
%TD*%
D10*
%TO.C,SW57*%
X169842000Y-163970000D03*
D11*
X171847000Y-166510000D03*
D12*
X176927000Y-166510000D03*
D11*
X182007000Y-166510000D03*
D10*
X182769000Y-161430000D03*
D13*
X173117000Y-163970000D03*
X179467000Y-161430000D03*
%TD*%
D10*
%TO.C,SW43*%
X91261000Y-144920000D03*
D11*
X93266000Y-147460000D03*
D12*
X98346000Y-147460000D03*
D11*
X103426000Y-147460000D03*
D10*
X104188000Y-142380000D03*
D13*
X94536000Y-144920000D03*
X100886000Y-142380000D03*
%TD*%
D10*
%TO.C,SW35*%
X176985000Y-125870000D03*
D11*
X178990000Y-128410000D03*
D12*
X184070000Y-128410000D03*
D11*
X189150000Y-128410000D03*
D10*
X189912000Y-123330000D03*
D13*
X180260000Y-125870000D03*
X186610000Y-123330000D03*
%TD*%
D10*
%TO.C,SW19*%
X134123000Y-106820000D03*
D11*
X136128000Y-109360000D03*
D12*
X141208000Y-109360000D03*
D11*
X146288000Y-109360000D03*
D10*
X147050000Y-104280000D03*
D13*
X137398000Y-106820000D03*
X143748000Y-104280000D03*
%TD*%
D10*
%TO.C,SW16*%
X76973000Y-106820000D03*
D11*
X78978000Y-109360000D03*
D12*
X84058000Y-109360000D03*
D11*
X89138000Y-109360000D03*
D10*
X89900000Y-104280000D03*
D13*
X80248000Y-106820000D03*
X86598000Y-104280000D03*
%TD*%
D10*
%TO.C,SW2*%
X67447000Y-87770000D03*
D11*
X69452000Y-90310000D03*
D12*
X74532000Y-90310000D03*
D11*
X79612000Y-90310000D03*
D10*
X80374000Y-85230000D03*
D13*
X70722000Y-87770000D03*
X77072000Y-85230000D03*
%TD*%
D10*
%TO.C,SW21*%
X172223000Y-106820000D03*
D11*
X174228000Y-109360000D03*
D12*
X179308000Y-109360000D03*
D11*
X184388000Y-109360000D03*
D10*
X185150000Y-104280000D03*
D13*
X175498000Y-106820000D03*
X181848000Y-104280000D03*
%TD*%
D14*
%TO.C,stab3*%
X298339000Y-121425000D03*
D15*
X298339000Y-136635000D03*
D14*
X322215000Y-121425000D03*
D15*
X322215000Y-136635000D03*
%TD*%
D10*
%TO.C,SW72*%
X262712000Y-163970000D03*
D11*
X264717000Y-166510000D03*
D12*
X269797000Y-166510000D03*
D11*
X274877000Y-166510000D03*
D10*
X275639000Y-161430000D03*
D13*
X265987000Y-163970000D03*
X272337000Y-161430000D03*
%TD*%
D10*
%TO.C,SW41*%
X303192000Y-125870000D03*
D11*
X305197000Y-128410000D03*
D12*
X310277000Y-128410000D03*
D11*
X315357000Y-128410000D03*
D10*
X316119000Y-123330000D03*
D13*
X306467000Y-125870000D03*
X312817000Y-123330000D03*
%TD*%
D16*
%TO.C,hole2*%
X65007000Y-91810000D03*
%TD*%
D10*
%TO.C,SW48*%
X186511000Y-144920000D03*
D11*
X188516000Y-147460000D03*
D12*
X193596000Y-147460000D03*
D11*
X198676000Y-147460000D03*
D10*
X199438000Y-142380000D03*
D13*
X189786000Y-144920000D03*
X196136000Y-142380000D03*
%TD*%
D10*
%TO.C,SW32*%
X119835000Y-125870000D03*
D11*
X121840000Y-128410000D03*
D12*
X126920000Y-128410000D03*
D11*
X132000000Y-128410000D03*
D10*
X132762000Y-123330000D03*
D13*
X123110000Y-125870000D03*
X129460000Y-123330000D03*
%TD*%
D10*
%TO.C,SW54*%
X50779000Y-163970000D03*
D11*
X52784000Y-166510000D03*
D12*
X57864000Y-166510000D03*
D11*
X62944000Y-166510000D03*
D10*
X63706000Y-161430000D03*
D13*
X54054000Y-163970000D03*
X60404000Y-161430000D03*
%TD*%
D10*
%TO.C,SW13*%
X276997000Y-87770000D03*
D11*
X279002000Y-90310000D03*
D12*
X284082000Y-90310000D03*
D11*
X289162000Y-90310000D03*
D10*
X289924000Y-85230000D03*
D13*
X280272000Y-87770000D03*
X286622000Y-85230000D03*
%TD*%
D10*
%TO.C,SW12*%
X257947000Y-87770000D03*
D11*
X259952000Y-90310000D03*
D12*
X265032000Y-90310000D03*
D11*
X270112000Y-90310000D03*
D10*
X270874000Y-85230000D03*
D13*
X261222000Y-87770000D03*
X267572000Y-85230000D03*
%TD*%
D10*
%TO.C,SW8*%
X181747000Y-87770000D03*
D11*
X183752000Y-90310000D03*
D12*
X188832000Y-90310000D03*
D11*
X193912000Y-90310000D03*
D10*
X194674000Y-85230000D03*
D13*
X185022000Y-87770000D03*
X191372000Y-85230000D03*
%TD*%
D10*
%TO.C,SW60*%
X334147000Y-106820000D03*
D11*
X336152000Y-109360000D03*
D12*
X341232000Y-109360000D03*
D11*
X346312000Y-109360000D03*
D10*
X347074000Y-104280000D03*
D13*
X337422000Y-106820000D03*
X343772000Y-104280000D03*
%TD*%
D10*
%TO.C,SW51*%
X243661000Y-144920000D03*
D11*
X245666000Y-147460000D03*
D12*
X250746000Y-147460000D03*
D11*
X255826000Y-147460000D03*
D10*
X256588000Y-142380000D03*
D13*
X246936000Y-144920000D03*
X253286000Y-142380000D03*
%TD*%
D10*
%TO.C,SW14*%
X305572000Y-87770000D03*
D11*
X307577000Y-90310000D03*
D12*
X312657000Y-90310000D03*
D11*
X317737000Y-90310000D03*
D10*
X318499000Y-85230000D03*
D13*
X308847000Y-87770000D03*
X315197000Y-85230000D03*
%TD*%
D21*
%TO.C,D29*%
X73263000Y-134060000D03*
X73263000Y-130760000D03*
%TD*%
%TO.C,D12*%
X270112000Y-95960000D03*
X270112000Y-92660000D03*
%TD*%
%TO.C,D32*%
X132000000Y-134060000D03*
X132000000Y-130760000D03*
%TD*%
%TO.C,D20*%
X165338000Y-115010000D03*
X165338000Y-111710000D03*
%TD*%
%TO.C,D17*%
X108188000Y-115010000D03*
X108188000Y-111710000D03*
%TD*%
%TO.C,D57*%
X199240000Y-172160000D03*
X199240000Y-168860000D03*
%TD*%
%TO.C,D31*%
X112950000Y-134060000D03*
X112950000Y-130760000D03*
%TD*%
%TO.C,D65*%
X327262000Y-172160000D03*
X327262000Y-168860000D03*
%TD*%
%TO.C,D37*%
X227250000Y-134060000D03*
X227250000Y-130760000D03*
%TD*%
%TO.C,D34*%
X170100000Y-134060000D03*
X170100000Y-130760000D03*
%TD*%
%TO.C,D25*%
X260588000Y-115010000D03*
X260588000Y-111710000D03*
%TD*%
%TO.C,D49*%
X217726000Y-153110000D03*
X217726000Y-149810000D03*
%TD*%
%TO.C,D33*%
X151050000Y-134060000D03*
X151050000Y-130760000D03*
%TD*%
%TO.C,D46*%
X160576000Y-153110000D03*
X160576000Y-149810000D03*
%TD*%
%TO.C,D3*%
X98662000Y-95960000D03*
X98662000Y-92660000D03*
%TD*%
%TO.C,D9*%
X212962000Y-95960000D03*
X212962000Y-92660000D03*
%TD*%
%TO.C,D47*%
X179626000Y-153110000D03*
X179626000Y-149810000D03*
%TD*%
%TO.C,D59*%
X282020000Y-172182500D03*
X282020000Y-168882500D03*
%TD*%
%TO.C,D15*%
X65325000Y-115010000D03*
X65325000Y-111710000D03*
%TD*%
%TO.C,D55*%
X94853000Y-172160000D03*
X94853000Y-168860000D03*
%TD*%
%TO.C,D39*%
X265350000Y-134060000D03*
X265350000Y-130760000D03*
%TD*%
%TO.C,D6*%
X155812000Y-95960000D03*
X155812000Y-92660000D03*
%TD*%
%TO.C,D35*%
X189150000Y-134060000D03*
X189150000Y-130760000D03*
%TD*%
%TO.C,D66*%
X308212000Y-172160000D03*
X308212000Y-168860000D03*
%TD*%
%TO.C,D45*%
X141526000Y-153110000D03*
X141526000Y-149810000D03*
%TD*%
%TO.C,D51*%
X255826000Y-153110000D03*
X255826000Y-149810000D03*
%TD*%
%TO.C,D43*%
X103426000Y-153110000D03*
X103426000Y-149810000D03*
%TD*%
%TO.C,D52*%
X274876000Y-153110000D03*
X274876000Y-149810000D03*
%TD*%
%TO.C,D2*%
X79612000Y-95960000D03*
X79612000Y-92660000D03*
%TD*%
%TO.C,D23*%
X222488000Y-115010000D03*
X222488000Y-111710000D03*
%TD*%
%TO.C,D8*%
X193912000Y-95960000D03*
X193912000Y-92660000D03*
%TD*%
%TO.C,D22*%
X203438000Y-115010000D03*
X203438000Y-111710000D03*
%TD*%
%TO.C,D50*%
X236776000Y-153110000D03*
X236776000Y-149810000D03*
%TD*%
%TO.C,D63*%
X346312000Y-172160000D03*
X346312000Y-168860000D03*
%TD*%
%TO.C,D13*%
X289162000Y-95960000D03*
X289162000Y-92660000D03*
%TD*%
%TO.C,D26*%
X279638000Y-115010000D03*
X279638000Y-111710000D03*
%TD*%
%TO.C,D10*%
X232012000Y-95960000D03*
X232012000Y-92660000D03*
%TD*%
%TO.C,D61*%
X346312000Y-134060000D03*
X346312000Y-130760000D03*
%TD*%
%TO.C,D1*%
X60562000Y-95960000D03*
X60562000Y-92660000D03*
%TD*%
%TO.C,D56*%
X118666200Y-172160000D03*
X118666200Y-168860000D03*
%TD*%
%TO.C,D54*%
X71040300Y-172160000D03*
X71040300Y-168860000D03*
%TD*%
%TO.C,D58*%
X253444000Y-172160000D03*
X253444000Y-168860000D03*
%TD*%
%TO.C,D27*%
X298688000Y-115010000D03*
X298688000Y-111710000D03*
%TD*%
%TO.C,D36*%
X208200000Y-134060000D03*
X208200000Y-130760000D03*
%TD*%
%TO.C,D28*%
X322501000Y-115010000D03*
X322501000Y-111710000D03*
%TD*%
%TO.C,D44*%
X122476000Y-153110000D03*
X122476000Y-149810000D03*
%TD*%
%TO.C,D4*%
X117712000Y-95960000D03*
X117712000Y-92660000D03*
%TD*%
%TO.C,D64*%
X327262000Y-153110000D03*
X327262000Y-149810000D03*
%TD*%
%TO.C,D62*%
X346312000Y-153110000D03*
X346312000Y-149810000D03*
%TD*%
%TO.C,D16*%
X89138000Y-115010000D03*
X89138000Y-111710000D03*
%TD*%
%TO.C,D48*%
X198676000Y-153110000D03*
X198676000Y-149810000D03*
%TD*%
%TO.C,D5*%
X136762000Y-95960000D03*
X136762000Y-92660000D03*
%TD*%
%TO.C,D41*%
X315357000Y-134060000D03*
X315357000Y-130760000D03*
%TD*%
%TO.C,D14*%
X317737000Y-95960000D03*
X317737000Y-92660000D03*
%TD*%
%TO.C,D11*%
X251062000Y-95960000D03*
X251062000Y-92660000D03*
%TD*%
%TO.C,D18*%
X127238000Y-115010000D03*
X127238000Y-111710000D03*
%TD*%
%TO.C,D30*%
X93900000Y-134060000D03*
X93900000Y-130760000D03*
%TD*%
%TO.C,D40*%
X284400000Y-134060000D03*
X284400000Y-130760000D03*
%TD*%
%TO.C,D21*%
X184388000Y-115010000D03*
X184388000Y-111710000D03*
%TD*%
%TO.C,D7*%
X174862000Y-95960000D03*
X174862000Y-92660000D03*
%TD*%
%TO.C,D60*%
X346312000Y-115010000D03*
X346312000Y-111710000D03*
%TD*%
%TO.C,D19*%
X146288000Y-115010000D03*
X146288000Y-111710000D03*
%TD*%
%TO.C,D38*%
X246300000Y-134060000D03*
X246300000Y-130760000D03*
%TD*%
%TO.C,D53*%
X301070000Y-153110000D03*
X301070000Y-149810000D03*
%TD*%
%TO.C,D24*%
X241538000Y-115010000D03*
X241538000Y-111710000D03*
%TD*%
%TO.C,D42*%
X72469000Y-153110000D03*
X72469000Y-149810000D03*
%TD*%
M02*
