M48
; DRILL file {KiCad 7.0.5} date Fri Sep 15 18:16:32 2023
; FORMAT={-:-/ absolute / metric / decimal}
; #@! TF.CreationDate,2023-09-15T18:16:32+08:00
; #@! TF.GenerationSoftware,Kicad,Pcbnew,7.0.5
; #@! TF.FileFunction,NonPlated,1,2,NPTH
FMAT,2
METRIC
; #@! TA.AperFunction,NonPlated,NPTH,ComponentDrill
T1C1.750
; #@! TA.AperFunction,NonPlated,NPTH,ComponentDrill
T2C3.048
; #@! TA.AperFunction,NonPlated,NPTH,ComponentDrill
T3C3.500
; #@! TA.AperFunction,NonPlated,NPTH,ComponentDrill
T4C3.988
; #@! TA.AperFunction,NonPlated,NPTH,ComponentDrill
T5C4.000
%
G90
G05
T1
X50.402Y-90.31
X52.784Y-128.41
X52.784Y-166.51
X55.165Y-109.36
X55.165Y-166.51
X57.546Y-128.41
X60.562Y-90.31
X62.309Y-147.46
X62.944Y-128.41
X62.944Y-166.51
X65.325Y-109.36
X65.325Y-166.51
X67.706Y-128.41
X69.452Y-90.31
X72.469Y-147.46
X76.597Y-166.51
X78.978Y-109.36
X78.978Y-166.51
X79.612Y-90.31
X83.74Y-128.41
X86.757Y-166.51
X88.502Y-90.31
X89.138Y-109.36
X89.138Y-166.51
X93.266Y-147.46
X93.9Y-128.41
X98.028Y-109.36
X98.662Y-90.31
X100.41Y-166.51
X102.79Y-128.41
X102.791Y-166.51
X103.426Y-147.46
X107.552Y-90.31
X108.188Y-109.36
X110.57Y-166.51
X112.316Y-147.46
X112.95Y-128.41
X112.951Y-166.51
X117.078Y-109.36
X117.712Y-90.31
X121.84Y-128.41
X122.476Y-147.46
X126.602Y-90.31
X127.238Y-109.36
X131.366Y-147.46
X132.0Y-128.41
X136.128Y-109.36
X136.762Y-90.31
X140.89Y-128.41
X141.526Y-147.46
X145.652Y-90.31
X146.288Y-109.36
X150.416Y-147.46
X151.05Y-128.41
X155.178Y-109.36
X155.812Y-90.31
X159.94Y-128.41
X160.576Y-147.46
X164.702Y-90.31
X165.338Y-109.36
X169.466Y-147.46
X170.1Y-128.41
X171.847Y-166.51
X174.228Y-109.36
X174.862Y-90.31
X178.99Y-128.41
X179.626Y-147.46
X182.007Y-166.51
X183.752Y-90.31
X183.754Y-166.51
X184.388Y-109.36
X188.516Y-147.46
X189.15Y-128.41
X193.278Y-109.36
X193.912Y-90.31
X193.914Y-166.51
X198.04Y-128.41
X198.676Y-147.46
X202.802Y-90.31
X203.438Y-109.36
X207.566Y-147.46
X208.2Y-128.41
X212.328Y-109.36
X212.962Y-90.31
X217.09Y-128.41
X217.726Y-147.46
X221.852Y-90.31
X222.488Y-109.36
X226.616Y-147.46
X227.25Y-128.41
X231.378Y-109.36
X232.012Y-90.31
X236.14Y-128.41
X236.776Y-147.46
X240.902Y-90.31
X241.538Y-109.36
X243.284Y-166.51
X245.666Y-147.46
X246.3Y-128.41
X250.428Y-109.36
X251.062Y-90.31
X253.444Y-166.51
X255.19Y-128.41
X255.826Y-147.46
X259.952Y-90.31
X260.588Y-109.36
X264.716Y-147.46
X264.717Y-166.51
X265.35Y-128.41
X267.096Y-166.51
X269.478Y-109.36
X270.112Y-90.31
X274.24Y-128.41
X274.876Y-147.46
X274.877Y-166.51
X277.256Y-166.51
X279.002Y-90.31
X279.638Y-109.36
X284.4Y-128.41
X288.528Y-109.36
X289.162Y-90.31
X290.91Y-147.46
X298.052Y-166.51
X298.688Y-109.36
X301.07Y-147.46
X305.197Y-128.41
X307.577Y-90.31
X308.212Y-166.51
X312.341Y-109.36
X315.357Y-128.41
X317.102Y-147.46
X317.102Y-166.51
X317.737Y-90.31
X322.501Y-109.36
X327.262Y-147.46
X327.262Y-166.51
X336.152Y-109.36
X336.152Y-128.41
X336.152Y-147.46
X336.152Y-166.51
X346.312Y-109.36
X346.312Y-128.41
X346.312Y-147.46
X346.312Y-166.51
T2
X55.451Y-140.475
X79.327Y-140.475
X126.927Y-173.495
X131.684Y-173.495
X226.927Y-173.495
X245.984Y-173.495
X298.339Y-121.425
X300.719Y-83.325
X322.215Y-121.425
X324.595Y-83.325
T3
X65.007Y-91.81
X107.871Y-148.96
X193.595Y-129.91
X274.557Y-91.81
X310.277Y-148.96
T4
X55.451Y-155.685
X79.327Y-155.685
X126.927Y-158.285
X131.684Y-158.285
X226.927Y-158.285
X245.984Y-158.285
X298.339Y-136.635
X300.719Y-98.535
X322.215Y-136.635
X324.595Y-98.535
T5
X55.482Y-90.31
X57.864Y-128.41
X57.864Y-166.51
X60.245Y-109.36
X60.245Y-166.51
X62.626Y-128.41
X67.389Y-147.46
X74.532Y-90.31
X81.677Y-166.51
X84.058Y-109.36
X84.058Y-166.51
X88.82Y-128.41
X93.582Y-90.31
X98.346Y-147.46
X103.108Y-109.36
X105.49Y-166.51
X107.87Y-128.41
X107.871Y-166.51
X112.632Y-90.31
X117.396Y-147.46
X122.158Y-109.36
X126.92Y-128.41
X131.682Y-90.31
X136.446Y-147.46
X141.208Y-109.36
X145.97Y-128.41
X150.732Y-90.31
X155.496Y-147.46
X160.258Y-109.36
X165.02Y-128.41
X169.782Y-90.31
X174.546Y-147.46
X176.927Y-166.51
X179.308Y-109.36
X184.07Y-128.41
X188.832Y-90.31
X188.834Y-166.51
X193.596Y-147.46
X198.358Y-109.36
X203.12Y-128.41
X207.882Y-90.31
X212.646Y-147.46
X217.408Y-109.36
X222.17Y-128.41
X226.932Y-90.31
X231.696Y-147.46
X236.458Y-109.36
X241.22Y-128.41
X245.982Y-90.31
X248.364Y-166.51
X250.746Y-147.46
X255.508Y-109.36
X260.27Y-128.41
X265.032Y-90.31
X269.796Y-147.46
X269.797Y-166.51
X272.176Y-166.51
X274.558Y-109.36
X279.32Y-128.41
X284.082Y-90.31
X293.608Y-109.36
X295.99Y-147.46
X303.132Y-166.51
X310.277Y-128.41
X312.657Y-90.31
X317.421Y-109.36
X322.182Y-147.46
X322.182Y-166.51
X341.232Y-109.36
X341.232Y-128.41
X341.232Y-147.46
X341.232Y-166.51
T0
M30
